G04*
G04 #@! TF.GenerationSoftware,Altium Limited,Altium Designer,22.5.1 (42)*
G04*
G04 Layer_Physical_Order=2*
G04 Layer_Color=16711680*
%FSLAX44Y44*%
%MOMM*%
G71*
G04*
G04 #@! TF.SameCoordinates,C796FD1A-AD25-48EF-AA2C-5B7F1B644D0D*
G04*
G04*
G04 #@! TF.FilePolarity,Positive*
G04*
G01*
G75*
%ADD16C,1.5000*%
%ADD47C,3.0000*%
%ADD48C,1.0000*%
%ADD49C,4.0000*%
%ADD50O,3.0000X4.0000*%
%ADD51C,3.0000*%
%ADD52C,4.4000*%
%ADD53C,2.0320*%
%ADD54O,2.0320X3.0480*%
%ADD55O,1.5000X3.0480*%
%ADD56R,2.0320X2.0320*%
%ADD57R,2.0320X2.0320*%
%ADD58C,2.1590*%
%ADD59P,3.2992X8X112.5*%
%ADD60P,3.2992X8X202.5*%
%ADD61C,2.0066*%
%ADD62O,1.8000X2.0000*%
%ADD63R,1.8000X2.0000*%
%ADD64C,6.0000*%
%ADD65C,2.2000*%
%ADD66C,1.4000*%
%ADD67R,1.4000X1.4000*%
%ADD68R,1.4000X1.4000*%
%ADD69C,2.0000*%
%ADD70C,10.0000*%
%ADD71R,1.5000X1.5000*%
%ADD72C,1.5000*%
%ADD73C,4.2000*%
%ADD74R,1.6500X1.6500*%
%ADD75C,1.6500*%
%ADD76C,0.7620*%
G36*
X0Y-9763D02*
Y-42599D01*
X-349621Y-43121D01*
X-350520Y-42224D01*
Y-9763D01*
X-350283D01*
X-340520Y0D01*
X-9763D01*
X0Y-9763D01*
D02*
G37*
G36*
X-771869Y-117033D02*
X-772737Y-248034D01*
X-851737Y-323034D01*
Y-405034D01*
X-871735Y-424850D01*
X-1156739Y-422219D01*
X-1176737Y-402034D01*
Y-268034D01*
X-1156737Y-248034D01*
X-1132737D01*
X-1112512Y-268032D01*
X-1111962Y-317037D01*
X-1091737Y-337034D01*
X-940737D01*
X-851737Y-248034D01*
Y-117034D01*
X-831737Y-97034D01*
X-791737D01*
X-771869Y-117033D01*
D02*
G37*
G36*
X-54102Y-82296D02*
X-46870Y-345167D01*
X-97737Y-396034D01*
X-182737D01*
X-212737Y-366034D01*
Y-284295D01*
X-212634Y-284103D01*
X-211850Y-283148D01*
X-178623Y-249921D01*
X-177668Y-249137D01*
X-177476Y-249034D01*
X-95737D01*
X-86106Y-239403D01*
Y-221532D01*
X-84633Y-218776D01*
X-83333Y-214491D01*
X-82894Y-210034D01*
X-83333Y-205578D01*
X-84633Y-201293D01*
X-86106Y-198536D01*
Y-108204D01*
X-83638Y-69455D01*
X-82544Y-68811D01*
X-54102Y-82296D01*
D02*
G37*
G36*
X269263Y-366034D02*
Y-561034D01*
X252263Y-578034D01*
X-203737D01*
X-220737Y-561034D01*
Y-444034D01*
X-200737Y-424034D01*
X123263D01*
X143263Y-404034D01*
Y-366034D01*
X161263Y-348034D01*
X251263D01*
X269263Y-366034D01*
D02*
G37*
G36*
X-1247737Y-274034D02*
Y-278034D01*
Y-712976D01*
X-1248753Y-713738D01*
X-1408919Y-667032D01*
X-1430919Y-640250D01*
Y-627034D01*
Y-278034D01*
Y-277066D01*
X-1400919Y-248034D01*
X-1273737D01*
X-1247737Y-274034D01*
D02*
G37*
G36*
X646265Y-428712D02*
Y-428955D01*
X676263Y-458954D01*
Y-786034D01*
X656263Y-806034D01*
X538681D01*
X520200Y-825351D01*
X519021Y-824878D01*
Y-806034D01*
X492517D01*
X493982Y-825059D01*
X492827Y-825588D01*
X473422Y-806034D01*
X473263D01*
Y-642083D01*
X473382Y-642034D01*
X503382Y-612034D01*
X542263D01*
X562263Y-592034D01*
Y-458034D01*
X562503D01*
X592261Y-428276D01*
X646265Y-428712D01*
D02*
G37*
G36*
X-562737Y-646034D02*
Y-1004034D01*
X-592745Y-1033619D01*
X-821729Y-1030450D01*
X-851737Y-999534D01*
X-881737Y-969034D01*
X-1037190D01*
X-1109201Y-852034D01*
X-1142737D01*
X-1172737Y-822034D01*
Y-724034D01*
X-1142737Y-694034D01*
X-881737D01*
X-851737Y-664034D01*
Y-646034D01*
X-821737Y-616034D01*
X-592737D01*
X-562737Y-646034D01*
D02*
G37*
G36*
X-403688Y-106166D02*
X-402758Y-106736D01*
X-398730Y-108405D01*
X-394491Y-109422D01*
X-390144Y-109764D01*
X-385797Y-109422D01*
X-381558Y-108405D01*
X-377530Y-106736D01*
X-376643Y-106193D01*
X-359487Y-106209D01*
X-359097Y-121616D01*
X-370986Y-131919D01*
X-373097Y-132127D01*
X-376904Y-133282D01*
X-380414Y-135157D01*
X-383489Y-137682D01*
X-386014Y-140757D01*
X-387889Y-144267D01*
X-388836Y-147388D01*
X-389098Y-147615D01*
X-389099Y-148628D01*
X-389435Y-152034D01*
X-389107Y-155359D01*
X-389154Y-194818D01*
X-373425Y-210566D01*
X-257469D01*
X-257321Y-210814D01*
X-256452Y-209861D01*
X-239269Y-191034D01*
X-223379D01*
X-222951Y-192230D01*
X-223934Y-193037D01*
X-226396Y-196036D01*
X-228225Y-199459D01*
X-229352Y-203172D01*
X-229732Y-207034D01*
X-229352Y-210896D01*
X-228225Y-214610D01*
X-226396Y-218032D01*
X-223934Y-221032D01*
X-220935Y-223493D01*
X-217512Y-225323D01*
X-213799Y-226449D01*
X-209937Y-226829D01*
X-206075Y-226449D01*
X-202361Y-225323D01*
X-198939Y-223493D01*
X-195939Y-221032D01*
X-193478Y-218032D01*
X-191648Y-214610D01*
X-190522Y-210896D01*
X-190142Y-207034D01*
X-190522Y-203172D01*
X-191648Y-199459D01*
X-193478Y-196036D01*
X-195939Y-193037D01*
X-196922Y-192230D01*
X-196495Y-191034D01*
X-124795Y-191034D01*
X-123544Y-191034D01*
X-121233Y-191992D01*
X-119463Y-193761D01*
X-118506Y-196073D01*
X-118506Y-197324D01*
X-118506Y-197324D01*
X-118506Y-197324D01*
X-118506Y-199155D01*
X-118491Y-199305D01*
X-118377Y-199583D01*
X-118164Y-199795D01*
X-117887Y-199909D01*
X-117737Y-199924D01*
X-117737D01*
X-117737Y-218546D01*
X-117737Y-219541D01*
X-118498Y-221379D01*
X-119904Y-222785D01*
X-121657Y-223511D01*
X-177737D01*
X-178092Y-223546D01*
X-185781D01*
X-187902Y-225667D01*
X-191917Y-227813D01*
X-195784Y-230987D01*
X-230784Y-265987D01*
X-233958Y-269854D01*
X-236104Y-273869D01*
X-239269Y-277034D01*
Y-426578D01*
X-241958Y-429854D01*
X-244317Y-434267D01*
X-245769Y-439055D01*
X-246260Y-444034D01*
Y-561034D01*
X-245769Y-566013D01*
X-244317Y-570801D01*
X-241958Y-575214D01*
X-239269Y-578490D01*
Y-609034D01*
X293184D01*
X293425Y-568883D01*
X294296Y-566013D01*
X294786Y-561034D01*
Y-366034D01*
X294651Y-364666D01*
X294734Y-350927D01*
X336326Y-339472D01*
X338026Y-340942D01*
X340999Y-344315D01*
X343489Y-348057D01*
X345452Y-352101D01*
X346851Y-356372D01*
X347662Y-360794D01*
X347869Y-365284D01*
X347468Y-369761D01*
X346968Y-371952D01*
X346968Y-371952D01*
X451263Y-486034D01*
X454263Y-591034D01*
Y-625196D01*
X453616Y-625985D01*
X452042Y-627904D01*
X452040Y-627906D01*
X452038Y-627908D01*
X450870Y-630095D01*
X449683Y-632316D01*
X449682Y-632319D01*
X449681Y-632321D01*
X448955Y-634715D01*
X448231Y-637104D01*
X448231Y-637107D01*
X448230Y-637110D01*
X447981Y-639642D01*
X447740Y-642083D01*
Y-806034D01*
X448231Y-811013D01*
X449683Y-815801D01*
X452042Y-820214D01*
X454263Y-822921D01*
Y-1007034D01*
X424263Y-1037034D01*
X-249737D01*
X-279737Y-1007034D01*
X-279737Y-262941D01*
X-280047Y-262192D01*
X-280093Y-261246D01*
X-280463Y-259390D01*
X-281187Y-257642D01*
X-282238Y-256068D01*
X-283576Y-254731D01*
X-285149Y-253679D01*
X-286897Y-252955D01*
X-288753Y-252586D01*
X-289699Y-252540D01*
X-426257Y-252717D01*
X-427239Y-252718D01*
X-429164Y-252336D01*
X-430978Y-251586D01*
X-432611Y-250497D01*
X-434000Y-249110D01*
X-435091Y-247478D01*
X-435843Y-245665D01*
X-436227Y-243741D01*
X-436228Y-242759D01*
Y-242730D01*
X-435839Y-108268D01*
X-432140Y-106736D01*
X-431166Y-106140D01*
X-403688Y-106166D01*
D02*
G37*
G36*
X-822921Y-1093034D02*
X-822921Y-1093034D01*
X-822921Y-1093034D01*
X-820666Y-1094254D01*
X-816417Y-1097123D01*
X-812469Y-1100396D01*
X-808862Y-1104039D01*
X-805629Y-1108019D01*
X-802801Y-1112296D01*
X-800407Y-1116830D01*
X-798469Y-1121577D01*
X-797737Y-1124034D01*
X-834738Y-1147403D01*
X-835887Y-1146862D01*
X-842657Y-1093988D01*
X-841818Y-1093034D01*
X-822921Y-1093034D01*
D02*
G37*
G36*
X-387737Y-393964D02*
X-357928Y-424033D01*
X-361953Y-1054356D01*
X-347063Y-1069340D01*
X467799Y-1076250D01*
X468280Y-1077425D01*
X366891Y-1178814D01*
X-392737Y-1177034D01*
X-716737D01*
X-747017Y-1147037D01*
X-747456Y-1100032D01*
X-716737Y-1070034D01*
X-565737D01*
X-524202Y-1029965D01*
X-523338Y-616034D01*
X-553275Y-586034D01*
X-756737D01*
X-786737Y-561034D01*
Y-424034D01*
X-756737Y-393104D01*
X-387737Y-393964D01*
D02*
G37*
G36*
X676420Y-867046D02*
Y-867300D01*
X676445Y-875937D01*
X676445Y-1187857D01*
X657141Y-1207161D01*
X656658Y-1207034D01*
X562974D01*
X543263Y-1187552D01*
Y-872075D01*
X563151Y-852034D01*
X661408D01*
X676420Y-867046D01*
D02*
G37*
G36*
X-1247737Y-892034D02*
Y-1178034D01*
X-1277737Y-1208034D01*
X-1410737D01*
X-1430737Y-1188034D01*
Y-882034D01*
X-1394737Y-852034D01*
X-1287737D01*
X-1247737Y-892034D01*
D02*
G37*
%LPC*%
G36*
X-1274423Y-940539D02*
X-1279051D01*
X-1283590Y-941442D01*
X-1287866Y-943213D01*
X-1291714Y-945784D01*
X-1294987Y-949057D01*
X-1297558Y-952905D01*
X-1299329Y-957181D01*
X-1300232Y-961720D01*
Y-966348D01*
X-1299329Y-970887D01*
X-1297558Y-975163D01*
X-1294987Y-979011D01*
X-1291714Y-982284D01*
X-1287866Y-984855D01*
X-1283590Y-986626D01*
X-1279051Y-987529D01*
X-1274423D01*
X-1269883Y-986626D01*
X-1265608Y-984855D01*
X-1261760Y-982284D01*
X-1258487Y-979011D01*
X-1255916Y-975163D01*
X-1254145Y-970887D01*
X-1253242Y-966348D01*
Y-961720D01*
X-1254145Y-957181D01*
X-1255916Y-952905D01*
X-1258487Y-949057D01*
X-1261760Y-945784D01*
X-1265608Y-943213D01*
X-1269883Y-941442D01*
X-1274423Y-940539D01*
D02*
G37*
G36*
X-1397403Y-1036334D02*
X-1402071D01*
X-1406650Y-1037245D01*
X-1410963Y-1039032D01*
X-1414845Y-1041625D01*
X-1418146Y-1044926D01*
X-1420739Y-1048808D01*
X-1422526Y-1053121D01*
X-1423437Y-1057700D01*
Y-1062368D01*
X-1422526Y-1066947D01*
X-1420739Y-1071260D01*
X-1418146Y-1075142D01*
X-1414845Y-1078443D01*
X-1410963Y-1081037D01*
X-1406650Y-1082823D01*
X-1402071Y-1083734D01*
X-1397403D01*
X-1392824Y-1082823D01*
X-1388511Y-1081037D01*
X-1384629Y-1078443D01*
X-1381328Y-1075142D01*
X-1378734Y-1071260D01*
X-1376948Y-1066947D01*
X-1376037Y-1062368D01*
Y-1057700D01*
X-1376948Y-1053121D01*
X-1378734Y-1048808D01*
X-1381328Y-1044926D01*
X-1384629Y-1041625D01*
X-1388511Y-1039032D01*
X-1392824Y-1037245D01*
X-1397403Y-1036334D01*
D02*
G37*
%LPD*%
D16*
X-105744Y-209829D02*
X-103871Y-211702D01*
X-108532Y-207041D02*
X-105744Y-209829D01*
X-108539Y-207034D02*
X-108532Y-207041D01*
X-108737Y-207034D02*
X-108539D01*
X-133737D02*
X-108737D01*
X563263Y-692034D02*
X573263Y-682034D01*
X563263Y-764634D02*
Y-692034D01*
X-882879Y-1100034D02*
X-826524D01*
X-817737Y-1108821D01*
Y-1126034D02*
Y-1108821D01*
X-890237Y-1107392D02*
X-882879Y-1100034D01*
X-890237Y-1134134D02*
Y-1107392D01*
X-1071357Y-895414D02*
Y-798874D01*
Y-895414D02*
X-1005737Y-961034D01*
D47*
X-69088Y-139700D02*
Y-76979D01*
X-335534D02*
Y-18491D01*
X-412496Y-120904D02*
X-374459D01*
X-414782Y-123190D02*
X-412496Y-120904D01*
X-374459D02*
X-335534Y-81979D01*
Y-76979D01*
X-85598Y-19601D02*
X-32052D01*
X-14478Y-76979D02*
Y-37175D01*
X-32052Y-19601D02*
X-14478Y-37175D01*
D48*
X-108532Y-207041D02*
G03*
X-108737Y-207034I-205J-2993D01*
G01*
X-105744Y-209829D02*
G03*
X-108532Y-207041I-2993J-205D01*
G01*
X-105737Y-210034D02*
G03*
X-105744Y-209829I-3000J0D01*
G01*
X-81337Y-142494D02*
X-69088Y-139700D01*
X-81337Y-252914D02*
Y-142494D01*
X617083Y-791934D02*
X620123Y-788894D01*
X-359237Y-290694D02*
Y-282954D01*
X-308437Y-358004D02*
Y-290694D01*
X-359237Y-358004D02*
Y-290694D01*
X-169737Y-207034D02*
X-133737D01*
X-243737Y-281034D02*
X-169737Y-207034D01*
X-152227Y-323804D02*
X-81337Y-252914D01*
X-243737Y-599198D02*
Y-281034D01*
Y-599198D02*
X-198493Y-644442D01*
X-983737Y-1055034D02*
X-926737Y-998034D01*
X-977879Y-1134634D02*
X-953537D01*
X-983737Y-1128776D02*
X-977879Y-1134634D01*
X-983737Y-1128776D02*
Y-1055034D01*
X-887337Y-1294034D02*
X-887318Y-1294015D01*
X-851756D02*
X-851737Y-1293996D01*
X-887318Y-1294015D02*
X-851756D01*
X-828837Y-1291496D02*
Y-1281934D01*
X-861737Y-1249034D02*
Y-1134134D01*
X-828837Y-1291496D02*
X-826337Y-1293996D01*
X-861737Y-1249034D02*
X-828837Y-1281934D01*
X-982737Y-1271034D02*
Y-1165892D01*
Y-1283737D02*
Y-1271034D01*
X-887737Y-1293634D02*
Y-1277034D01*
Y-1293634D02*
X-887337Y-1294034D01*
X-893737Y-1271034D02*
X-887737Y-1277034D01*
X-982737Y-1271034D02*
X-893737D01*
X-1005137Y-1318176D02*
X-999279Y-1324034D01*
X-942737D01*
X-1005137Y-1318176D02*
Y-1294034D01*
X-942737Y-1324034D02*
X-912737Y-1294034D01*
X-982737Y-1283737D02*
X-981711Y-1284762D01*
Y-1292060D02*
Y-1284762D01*
Y-1292060D02*
X-979737Y-1294034D01*
X-1007737Y-1271234D02*
Y-1167892D01*
X-1030537Y-1294034D02*
X-1007737Y-1271234D01*
X-953537Y-1160034D02*
X-950744D01*
X-976879D02*
X-953537D01*
X-982737Y-1165892D02*
X-976879Y-1160034D01*
X-926737Y-998034D02*
X-906737D01*
X-904309Y-1152394D02*
X-888770Y-1167934D01*
X-943104Y-1152394D02*
X-904309D01*
X-888770Y-1167934D02*
X-888737D01*
X-950744Y-1160034D02*
X-943104Y-1152394D01*
X-1029737Y-1160034D02*
X-1027762Y-1162009D01*
X-1013620D01*
X-1007737Y-1167892D01*
X-1005187Y-960484D02*
X-907287D01*
X-1005737Y-961034D02*
X-1005187Y-960484D01*
X-907287D02*
X-906737Y-959934D01*
X625272Y-868134D02*
X634572Y-858834D01*
X639263D01*
D49*
X505263Y-1015034D02*
Y-705466D01*
X314263Y-602034D02*
Y-355034D01*
X244991Y-644442D02*
X245374Y-644059D01*
X272238D01*
X314263Y-602034D01*
X-1357305Y-1185603D02*
Y-941702D01*
X-1377737Y-921270D02*
Y-905034D01*
Y-921270D02*
X-1357305Y-941702D01*
X-1320647Y-667124D02*
X-1236737Y-751034D01*
Y-851634D02*
X-1124337Y-964034D01*
X-1236737Y-851634D02*
Y-751034D01*
X-1388857Y-667124D02*
X-1320647D01*
X-1120125Y-361286D02*
X-930988D01*
X-805922Y-236219D02*
Y-135726D01*
X-930988Y-361286D02*
X-805922Y-236219D01*
X-1143557Y-303564D02*
Y-278564D01*
Y-329564D02*
Y-303564D01*
Y-337854D02*
Y-329564D01*
X-805922Y-135726D02*
X-805157Y-134961D01*
X-1143557Y-337854D02*
X-1120125Y-361286D01*
X-601172Y-285343D02*
X-578947Y-307568D01*
Y-323804D02*
Y-307568D01*
X-601172Y-285343D02*
Y-270466D01*
X-779754Y-312964D02*
X-713825Y-247034D01*
X-624603D02*
X-601172Y-270466D01*
X-713825Y-247034D02*
X-624603D01*
X-637659Y-1153804D02*
X-490168D01*
Y-492042D02*
X-466737Y-515474D01*
X-490168Y-1153804D02*
X-466737Y-1130373D01*
X-637659Y-492042D02*
X-490168D01*
X-466737Y-1130373D02*
Y-515474D01*
X314263Y-355034D02*
X377263Y-292034D01*
X573263Y-682034D02*
X620123D01*
X-817737Y-1197034D02*
X-783737Y-1231034D01*
X-817737Y-1197034D02*
Y-1126034D01*
X-783737Y-1231034D02*
X370263D01*
X505263Y-1096034D01*
Y-1015034D01*
Y-705466D02*
X528695Y-682034D01*
X573263D01*
X-1399737Y-1212034D02*
X-1383737D01*
X-1357305Y-1185603D01*
X526832Y-292034D02*
X550263Y-315466D01*
X546263Y-357034D02*
X550263Y-353034D01*
Y-315466D01*
X377263Y-292034D02*
X526832D01*
X394263Y-357034D02*
X505263Y-468034D01*
Y-552034D02*
Y-468034D01*
X620123Y-682034D02*
Y-525034D01*
Y-788894D02*
Y-682034D01*
X618853Y-879244D02*
X639263Y-858834D01*
X618853Y-1125784D02*
Y-879244D01*
X620123Y-788894D02*
X639263Y-808034D01*
D50*
X-14478Y-76979D02*
D03*
X-123698D02*
D03*
X-69088D02*
D03*
X-390144D02*
D03*
X-444754D02*
D03*
X-335534D02*
D03*
D51*
X-933757Y-274964D02*
D03*
Y-172964D02*
D03*
D52*
X-779754Y-312964D02*
D03*
X-702759D02*
D03*
X-805157Y-134961D02*
D03*
D53*
X-1005737Y-961034D02*
D03*
Y-999134D02*
D03*
X-906737Y-959934D02*
D03*
Y-998034D02*
D03*
X-1029737Y-1109234D02*
D03*
Y-1134634D02*
D03*
Y-1160034D02*
D03*
Y-1185434D02*
D03*
Y-1210834D02*
D03*
Y-1236234D02*
D03*
X-953537D02*
D03*
Y-1210834D02*
D03*
Y-1185434D02*
D03*
Y-1160034D02*
D03*
Y-1134634D02*
D03*
Y-1109234D02*
D03*
Y-1083834D02*
D03*
X-1187937Y-1293996D02*
D03*
X-1213337D02*
D03*
X-1238737D02*
D03*
X493463Y-70034D02*
D03*
X468063D02*
D03*
X442663D02*
D03*
X-1252777Y-147954D02*
D03*
X-1227377D02*
D03*
X-1201977D02*
D03*
X20263Y-341834D02*
D03*
Y-316434D02*
D03*
Y-291034D02*
D03*
X-1030537Y-1294034D02*
D03*
X-1005137D02*
D03*
X-979737D02*
D03*
D54*
X-333837Y-358004D02*
D03*
Y-290694D02*
D03*
D55*
X-308437Y-358004D02*
D03*
X-359237D02*
D03*
X-308437Y-290694D02*
D03*
X-359237D02*
D03*
D56*
X-1029737Y-1083834D02*
D03*
X-1264137Y-1293996D02*
D03*
X417263Y-70034D02*
D03*
X-1176577Y-147954D02*
D03*
X-954337Y-1294034D02*
D03*
D57*
X20263Y-265634D02*
D03*
D58*
X563263Y-764634D02*
D03*
Y-917034D02*
D03*
X-1124337Y-964034D02*
D03*
X-1276737D02*
D03*
D59*
X-1388857Y-667124D02*
D03*
Y-717924D02*
D03*
X639263Y-858834D02*
D03*
Y-808034D02*
D03*
D60*
X-1099737Y-83034D02*
D03*
X-1048937D02*
D03*
D61*
X-4137Y-210034D02*
D03*
X-105737D02*
D03*
D62*
X-150937Y-165034D02*
D03*
X-176337D02*
D03*
X-150937Y-139634D02*
D03*
X-176337D02*
D03*
X-252537Y-165034D02*
D03*
X-227137D02*
D03*
Y-139634D02*
D03*
X-252537D02*
D03*
X-125537D02*
D03*
Y-165034D02*
D03*
X-201737D02*
D03*
Y-139634D02*
D03*
X-277937D02*
D03*
Y-165034D02*
D03*
X-303337Y-139634D02*
D03*
D63*
Y-165034D02*
D03*
D64*
X272288Y43925D02*
D03*
X-627737D02*
D03*
X72288D02*
D03*
X-427737Y43966D02*
D03*
X640263Y105966D02*
D03*
X-1394737D02*
D03*
X-555737Y-1293996D02*
D03*
X640263D02*
D03*
X-1394737D02*
D03*
D65*
X-1143557Y-329564D02*
D03*
Y-303564D02*
D03*
X-1272557Y-329564D02*
D03*
Y-303564D02*
D03*
Y-278564D02*
D03*
X-1143557D02*
D03*
X215263Y-240034D02*
D03*
X189263D02*
D03*
X215263Y-369034D02*
D03*
X189263D02*
D03*
X164263D02*
D03*
Y-240034D02*
D03*
X-1174737Y-1212034D02*
D03*
Y-1161234D02*
D03*
Y-1110434D02*
D03*
X-1399737Y-1212034D02*
D03*
Y-1060034D02*
D03*
X-1174737D02*
D03*
X394263Y-132034D02*
D03*
Y-357034D02*
D03*
X546263D02*
D03*
X444663Y-132034D02*
D03*
X495463D02*
D03*
X546263D02*
D03*
D66*
X-1179557Y-202564D02*
D03*
X-1217557D02*
D03*
X-1198557D02*
D03*
X88263Y-276034D02*
D03*
Y-314034D02*
D03*
Y-295034D02*
D03*
X-1087737Y-1198134D02*
D03*
Y-1121934D02*
D03*
X-133737Y-207034D02*
D03*
X-209937D02*
D03*
X-1117737Y-1121934D02*
D03*
Y-1198134D02*
D03*
Y-1017934D02*
D03*
Y-1094134D02*
D03*
Y-1223934D02*
D03*
Y-1300134D02*
D03*
X-1087737Y-1223934D02*
D03*
Y-1300134D02*
D03*
X-861737Y-1057934D02*
D03*
Y-1134134D02*
D03*
X-918737Y-1057934D02*
D03*
Y-1134134D02*
D03*
X-890237D02*
D03*
Y-1057934D02*
D03*
X-919737Y-1166934D02*
D03*
Y-1243134D02*
D03*
X-888737Y-1244134D02*
D03*
Y-1167934D02*
D03*
D67*
X-1236557Y-202564D02*
D03*
D68*
X88263Y-333034D02*
D03*
D69*
X505263Y-555034D02*
D03*
Y-1015034D02*
D03*
X505263Y-798034D02*
D03*
D70*
X620123Y-525034D02*
D03*
X-1377247Y-395344D02*
D03*
X618853Y-1125784D02*
D03*
X-1377737Y-905034D02*
D03*
X-578947Y-323804D02*
D03*
X-152227D02*
D03*
D71*
X-887337Y-1294034D02*
D03*
X-826337Y-1293996D02*
D03*
X-343737Y-152034D02*
D03*
D72*
X-912737Y-1294034D02*
D03*
X-851737Y-1293996D02*
D03*
X-369137Y-152034D02*
D03*
D73*
X-1071357Y-626484D02*
D03*
Y-726484D02*
D03*
Y-574084D02*
D03*
Y-798874D02*
D03*
X244991Y-1101404D02*
D03*
Y-1001404D02*
D03*
Y-1153804D02*
D03*
Y-929014D02*
D03*
X-198493D02*
D03*
Y-1153804D02*
D03*
Y-1001404D02*
D03*
Y-1101404D02*
D03*
X-637659D02*
D03*
Y-1001404D02*
D03*
Y-1153804D02*
D03*
Y-929014D02*
D03*
X244991Y-716832D02*
D03*
Y-492042D02*
D03*
Y-644442D02*
D03*
Y-544442D02*
D03*
X-198493D02*
D03*
Y-644442D02*
D03*
Y-492042D02*
D03*
Y-716832D02*
D03*
X-637659D02*
D03*
Y-492042D02*
D03*
Y-644442D02*
D03*
Y-544442D02*
D03*
D74*
X-1026467Y-270414D02*
D03*
D75*
Y-164414D02*
D03*
D76*
X666222Y-461035D02*
D03*
Y-491355D02*
D03*
Y-582315D02*
D03*
Y-612635D02*
D03*
Y-642955D02*
D03*
Y-673275D02*
D03*
Y-703595D02*
D03*
Y-733915D02*
D03*
Y-764235D02*
D03*
X651062Y-461035D02*
D03*
X658642Y-476195D02*
D03*
Y-567155D02*
D03*
X651062Y-582315D02*
D03*
X658642Y-597475D02*
D03*
X651062Y-612635D02*
D03*
X658642Y-627795D02*
D03*
X651062Y-642955D02*
D03*
X658642Y-658115D02*
D03*
X651062Y-673275D02*
D03*
X658642Y-688435D02*
D03*
X651062Y-703595D02*
D03*
X658642Y-718755D02*
D03*
X651062Y-733915D02*
D03*
X658642Y-749075D02*
D03*
X651062Y-764235D02*
D03*
X658642Y-779395D02*
D03*
X643482Y-445875D02*
D03*
X635902Y-461035D02*
D03*
Y-582315D02*
D03*
X643482Y-597475D02*
D03*
X635902Y-612635D02*
D03*
X643482Y-627795D02*
D03*
X635902Y-642955D02*
D03*
X643482Y-658115D02*
D03*
X635902Y-673275D02*
D03*
X643482Y-688435D02*
D03*
X635902Y-703595D02*
D03*
X643482Y-718755D02*
D03*
X635902Y-733915D02*
D03*
X643482Y-749075D02*
D03*
X635902Y-764235D02*
D03*
X643482Y-779395D02*
D03*
X628322Y-445875D02*
D03*
X620742Y-461035D02*
D03*
Y-582315D02*
D03*
X628322Y-597475D02*
D03*
X620742Y-612635D02*
D03*
X628322Y-627795D02*
D03*
X620742Y-642955D02*
D03*
X628322Y-658115D02*
D03*
X620742Y-673275D02*
D03*
X628322Y-688435D02*
D03*
X620742Y-703595D02*
D03*
X628322Y-718755D02*
D03*
X620742Y-733915D02*
D03*
X628322Y-749075D02*
D03*
X620742Y-764235D02*
D03*
X628322Y-779395D02*
D03*
X620742Y-794555D02*
D03*
X613162Y-445875D02*
D03*
X605582Y-461035D02*
D03*
Y-582315D02*
D03*
X613162Y-597475D02*
D03*
X605582Y-612635D02*
D03*
X613162Y-627795D02*
D03*
X605582Y-642955D02*
D03*
X613162Y-658115D02*
D03*
X605582Y-673275D02*
D03*
X613162Y-688435D02*
D03*
X605582Y-703595D02*
D03*
X613162Y-718755D02*
D03*
X605582Y-733915D02*
D03*
X613162Y-749075D02*
D03*
X605582Y-764235D02*
D03*
X613162Y-779395D02*
D03*
X605582Y-794555D02*
D03*
X598002Y-445875D02*
D03*
X590422Y-461035D02*
D03*
Y-582315D02*
D03*
X598002Y-597475D02*
D03*
X590422Y-612635D02*
D03*
X598002Y-627795D02*
D03*
X590422Y-642955D02*
D03*
X598002Y-658115D02*
D03*
X590422Y-673275D02*
D03*
X598002Y-688435D02*
D03*
X590422Y-703595D02*
D03*
X598002Y-718755D02*
D03*
X590422Y-733915D02*
D03*
X598002Y-749075D02*
D03*
X590422Y-764235D02*
D03*
X598002Y-779395D02*
D03*
X590422Y-794555D02*
D03*
X575262Y-461035D02*
D03*
X582842Y-476195D02*
D03*
X575262Y-491355D02*
D03*
X582842Y-567155D02*
D03*
X575262Y-582315D02*
D03*
X582842Y-597475D02*
D03*
X575262Y-612635D02*
D03*
X582842Y-627795D02*
D03*
X575262Y-642955D02*
D03*
X582842Y-658115D02*
D03*
X575262Y-673275D02*
D03*
X582842Y-688435D02*
D03*
X575262Y-703595D02*
D03*
X582842Y-718755D02*
D03*
X575262Y-733915D02*
D03*
X582842Y-749075D02*
D03*
Y-779395D02*
D03*
X575262Y-794555D02*
D03*
X567682Y-597475D02*
D03*
X560102Y-612635D02*
D03*
X567682Y-627795D02*
D03*
X560102Y-642955D02*
D03*
X567682Y-658115D02*
D03*
X560102Y-673275D02*
D03*
X567682Y-688435D02*
D03*
X560102Y-703595D02*
D03*
X567682Y-718755D02*
D03*
X560102Y-733915D02*
D03*
X567682Y-749075D02*
D03*
Y-779395D02*
D03*
X560102Y-794555D02*
D03*
X552522Y-627795D02*
D03*
X544942Y-642955D02*
D03*
X552522Y-658115D02*
D03*
X544942Y-673275D02*
D03*
X552522Y-688435D02*
D03*
X544942Y-703595D02*
D03*
X552522Y-718755D02*
D03*
X544942Y-733915D02*
D03*
X552522Y-749075D02*
D03*
X544942Y-764235D02*
D03*
X552522Y-779395D02*
D03*
X544942Y-794555D02*
D03*
X537362Y-627795D02*
D03*
X529782Y-642955D02*
D03*
X537362Y-658115D02*
D03*
X529782Y-673275D02*
D03*
X537362Y-688435D02*
D03*
X529782Y-703595D02*
D03*
X537362Y-718755D02*
D03*
X529782Y-733915D02*
D03*
X537362Y-749075D02*
D03*
X529782Y-764235D02*
D03*
X537362Y-779395D02*
D03*
X529782Y-794555D02*
D03*
X522202Y-627795D02*
D03*
X514622Y-642955D02*
D03*
X522202Y-658115D02*
D03*
X514622Y-673275D02*
D03*
X522202Y-688435D02*
D03*
X514622Y-703595D02*
D03*
X522202Y-718755D02*
D03*
X514622Y-733915D02*
D03*
X522202Y-749075D02*
D03*
X514622Y-764235D02*
D03*
X522202Y-779395D02*
D03*
X507042Y-627795D02*
D03*
X499462Y-642955D02*
D03*
X507042Y-658115D02*
D03*
X499462Y-673275D02*
D03*
X507042Y-688435D02*
D03*
X499462Y-703595D02*
D03*
X507042Y-718755D02*
D03*
X499462Y-733915D02*
D03*
X507042Y-749075D02*
D03*
X499462Y-764235D02*
D03*
X507042Y-779395D02*
D03*
X666222Y-885515D02*
D03*
Y-915835D02*
D03*
Y-946155D02*
D03*
Y-976475D02*
D03*
Y-1006795D02*
D03*
Y-1037115D02*
D03*
Y-1067434D02*
D03*
Y-1097755D02*
D03*
Y-1158394D02*
D03*
X651062Y-885515D02*
D03*
X658642Y-900675D02*
D03*
X651062Y-915835D02*
D03*
X658642Y-930995D02*
D03*
X651062Y-946155D02*
D03*
X658642Y-961315D02*
D03*
X651062Y-976475D02*
D03*
X658642Y-991635D02*
D03*
X651062Y-1006795D02*
D03*
X658642Y-1021955D02*
D03*
X651062Y-1037115D02*
D03*
X658642Y-1052275D02*
D03*
X651062Y-1067434D02*
D03*
X658642Y-1082595D02*
D03*
Y-1173555D02*
D03*
X651062Y-1188715D02*
D03*
X635902Y-885515D02*
D03*
X643482Y-900675D02*
D03*
X635902Y-915835D02*
D03*
X643482Y-930995D02*
D03*
X635902Y-946155D02*
D03*
X643482Y-961315D02*
D03*
X635902Y-976475D02*
D03*
X643482Y-991635D02*
D03*
X635902Y-1006795D02*
D03*
X643482Y-1021955D02*
D03*
X635902Y-1037115D02*
D03*
X643482Y-1052275D02*
D03*
X635902Y-1067434D02*
D03*
Y-1188715D02*
D03*
X620742Y-885515D02*
D03*
X628322Y-900675D02*
D03*
X620742Y-915835D02*
D03*
X628322Y-930995D02*
D03*
X620742Y-946155D02*
D03*
X628322Y-961315D02*
D03*
X620742Y-976475D02*
D03*
X628322Y-991635D02*
D03*
X620742Y-1006795D02*
D03*
X628322Y-1021955D02*
D03*
X620742Y-1037115D02*
D03*
X628322Y-1052275D02*
D03*
X620742Y-1067434D02*
D03*
Y-1188715D02*
D03*
X613162Y-870355D02*
D03*
X605582Y-885515D02*
D03*
X613162Y-900675D02*
D03*
X605582Y-915835D02*
D03*
X613162Y-930995D02*
D03*
X605582Y-946155D02*
D03*
X613162Y-961315D02*
D03*
X605582Y-976475D02*
D03*
X613162Y-991635D02*
D03*
X605582Y-1006795D02*
D03*
X613162Y-1021955D02*
D03*
X605582Y-1037115D02*
D03*
X613162Y-1052275D02*
D03*
X605582Y-1067434D02*
D03*
Y-1188715D02*
D03*
X598002Y-870355D02*
D03*
X590422Y-885515D02*
D03*
X598002Y-900675D02*
D03*
X590422Y-915835D02*
D03*
X598002Y-930995D02*
D03*
X590422Y-946155D02*
D03*
X598002Y-961315D02*
D03*
X590422Y-976475D02*
D03*
X598002Y-991635D02*
D03*
X590422Y-1006795D02*
D03*
X598002Y-1021955D02*
D03*
X590422Y-1037115D02*
D03*
X598002Y-1052275D02*
D03*
X590422Y-1067434D02*
D03*
Y-1188715D02*
D03*
X582842Y-870355D02*
D03*
X575262Y-885515D02*
D03*
X582842Y-900675D02*
D03*
Y-930995D02*
D03*
X575262Y-946155D02*
D03*
X582842Y-961315D02*
D03*
X575262Y-976475D02*
D03*
X582842Y-991635D02*
D03*
X575262Y-1006795D02*
D03*
X582842Y-1021955D02*
D03*
X575262Y-1037115D02*
D03*
X582842Y-1052275D02*
D03*
X575262Y-1067434D02*
D03*
X582842Y-1082595D02*
D03*
Y-1173555D02*
D03*
X575262Y-1188715D02*
D03*
X567682Y-870355D02*
D03*
X560102Y-885515D02*
D03*
X567682Y-900675D02*
D03*
X560102Y-946155D02*
D03*
X567682Y-961315D02*
D03*
X560102Y-976475D02*
D03*
X567682Y-991635D02*
D03*
X560102Y-1006795D02*
D03*
X567682Y-1021955D02*
D03*
X560102Y-1037115D02*
D03*
X567682Y-1052275D02*
D03*
X560102Y-1067434D02*
D03*
X567682Y-1082595D02*
D03*
X560102Y-1097755D02*
D03*
Y-1128074D02*
D03*
Y-1158394D02*
D03*
X567682Y-1173555D02*
D03*
X560102Y-1188715D02*
D03*
X552522Y-900675D02*
D03*
Y-930995D02*
D03*
Y-961315D02*
D03*
Y-991635D02*
D03*
Y-1021955D02*
D03*
Y-1052275D02*
D03*
Y-1082595D02*
D03*
Y-1112915D02*
D03*
Y-1143234D02*
D03*
Y-1173555D02*
D03*
X438822Y-642955D02*
D03*
Y-673275D02*
D03*
Y-703595D02*
D03*
Y-733915D02*
D03*
Y-764235D02*
D03*
Y-794555D02*
D03*
Y-824875D02*
D03*
X446402Y-840035D02*
D03*
X438822Y-855195D02*
D03*
X446402Y-870355D02*
D03*
X438822Y-885515D02*
D03*
X446402Y-900675D02*
D03*
X438822Y-915835D02*
D03*
X446402Y-930995D02*
D03*
X438822Y-946155D02*
D03*
X446402Y-961315D02*
D03*
X438822Y-976475D02*
D03*
X446402Y-991635D02*
D03*
X438822Y-1006795D02*
D03*
X423662Y-642955D02*
D03*
X431242Y-658115D02*
D03*
X423662Y-673275D02*
D03*
X431242Y-688435D02*
D03*
X423662Y-703595D02*
D03*
X431242Y-718755D02*
D03*
X423662Y-733915D02*
D03*
X431242Y-749075D02*
D03*
X423662Y-764235D02*
D03*
X431242Y-779395D02*
D03*
X423662Y-794555D02*
D03*
X431242Y-809715D02*
D03*
X423662Y-824875D02*
D03*
X431242Y-840035D02*
D03*
X423662Y-855195D02*
D03*
X431242Y-870355D02*
D03*
X423662Y-885515D02*
D03*
X431242Y-900675D02*
D03*
X423662Y-915835D02*
D03*
X431242Y-930995D02*
D03*
X423662Y-946155D02*
D03*
X431242Y-961315D02*
D03*
X423662Y-976475D02*
D03*
X431242Y-991635D02*
D03*
X423662Y-1006795D02*
D03*
X416082Y-627795D02*
D03*
X408502Y-642955D02*
D03*
X416082Y-658115D02*
D03*
X408502Y-673275D02*
D03*
X416082Y-688435D02*
D03*
X408502Y-703595D02*
D03*
X416082Y-718755D02*
D03*
X408502Y-733915D02*
D03*
X416082Y-749075D02*
D03*
X408502Y-764235D02*
D03*
X416082Y-779395D02*
D03*
X408502Y-794555D02*
D03*
X416082Y-809715D02*
D03*
X408502Y-824875D02*
D03*
X416082Y-840035D02*
D03*
X408502Y-855195D02*
D03*
X416082Y-870355D02*
D03*
X408502Y-885515D02*
D03*
X416082Y-900675D02*
D03*
X408502Y-915835D02*
D03*
X416082Y-930995D02*
D03*
X408502Y-946155D02*
D03*
X416082Y-961315D02*
D03*
X408502Y-976475D02*
D03*
X416082Y-991635D02*
D03*
X408502Y-1006795D02*
D03*
X416082Y-1021955D02*
D03*
X400922Y-627795D02*
D03*
X393342Y-642955D02*
D03*
X400922Y-658115D02*
D03*
X393342Y-673275D02*
D03*
X400922Y-688435D02*
D03*
X393342Y-703595D02*
D03*
X400922Y-718755D02*
D03*
X393342Y-733915D02*
D03*
X400922Y-749075D02*
D03*
X393342Y-764235D02*
D03*
X400922Y-779395D02*
D03*
X393342Y-794555D02*
D03*
X400922Y-809715D02*
D03*
X393342Y-824875D02*
D03*
X400922Y-840035D02*
D03*
X393342Y-855195D02*
D03*
X400922Y-870355D02*
D03*
X393342Y-885515D02*
D03*
X400922Y-900675D02*
D03*
X393342Y-915835D02*
D03*
X400922Y-930995D02*
D03*
X393342Y-946155D02*
D03*
X400922Y-961315D02*
D03*
X393342Y-976475D02*
D03*
X400922Y-991635D02*
D03*
X393342Y-1006795D02*
D03*
X400922Y-1021955D02*
D03*
X385762Y-627795D02*
D03*
X378182Y-642955D02*
D03*
X385762Y-658115D02*
D03*
X378182Y-673275D02*
D03*
X385762Y-688435D02*
D03*
X378182Y-703595D02*
D03*
X385762Y-718755D02*
D03*
X378182Y-733915D02*
D03*
X385762Y-749075D02*
D03*
X378182Y-764235D02*
D03*
X385762Y-779395D02*
D03*
X378182Y-794555D02*
D03*
X385762Y-809715D02*
D03*
X378182Y-824875D02*
D03*
X385762Y-840035D02*
D03*
X378182Y-855195D02*
D03*
X385762Y-870355D02*
D03*
X378182Y-885515D02*
D03*
X385762Y-900675D02*
D03*
X378182Y-915835D02*
D03*
X385762Y-930995D02*
D03*
X378182Y-946155D02*
D03*
X385762Y-961315D02*
D03*
X378182Y-976475D02*
D03*
X385762Y-991635D02*
D03*
X378182Y-1006795D02*
D03*
X385762Y-1021955D02*
D03*
X370602Y-627795D02*
D03*
X363022Y-642955D02*
D03*
X370602Y-658115D02*
D03*
X363022Y-673275D02*
D03*
X370602Y-688435D02*
D03*
X363022Y-703595D02*
D03*
X370602Y-718755D02*
D03*
X363022Y-733915D02*
D03*
X370602Y-749075D02*
D03*
X363022Y-764235D02*
D03*
X370602Y-779395D02*
D03*
X363022Y-794555D02*
D03*
X370602Y-809715D02*
D03*
X363022Y-824875D02*
D03*
X370602Y-840035D02*
D03*
X363022Y-855195D02*
D03*
X370602Y-870355D02*
D03*
X363022Y-885515D02*
D03*
X370602Y-900675D02*
D03*
X363022Y-915835D02*
D03*
X370602Y-930995D02*
D03*
X363022Y-946155D02*
D03*
X370602Y-961315D02*
D03*
X363022Y-976475D02*
D03*
X370602Y-991635D02*
D03*
X363022Y-1006795D02*
D03*
X370602Y-1021955D02*
D03*
X355442Y-627795D02*
D03*
X347862Y-642955D02*
D03*
X355442Y-658115D02*
D03*
X347862Y-673275D02*
D03*
X355442Y-688435D02*
D03*
X347862Y-703595D02*
D03*
X355442Y-718755D02*
D03*
X347862Y-733915D02*
D03*
X355442Y-749075D02*
D03*
X347862Y-764235D02*
D03*
X355442Y-779395D02*
D03*
X347862Y-794555D02*
D03*
X355442Y-809715D02*
D03*
X347862Y-824875D02*
D03*
X355442Y-840035D02*
D03*
X347862Y-855195D02*
D03*
X355442Y-870355D02*
D03*
X347862Y-885515D02*
D03*
X355442Y-900675D02*
D03*
X347862Y-915835D02*
D03*
X355442Y-930995D02*
D03*
X347862Y-946155D02*
D03*
X355442Y-961315D02*
D03*
X347862Y-976475D02*
D03*
X355442Y-991635D02*
D03*
X347862Y-1006795D02*
D03*
X355442Y-1021955D02*
D03*
X340282Y-627795D02*
D03*
X332702Y-642955D02*
D03*
X340282Y-658115D02*
D03*
X332702Y-673275D02*
D03*
X340282Y-688435D02*
D03*
X332702Y-703595D02*
D03*
X340282Y-718755D02*
D03*
X332702Y-733915D02*
D03*
X340282Y-749075D02*
D03*
X332702Y-764235D02*
D03*
X340282Y-779395D02*
D03*
X332702Y-794555D02*
D03*
X340282Y-809715D02*
D03*
X332702Y-824875D02*
D03*
X340282Y-840035D02*
D03*
X332702Y-855195D02*
D03*
X340282Y-870355D02*
D03*
X332702Y-885515D02*
D03*
X340282Y-900675D02*
D03*
X332702Y-915835D02*
D03*
X340282Y-930995D02*
D03*
X332702Y-946155D02*
D03*
X340282Y-961315D02*
D03*
X332702Y-976475D02*
D03*
X340282Y-991635D02*
D03*
X332702Y-1006795D02*
D03*
X340282Y-1021955D02*
D03*
X325122Y-627795D02*
D03*
X317542Y-642955D02*
D03*
X325122Y-658115D02*
D03*
X317542Y-673275D02*
D03*
X325122Y-688435D02*
D03*
X317542Y-703595D02*
D03*
X325122Y-718755D02*
D03*
X317542Y-733915D02*
D03*
X325122Y-749075D02*
D03*
X317542Y-764235D02*
D03*
X325122Y-779395D02*
D03*
X317542Y-794555D02*
D03*
X325122Y-809715D02*
D03*
X317542Y-824875D02*
D03*
X325122Y-840035D02*
D03*
X317542Y-855195D02*
D03*
X325122Y-870355D02*
D03*
X317542Y-885515D02*
D03*
X325122Y-900675D02*
D03*
X317542Y-915835D02*
D03*
X325122Y-930995D02*
D03*
X317542Y-946155D02*
D03*
X325122Y-961315D02*
D03*
X317542Y-976475D02*
D03*
X325122Y-991635D02*
D03*
X317542Y-1006795D02*
D03*
X325122Y-1021955D02*
D03*
X309962Y-627795D02*
D03*
X302382Y-642955D02*
D03*
X309962Y-658115D02*
D03*
X302382Y-673275D02*
D03*
X309962Y-688435D02*
D03*
X302382Y-703595D02*
D03*
X309962Y-718755D02*
D03*
X302382Y-733915D02*
D03*
X309962Y-749075D02*
D03*
X302382Y-764235D02*
D03*
X309962Y-779395D02*
D03*
X302382Y-794555D02*
D03*
X309962Y-809715D02*
D03*
X302382Y-824875D02*
D03*
X309962Y-840035D02*
D03*
X302382Y-855195D02*
D03*
X309962Y-870355D02*
D03*
X302382Y-885515D02*
D03*
X309962Y-900675D02*
D03*
X302382Y-915835D02*
D03*
X309962Y-930995D02*
D03*
X302382Y-946155D02*
D03*
X309962Y-961315D02*
D03*
X302382Y-976475D02*
D03*
X309962Y-991635D02*
D03*
X302382Y-1006795D02*
D03*
X309962Y-1021955D02*
D03*
X294802Y-627795D02*
D03*
X287222Y-642955D02*
D03*
X294802Y-658115D02*
D03*
X287222Y-673275D02*
D03*
X294802Y-688435D02*
D03*
X287222Y-703595D02*
D03*
X294802Y-718755D02*
D03*
X287222Y-733915D02*
D03*
X294802Y-749075D02*
D03*
X287222Y-764235D02*
D03*
X294802Y-779395D02*
D03*
X287222Y-794555D02*
D03*
X294802Y-809715D02*
D03*
X287222Y-824875D02*
D03*
X294802Y-840035D02*
D03*
X287222Y-855195D02*
D03*
X294802Y-870355D02*
D03*
X287222Y-885515D02*
D03*
X294802Y-900675D02*
D03*
X287222Y-915835D02*
D03*
X294802Y-930995D02*
D03*
X287222Y-946155D02*
D03*
X294802Y-961315D02*
D03*
X287222Y-976475D02*
D03*
X294802Y-991635D02*
D03*
X287222Y-1006795D02*
D03*
X294802Y-1021955D02*
D03*
X279642Y-627795D02*
D03*
X272062Y-642955D02*
D03*
X279642Y-658115D02*
D03*
X272062Y-673275D02*
D03*
X279642Y-688435D02*
D03*
X272062Y-703595D02*
D03*
X279642Y-718755D02*
D03*
X272062Y-733915D02*
D03*
X279642Y-749075D02*
D03*
X272062Y-764235D02*
D03*
X279642Y-779395D02*
D03*
X272062Y-794555D02*
D03*
X279642Y-809715D02*
D03*
X272062Y-824875D02*
D03*
X279642Y-840035D02*
D03*
X272062Y-855195D02*
D03*
X279642Y-870355D02*
D03*
X272062Y-885515D02*
D03*
X279642Y-900675D02*
D03*
X272062Y-915835D02*
D03*
X279642Y-930995D02*
D03*
X272062Y-946155D02*
D03*
X279642Y-961315D02*
D03*
X272062Y-976475D02*
D03*
X279642Y-991635D02*
D03*
X272062Y-1006795D02*
D03*
X279642Y-1021955D02*
D03*
X264482Y-627795D02*
D03*
X256902Y-673275D02*
D03*
X264482Y-688435D02*
D03*
Y-749075D02*
D03*
X256902Y-764235D02*
D03*
X264482Y-779395D02*
D03*
X256902Y-794555D02*
D03*
X264482Y-809715D02*
D03*
X256902Y-824875D02*
D03*
X264482Y-840035D02*
D03*
X256902Y-855195D02*
D03*
X264482Y-870355D02*
D03*
X256902Y-885515D02*
D03*
X264482Y-900675D02*
D03*
Y-961315D02*
D03*
X256902Y-976475D02*
D03*
X264482Y-1021955D02*
D03*
X241742Y-673275D02*
D03*
X249322Y-688435D02*
D03*
Y-749075D02*
D03*
X241742Y-764235D02*
D03*
X249322Y-779395D02*
D03*
X241742Y-794555D02*
D03*
X249322Y-809715D02*
D03*
X241742Y-824875D02*
D03*
X249322Y-840035D02*
D03*
X241742Y-855195D02*
D03*
X249322Y-870355D02*
D03*
X241742Y-885515D02*
D03*
X249322Y-900675D02*
D03*
Y-961315D02*
D03*
X226582Y-673275D02*
D03*
X234162Y-688435D02*
D03*
Y-749075D02*
D03*
X226582Y-764235D02*
D03*
X234162Y-779395D02*
D03*
X226582Y-794555D02*
D03*
X234162Y-809715D02*
D03*
X226582Y-824875D02*
D03*
X234162Y-840035D02*
D03*
X226582Y-855195D02*
D03*
X234162Y-870355D02*
D03*
X226582Y-885515D02*
D03*
X234162Y-900675D02*
D03*
Y-961315D02*
D03*
X226582Y-976475D02*
D03*
X219002Y-627795D02*
D03*
X211422Y-642955D02*
D03*
X219002Y-658115D02*
D03*
X211422Y-673275D02*
D03*
X219002Y-688435D02*
D03*
X211422Y-703595D02*
D03*
X219002Y-718755D02*
D03*
X211422Y-733915D02*
D03*
X219002Y-749075D02*
D03*
X211422Y-764235D02*
D03*
X219002Y-779395D02*
D03*
X211422Y-794555D02*
D03*
X219002Y-809715D02*
D03*
X211422Y-824875D02*
D03*
X219002Y-840035D02*
D03*
X211422Y-855195D02*
D03*
X219002Y-870355D02*
D03*
X211422Y-885515D02*
D03*
X219002Y-900675D02*
D03*
X211422Y-915835D02*
D03*
X219002Y-930995D02*
D03*
X211422Y-946155D02*
D03*
X219002Y-961315D02*
D03*
X211422Y-976475D02*
D03*
X219002Y-991635D02*
D03*
X211422Y-1006795D02*
D03*
X219002Y-1021955D02*
D03*
X203842Y-627795D02*
D03*
X196262Y-642955D02*
D03*
X203842Y-658115D02*
D03*
X196262Y-673275D02*
D03*
X203842Y-688435D02*
D03*
X196262Y-703595D02*
D03*
X203842Y-718755D02*
D03*
X196262Y-733915D02*
D03*
X203842Y-749075D02*
D03*
X196262Y-764235D02*
D03*
X203842Y-779395D02*
D03*
X196262Y-794555D02*
D03*
X203842Y-809715D02*
D03*
X196262Y-824875D02*
D03*
X203842Y-840035D02*
D03*
X196262Y-855195D02*
D03*
X203842Y-870355D02*
D03*
X196262Y-885515D02*
D03*
X203842Y-900675D02*
D03*
X196262Y-915835D02*
D03*
X203842Y-930995D02*
D03*
X196262Y-946155D02*
D03*
X203842Y-961315D02*
D03*
X196262Y-976475D02*
D03*
X203842Y-991635D02*
D03*
X196262Y-1006795D02*
D03*
X203842Y-1021955D02*
D03*
X188682Y-627795D02*
D03*
X181102Y-642955D02*
D03*
X188682Y-658115D02*
D03*
X181102Y-673275D02*
D03*
X188682Y-688435D02*
D03*
X181102Y-703595D02*
D03*
X188682Y-718755D02*
D03*
X181102Y-733915D02*
D03*
X188682Y-749075D02*
D03*
X181102Y-764235D02*
D03*
X188682Y-779395D02*
D03*
X181102Y-794555D02*
D03*
X188682Y-809715D02*
D03*
X181102Y-824875D02*
D03*
X188682Y-840035D02*
D03*
X181102Y-855195D02*
D03*
X188682Y-870355D02*
D03*
X181102Y-885515D02*
D03*
X188682Y-900675D02*
D03*
X181102Y-915835D02*
D03*
X188682Y-930995D02*
D03*
X181102Y-946155D02*
D03*
X188682Y-961315D02*
D03*
X181102Y-976475D02*
D03*
X188682Y-991635D02*
D03*
X181102Y-1006795D02*
D03*
X188682Y-1021955D02*
D03*
X173522Y-627795D02*
D03*
X165942Y-642955D02*
D03*
X173522Y-658115D02*
D03*
X165942Y-673275D02*
D03*
X173522Y-688435D02*
D03*
X165942Y-703595D02*
D03*
X173522Y-718755D02*
D03*
X165942Y-733915D02*
D03*
X173522Y-749075D02*
D03*
X165942Y-764235D02*
D03*
X173522Y-779395D02*
D03*
X165942Y-794555D02*
D03*
X173522Y-809715D02*
D03*
X165942Y-824875D02*
D03*
X173522Y-840035D02*
D03*
X165942Y-855195D02*
D03*
X173522Y-870355D02*
D03*
X165942Y-885515D02*
D03*
X173522Y-900675D02*
D03*
X165942Y-915835D02*
D03*
X173522Y-930995D02*
D03*
X165942Y-946155D02*
D03*
X173522Y-961315D02*
D03*
X165942Y-976475D02*
D03*
X173522Y-991635D02*
D03*
X165942Y-1006795D02*
D03*
X173522Y-1021955D02*
D03*
X158362Y-627795D02*
D03*
X150782Y-642955D02*
D03*
X158362Y-658115D02*
D03*
X150782Y-673275D02*
D03*
X158362Y-688435D02*
D03*
X150782Y-703595D02*
D03*
X158362Y-718755D02*
D03*
X150782Y-733915D02*
D03*
X158362Y-749075D02*
D03*
X150782Y-764235D02*
D03*
X158362Y-779395D02*
D03*
X150782Y-794555D02*
D03*
X158362Y-809715D02*
D03*
X150782Y-824875D02*
D03*
X158362Y-840035D02*
D03*
X150782Y-855195D02*
D03*
X158362Y-870355D02*
D03*
X150782Y-885515D02*
D03*
X158362Y-900675D02*
D03*
X150782Y-915835D02*
D03*
X158362Y-930995D02*
D03*
X150782Y-946155D02*
D03*
X158362Y-961315D02*
D03*
X150782Y-976475D02*
D03*
X158362Y-991635D02*
D03*
X150782Y-1006795D02*
D03*
X158362Y-1021955D02*
D03*
X143202Y-627795D02*
D03*
X135622Y-642955D02*
D03*
X143202Y-658115D02*
D03*
X135622Y-673275D02*
D03*
X143202Y-688435D02*
D03*
X135622Y-703595D02*
D03*
X143202Y-718755D02*
D03*
X135622Y-733915D02*
D03*
X143202Y-749075D02*
D03*
X135622Y-764235D02*
D03*
X143202Y-779395D02*
D03*
X135622Y-794555D02*
D03*
X143202Y-809715D02*
D03*
X135622Y-824875D02*
D03*
X143202Y-840035D02*
D03*
X135622Y-855195D02*
D03*
X143202Y-870355D02*
D03*
X135622Y-885515D02*
D03*
X143202Y-900675D02*
D03*
X135622Y-915835D02*
D03*
X143202Y-930995D02*
D03*
X135622Y-946155D02*
D03*
X143202Y-961315D02*
D03*
X135622Y-976475D02*
D03*
X143202Y-991635D02*
D03*
X135622Y-1006795D02*
D03*
X143202Y-1021955D02*
D03*
X128042Y-627795D02*
D03*
X120462Y-642955D02*
D03*
X128042Y-658115D02*
D03*
X120462Y-673275D02*
D03*
X128042Y-688435D02*
D03*
X120462Y-703595D02*
D03*
X128042Y-718755D02*
D03*
X120462Y-733915D02*
D03*
X128042Y-749075D02*
D03*
X120462Y-764235D02*
D03*
X128042Y-779395D02*
D03*
X120462Y-794555D02*
D03*
X128042Y-809715D02*
D03*
X120462Y-824875D02*
D03*
X128042Y-840035D02*
D03*
X120462Y-855195D02*
D03*
X128042Y-870355D02*
D03*
X120462Y-885515D02*
D03*
X128042Y-900675D02*
D03*
X120462Y-915835D02*
D03*
X128042Y-930995D02*
D03*
X120462Y-946155D02*
D03*
X128042Y-961315D02*
D03*
X120462Y-976475D02*
D03*
X128042Y-991635D02*
D03*
X120462Y-1006795D02*
D03*
X128042Y-1021955D02*
D03*
X112882Y-627795D02*
D03*
X105302Y-642955D02*
D03*
X112882Y-658115D02*
D03*
X105302Y-673275D02*
D03*
X112882Y-688435D02*
D03*
X105302Y-703595D02*
D03*
X112882Y-718755D02*
D03*
X105302Y-733915D02*
D03*
X112882Y-749075D02*
D03*
X105302Y-764235D02*
D03*
X112882Y-779395D02*
D03*
X105302Y-794555D02*
D03*
X112882Y-809715D02*
D03*
X105302Y-824875D02*
D03*
X112882Y-840035D02*
D03*
X105302Y-855195D02*
D03*
X112882Y-870355D02*
D03*
X105302Y-885515D02*
D03*
X112882Y-900675D02*
D03*
X105302Y-915835D02*
D03*
X112882Y-930995D02*
D03*
X105302Y-946155D02*
D03*
X112882Y-961315D02*
D03*
X105302Y-976475D02*
D03*
X112882Y-991635D02*
D03*
X105302Y-1006795D02*
D03*
X112882Y-1021955D02*
D03*
X97722Y-627795D02*
D03*
X90142Y-642955D02*
D03*
X97722Y-658115D02*
D03*
X90142Y-673275D02*
D03*
X97722Y-688435D02*
D03*
X90142Y-703595D02*
D03*
X97722Y-718755D02*
D03*
X90142Y-733915D02*
D03*
X97722Y-749075D02*
D03*
X90142Y-764235D02*
D03*
X97722Y-779395D02*
D03*
X90142Y-794555D02*
D03*
X97722Y-809715D02*
D03*
X90142Y-824875D02*
D03*
X97722Y-840035D02*
D03*
X90142Y-855195D02*
D03*
X97722Y-870355D02*
D03*
X90142Y-885515D02*
D03*
X97722Y-900675D02*
D03*
X90142Y-915835D02*
D03*
X97722Y-930995D02*
D03*
X90142Y-946155D02*
D03*
X97722Y-961315D02*
D03*
X90142Y-976475D02*
D03*
X97722Y-991635D02*
D03*
X90142Y-1006795D02*
D03*
X97722Y-1021955D02*
D03*
X82562Y-627795D02*
D03*
X74982Y-642955D02*
D03*
X82562Y-658115D02*
D03*
X74982Y-673275D02*
D03*
X82562Y-688435D02*
D03*
X74982Y-703595D02*
D03*
X82562Y-718755D02*
D03*
X74982Y-733915D02*
D03*
X82562Y-749075D02*
D03*
X74982Y-764235D02*
D03*
X82562Y-779395D02*
D03*
X74982Y-794555D02*
D03*
X82562Y-809715D02*
D03*
X74982Y-824875D02*
D03*
X82562Y-840035D02*
D03*
X74982Y-855195D02*
D03*
X82562Y-870355D02*
D03*
X74982Y-885515D02*
D03*
X82562Y-900675D02*
D03*
X74982Y-915835D02*
D03*
X82562Y-930995D02*
D03*
X74982Y-946155D02*
D03*
X82562Y-961315D02*
D03*
X74982Y-976475D02*
D03*
X82562Y-991635D02*
D03*
X74982Y-1006795D02*
D03*
X82562Y-1021955D02*
D03*
X67402Y-627795D02*
D03*
X59822Y-642955D02*
D03*
X67402Y-658115D02*
D03*
X59822Y-673275D02*
D03*
X67402Y-688435D02*
D03*
X59822Y-703595D02*
D03*
X67402Y-718755D02*
D03*
X59822Y-733915D02*
D03*
X67402Y-749075D02*
D03*
X59822Y-764235D02*
D03*
X67402Y-779395D02*
D03*
X59822Y-794555D02*
D03*
X67402Y-809715D02*
D03*
X59822Y-824875D02*
D03*
X67402Y-840035D02*
D03*
X59822Y-855195D02*
D03*
X67402Y-870355D02*
D03*
X59822Y-885515D02*
D03*
X67402Y-900675D02*
D03*
X59822Y-915835D02*
D03*
X67402Y-930995D02*
D03*
X59822Y-946155D02*
D03*
X67402Y-961315D02*
D03*
X59822Y-976475D02*
D03*
X67402Y-991635D02*
D03*
X59822Y-1006795D02*
D03*
X67402Y-1021955D02*
D03*
X52242Y-627795D02*
D03*
X44662Y-642955D02*
D03*
X52242Y-658115D02*
D03*
X44662Y-673275D02*
D03*
X52242Y-688435D02*
D03*
X44662Y-703595D02*
D03*
X52242Y-718755D02*
D03*
X44662Y-733915D02*
D03*
X52242Y-749075D02*
D03*
X44662Y-764235D02*
D03*
X52242Y-779395D02*
D03*
X44662Y-794555D02*
D03*
X52242Y-809715D02*
D03*
X44662Y-824875D02*
D03*
X52242Y-840035D02*
D03*
X44662Y-855195D02*
D03*
X52242Y-870355D02*
D03*
X44662Y-885515D02*
D03*
X52242Y-900675D02*
D03*
X44662Y-915835D02*
D03*
X52242Y-930995D02*
D03*
X44662Y-946155D02*
D03*
X52242Y-961315D02*
D03*
X44662Y-976475D02*
D03*
X52242Y-991635D02*
D03*
X44662Y-1006795D02*
D03*
X52242Y-1021955D02*
D03*
X37082Y-627795D02*
D03*
X29502Y-642955D02*
D03*
X37082Y-658115D02*
D03*
X29502Y-673275D02*
D03*
X37082Y-688435D02*
D03*
X29502Y-703595D02*
D03*
X37082Y-718755D02*
D03*
X29502Y-733915D02*
D03*
X37082Y-749075D02*
D03*
X29502Y-764235D02*
D03*
X37082Y-779395D02*
D03*
X29502Y-794555D02*
D03*
X37082Y-809715D02*
D03*
X29502Y-824875D02*
D03*
X37082Y-840035D02*
D03*
X29502Y-855195D02*
D03*
X37082Y-870355D02*
D03*
X29502Y-885515D02*
D03*
X37082Y-900675D02*
D03*
X29502Y-915835D02*
D03*
X37082Y-930995D02*
D03*
X29502Y-946155D02*
D03*
X37082Y-961315D02*
D03*
X29502Y-976475D02*
D03*
X37082Y-991635D02*
D03*
X29502Y-1006795D02*
D03*
X37082Y-1021955D02*
D03*
X21922Y-627795D02*
D03*
X14342Y-642955D02*
D03*
X21922Y-658115D02*
D03*
X14342Y-673275D02*
D03*
X21922Y-688435D02*
D03*
X14342Y-703595D02*
D03*
X21922Y-718755D02*
D03*
X14342Y-733915D02*
D03*
X21922Y-749075D02*
D03*
X14342Y-764235D02*
D03*
X21922Y-779395D02*
D03*
X14342Y-794555D02*
D03*
X21922Y-809715D02*
D03*
X14342Y-824875D02*
D03*
X21922Y-840035D02*
D03*
X14342Y-855195D02*
D03*
X21922Y-870355D02*
D03*
X14342Y-885515D02*
D03*
X21922Y-900675D02*
D03*
X14342Y-915835D02*
D03*
X21922Y-930995D02*
D03*
X14342Y-946155D02*
D03*
X21922Y-961315D02*
D03*
X14342Y-976475D02*
D03*
X21922Y-991635D02*
D03*
X14342Y-1006795D02*
D03*
X21922Y-1021955D02*
D03*
X6762Y-627795D02*
D03*
X-818Y-642955D02*
D03*
X6762Y-658115D02*
D03*
X-818Y-673275D02*
D03*
X6762Y-688435D02*
D03*
X-818Y-703595D02*
D03*
X6762Y-718755D02*
D03*
X-818Y-733915D02*
D03*
X6762Y-749075D02*
D03*
X-818Y-764235D02*
D03*
X6762Y-779395D02*
D03*
X-818Y-794555D02*
D03*
X6762Y-809715D02*
D03*
X-818Y-824875D02*
D03*
X6762Y-840035D02*
D03*
X-818Y-855195D02*
D03*
X6762Y-870355D02*
D03*
X-818Y-885515D02*
D03*
X6762Y-900675D02*
D03*
X-818Y-915835D02*
D03*
X6762Y-930995D02*
D03*
X-818Y-946155D02*
D03*
X6762Y-961315D02*
D03*
X-818Y-976475D02*
D03*
X6762Y-991635D02*
D03*
X-818Y-1006795D02*
D03*
X6762Y-1021955D02*
D03*
X-8398Y-627795D02*
D03*
X-15978Y-642955D02*
D03*
X-8398Y-658115D02*
D03*
X-15978Y-673275D02*
D03*
X-8398Y-688435D02*
D03*
X-15978Y-703595D02*
D03*
X-8398Y-718755D02*
D03*
X-15978Y-733915D02*
D03*
X-8398Y-749075D02*
D03*
X-15978Y-764235D02*
D03*
X-8398Y-779395D02*
D03*
X-15978Y-794555D02*
D03*
X-8398Y-809715D02*
D03*
X-15978Y-824875D02*
D03*
X-8398Y-840035D02*
D03*
X-15978Y-855195D02*
D03*
X-8398Y-870355D02*
D03*
X-15978Y-885515D02*
D03*
X-8398Y-900675D02*
D03*
X-15978Y-915835D02*
D03*
X-8398Y-930995D02*
D03*
X-15978Y-946155D02*
D03*
X-8398Y-961315D02*
D03*
X-15978Y-976475D02*
D03*
X-8398Y-991635D02*
D03*
X-15978Y-1006795D02*
D03*
X-8398Y-1021955D02*
D03*
X-23558Y-627795D02*
D03*
X-31138Y-642955D02*
D03*
X-23558Y-658115D02*
D03*
X-31138Y-673275D02*
D03*
X-23558Y-688435D02*
D03*
X-31138Y-703595D02*
D03*
X-23558Y-718755D02*
D03*
X-31138Y-733915D02*
D03*
X-23558Y-749075D02*
D03*
X-31138Y-764235D02*
D03*
X-23558Y-779395D02*
D03*
X-31138Y-794555D02*
D03*
X-23558Y-809715D02*
D03*
X-31138Y-824875D02*
D03*
X-23558Y-840035D02*
D03*
X-31138Y-855195D02*
D03*
X-23558Y-870355D02*
D03*
X-31138Y-885515D02*
D03*
X-23558Y-900675D02*
D03*
X-31138Y-915835D02*
D03*
X-23558Y-930995D02*
D03*
X-31138Y-946155D02*
D03*
X-23558Y-961315D02*
D03*
X-31138Y-976475D02*
D03*
X-23558Y-991635D02*
D03*
X-31138Y-1006795D02*
D03*
X-23558Y-1021955D02*
D03*
X-38718Y-21395D02*
D03*
Y-627795D02*
D03*
X-46298Y-642955D02*
D03*
X-38718Y-658115D02*
D03*
X-46298Y-673275D02*
D03*
X-38718Y-688435D02*
D03*
X-46298Y-703595D02*
D03*
X-38718Y-718755D02*
D03*
X-46298Y-733915D02*
D03*
X-38718Y-749075D02*
D03*
X-46298Y-764235D02*
D03*
X-38718Y-779395D02*
D03*
X-46298Y-794555D02*
D03*
X-38718Y-809715D02*
D03*
X-46298Y-824875D02*
D03*
X-38718Y-840035D02*
D03*
X-46298Y-855195D02*
D03*
X-38718Y-870355D02*
D03*
X-46298Y-885515D02*
D03*
X-38718Y-900675D02*
D03*
X-46298Y-915835D02*
D03*
X-38718Y-930995D02*
D03*
X-46298Y-946155D02*
D03*
X-38718Y-961315D02*
D03*
X-46298Y-976475D02*
D03*
X-38718Y-991635D02*
D03*
X-46298Y-1006795D02*
D03*
X-38718Y-1021955D02*
D03*
X-53878Y-21395D02*
D03*
Y-627795D02*
D03*
X-61458Y-642955D02*
D03*
X-53878Y-658115D02*
D03*
X-61458Y-673275D02*
D03*
X-53878Y-688435D02*
D03*
X-61458Y-703595D02*
D03*
X-53878Y-718755D02*
D03*
X-61458Y-733915D02*
D03*
X-53878Y-749075D02*
D03*
X-61458Y-764235D02*
D03*
X-53878Y-779395D02*
D03*
X-61458Y-794555D02*
D03*
X-53878Y-809715D02*
D03*
X-61458Y-824875D02*
D03*
X-53878Y-840035D02*
D03*
X-61458Y-855195D02*
D03*
X-53878Y-870355D02*
D03*
X-61458Y-885515D02*
D03*
X-53878Y-900675D02*
D03*
X-61458Y-915835D02*
D03*
X-53878Y-930995D02*
D03*
X-61458Y-946155D02*
D03*
X-53878Y-961315D02*
D03*
X-61458Y-976475D02*
D03*
X-53878Y-991635D02*
D03*
X-61458Y-1006795D02*
D03*
X-53878Y-1021955D02*
D03*
X-69038Y-21395D02*
D03*
Y-627795D02*
D03*
X-76618Y-642955D02*
D03*
X-69038Y-658115D02*
D03*
X-76618Y-673275D02*
D03*
X-69038Y-688435D02*
D03*
X-76618Y-703595D02*
D03*
X-69038Y-718755D02*
D03*
X-76618Y-733915D02*
D03*
X-69038Y-749075D02*
D03*
X-76618Y-764235D02*
D03*
X-69038Y-779395D02*
D03*
X-76618Y-794555D02*
D03*
X-69038Y-809715D02*
D03*
X-76618Y-824875D02*
D03*
X-69038Y-840035D02*
D03*
X-76618Y-855195D02*
D03*
X-69038Y-870355D02*
D03*
X-76618Y-885515D02*
D03*
X-69038Y-900675D02*
D03*
X-76618Y-915835D02*
D03*
X-69038Y-930995D02*
D03*
X-76618Y-946155D02*
D03*
X-69038Y-961315D02*
D03*
X-76618Y-976475D02*
D03*
X-69038Y-991635D02*
D03*
X-76618Y-1006795D02*
D03*
X-69038Y-1021955D02*
D03*
X-84198Y-21395D02*
D03*
Y-627795D02*
D03*
X-91778Y-642955D02*
D03*
X-84198Y-658115D02*
D03*
X-91778Y-673275D02*
D03*
X-84198Y-688435D02*
D03*
X-91778Y-703595D02*
D03*
X-84198Y-718755D02*
D03*
X-91778Y-733915D02*
D03*
X-84198Y-749075D02*
D03*
X-91778Y-764235D02*
D03*
X-84198Y-779395D02*
D03*
X-91778Y-794555D02*
D03*
X-84198Y-809715D02*
D03*
X-91778Y-824875D02*
D03*
X-84198Y-840035D02*
D03*
X-91778Y-855195D02*
D03*
X-84198Y-870355D02*
D03*
X-91778Y-885515D02*
D03*
X-84198Y-900675D02*
D03*
X-91778Y-915835D02*
D03*
X-84198Y-930995D02*
D03*
X-91778Y-946155D02*
D03*
X-84198Y-961315D02*
D03*
X-91778Y-976475D02*
D03*
X-84198Y-991635D02*
D03*
X-91778Y-1006795D02*
D03*
X-84198Y-1021955D02*
D03*
X-99358Y-21395D02*
D03*
Y-627795D02*
D03*
X-106938Y-642955D02*
D03*
X-99358Y-658115D02*
D03*
X-106938Y-673275D02*
D03*
X-99358Y-688435D02*
D03*
X-106938Y-703595D02*
D03*
X-99358Y-718755D02*
D03*
X-106938Y-733915D02*
D03*
X-99358Y-749075D02*
D03*
X-106938Y-764235D02*
D03*
X-99358Y-779395D02*
D03*
X-106938Y-794555D02*
D03*
X-99358Y-809715D02*
D03*
X-106938Y-824875D02*
D03*
X-99358Y-840035D02*
D03*
X-106938Y-855195D02*
D03*
X-99358Y-870355D02*
D03*
X-106938Y-885515D02*
D03*
X-99358Y-900675D02*
D03*
X-106938Y-915835D02*
D03*
X-99358Y-930995D02*
D03*
X-106938Y-946155D02*
D03*
X-99358Y-961315D02*
D03*
X-106938Y-976475D02*
D03*
X-99358Y-991635D02*
D03*
X-106938Y-1006795D02*
D03*
X-99358Y-1021955D02*
D03*
X-114518Y-21395D02*
D03*
Y-627795D02*
D03*
X-122098Y-642955D02*
D03*
X-114518Y-658115D02*
D03*
X-122098Y-673275D02*
D03*
X-114518Y-688435D02*
D03*
X-122098Y-703595D02*
D03*
X-114518Y-718755D02*
D03*
X-122098Y-733915D02*
D03*
X-114518Y-749075D02*
D03*
X-122098Y-764235D02*
D03*
X-114518Y-779395D02*
D03*
X-122098Y-794555D02*
D03*
X-114518Y-809715D02*
D03*
X-122098Y-824875D02*
D03*
X-114518Y-840035D02*
D03*
X-122098Y-855195D02*
D03*
X-114518Y-870355D02*
D03*
X-122098Y-885515D02*
D03*
X-114518Y-900675D02*
D03*
X-122098Y-915835D02*
D03*
X-114518Y-930995D02*
D03*
X-122098Y-946155D02*
D03*
X-114518Y-961315D02*
D03*
X-122098Y-976475D02*
D03*
X-114518Y-991635D02*
D03*
X-122098Y-1006795D02*
D03*
X-114518Y-1021955D02*
D03*
X-129678Y-21395D02*
D03*
Y-627795D02*
D03*
X-137258Y-642955D02*
D03*
X-129678Y-658115D02*
D03*
X-137258Y-673275D02*
D03*
X-129678Y-688435D02*
D03*
X-137258Y-703595D02*
D03*
X-129678Y-718755D02*
D03*
X-137258Y-733915D02*
D03*
X-129678Y-749075D02*
D03*
X-137258Y-764235D02*
D03*
X-129678Y-779395D02*
D03*
X-137258Y-794555D02*
D03*
X-129678Y-809715D02*
D03*
X-137258Y-824875D02*
D03*
X-129678Y-840035D02*
D03*
X-137258Y-855195D02*
D03*
X-129678Y-870355D02*
D03*
X-137258Y-885515D02*
D03*
X-129678Y-900675D02*
D03*
X-137258Y-915835D02*
D03*
X-129678Y-930995D02*
D03*
X-137258Y-946155D02*
D03*
X-129678Y-961315D02*
D03*
X-137258Y-976475D02*
D03*
X-129678Y-991635D02*
D03*
X-137258Y-1006795D02*
D03*
X-129678Y-1021955D02*
D03*
X-144838Y-21395D02*
D03*
Y-627795D02*
D03*
X-152418Y-642955D02*
D03*
X-144838Y-658115D02*
D03*
X-152418Y-673275D02*
D03*
X-144838Y-688435D02*
D03*
X-152418Y-703595D02*
D03*
X-144838Y-718755D02*
D03*
X-152418Y-733915D02*
D03*
X-144838Y-749075D02*
D03*
X-152418Y-764235D02*
D03*
X-144838Y-779395D02*
D03*
X-152418Y-794555D02*
D03*
X-144838Y-809715D02*
D03*
X-152418Y-824875D02*
D03*
X-144838Y-840035D02*
D03*
X-152418Y-855195D02*
D03*
X-144838Y-870355D02*
D03*
X-152418Y-885515D02*
D03*
X-144838Y-900675D02*
D03*
X-152418Y-915835D02*
D03*
X-144838Y-930995D02*
D03*
X-152418Y-946155D02*
D03*
X-144838Y-961315D02*
D03*
X-152418Y-976475D02*
D03*
X-144838Y-991635D02*
D03*
X-152418Y-1006795D02*
D03*
X-144838Y-1021955D02*
D03*
X-159998Y-21395D02*
D03*
Y-627795D02*
D03*
X-167578Y-642955D02*
D03*
X-159998Y-658115D02*
D03*
X-167578Y-673275D02*
D03*
X-159998Y-688435D02*
D03*
X-167578Y-703595D02*
D03*
X-159998Y-718755D02*
D03*
X-167578Y-733915D02*
D03*
X-159998Y-749075D02*
D03*
X-167578Y-764235D02*
D03*
X-159998Y-779395D02*
D03*
X-167578Y-794555D02*
D03*
X-159998Y-809715D02*
D03*
X-167578Y-824875D02*
D03*
X-159998Y-840035D02*
D03*
X-167578Y-855195D02*
D03*
X-159998Y-870355D02*
D03*
X-167578Y-885515D02*
D03*
X-159998Y-900675D02*
D03*
X-167578Y-915835D02*
D03*
X-159998Y-930995D02*
D03*
X-167578Y-946155D02*
D03*
X-159998Y-961315D02*
D03*
X-167578Y-976475D02*
D03*
X-159998Y-991635D02*
D03*
X-167578Y-1006795D02*
D03*
X-159998Y-1021955D02*
D03*
X-175158Y-21395D02*
D03*
Y-627795D02*
D03*
Y-658115D02*
D03*
X-182738Y-673275D02*
D03*
X-175158Y-688435D02*
D03*
Y-749075D02*
D03*
X-182738Y-764235D02*
D03*
X-175158Y-779395D02*
D03*
X-182738Y-794555D02*
D03*
X-175158Y-809715D02*
D03*
X-182738Y-824875D02*
D03*
X-175158Y-840035D02*
D03*
X-182738Y-855195D02*
D03*
X-175158Y-870355D02*
D03*
X-182738Y-885515D02*
D03*
X-175158Y-900675D02*
D03*
Y-961315D02*
D03*
X-182738Y-976475D02*
D03*
X-175158Y-1021955D02*
D03*
X-190318Y-21395D02*
D03*
X-197898Y-673275D02*
D03*
X-190318Y-688435D02*
D03*
Y-749075D02*
D03*
X-197898Y-764235D02*
D03*
X-190318Y-779395D02*
D03*
X-197898Y-794555D02*
D03*
X-190318Y-809715D02*
D03*
X-197898Y-824875D02*
D03*
X-190318Y-840035D02*
D03*
X-197898Y-855195D02*
D03*
X-190318Y-870355D02*
D03*
X-197898Y-885515D02*
D03*
X-190318Y-900675D02*
D03*
Y-961315D02*
D03*
X-205478Y-21395D02*
D03*
X-213058Y-673275D02*
D03*
X-205478Y-688435D02*
D03*
Y-749075D02*
D03*
X-213058Y-764235D02*
D03*
X-205478Y-779395D02*
D03*
X-213058Y-794555D02*
D03*
X-205478Y-809715D02*
D03*
X-213058Y-824875D02*
D03*
X-205478Y-840035D02*
D03*
X-213058Y-855195D02*
D03*
X-205478Y-870355D02*
D03*
X-213058Y-885515D02*
D03*
X-205478Y-900675D02*
D03*
Y-961315D02*
D03*
X-213058Y-976475D02*
D03*
X-220638Y-21395D02*
D03*
Y-627795D02*
D03*
X-228218Y-642955D02*
D03*
X-220638Y-658115D02*
D03*
X-228218Y-673275D02*
D03*
X-220638Y-688435D02*
D03*
X-228218Y-703595D02*
D03*
Y-733915D02*
D03*
X-220638Y-749075D02*
D03*
X-228218Y-764235D02*
D03*
X-220638Y-779395D02*
D03*
X-228218Y-794555D02*
D03*
X-220638Y-809715D02*
D03*
X-228218Y-824875D02*
D03*
X-220638Y-840035D02*
D03*
X-228218Y-855195D02*
D03*
X-220638Y-870355D02*
D03*
X-228218Y-885515D02*
D03*
X-220638Y-900675D02*
D03*
X-228218Y-915835D02*
D03*
Y-946155D02*
D03*
X-220638Y-961315D02*
D03*
X-228218Y-976475D02*
D03*
Y-1006795D02*
D03*
X-220638Y-1021955D02*
D03*
X-235798Y-21395D02*
D03*
Y-627795D02*
D03*
X-243378Y-642955D02*
D03*
X-235798Y-658115D02*
D03*
X-243378Y-673275D02*
D03*
X-235798Y-688435D02*
D03*
X-243378Y-703595D02*
D03*
X-235798Y-718755D02*
D03*
X-243378Y-733915D02*
D03*
X-235798Y-749075D02*
D03*
X-243378Y-764235D02*
D03*
X-235798Y-779395D02*
D03*
X-243378Y-794555D02*
D03*
X-235798Y-809715D02*
D03*
X-243378Y-824875D02*
D03*
X-235798Y-840035D02*
D03*
X-243378Y-855195D02*
D03*
X-235798Y-870355D02*
D03*
X-243378Y-885515D02*
D03*
X-235798Y-900675D02*
D03*
X-243378Y-915835D02*
D03*
X-235798Y-930995D02*
D03*
X-243378Y-946155D02*
D03*
X-235798Y-961315D02*
D03*
X-243378Y-976475D02*
D03*
X-235798Y-991635D02*
D03*
X-243378Y-1006795D02*
D03*
X-235798Y-1021955D02*
D03*
X-250958Y-21395D02*
D03*
Y-627795D02*
D03*
X-258538Y-642955D02*
D03*
X-250958Y-658115D02*
D03*
X-258538Y-673275D02*
D03*
X-250958Y-688435D02*
D03*
X-258538Y-703595D02*
D03*
X-250958Y-718755D02*
D03*
X-258538Y-733915D02*
D03*
X-250958Y-749075D02*
D03*
X-258538Y-764235D02*
D03*
X-250958Y-779395D02*
D03*
X-258538Y-794555D02*
D03*
X-250958Y-809715D02*
D03*
X-258538Y-824875D02*
D03*
X-250958Y-840035D02*
D03*
X-258538Y-855195D02*
D03*
X-250958Y-870355D02*
D03*
X-258538Y-885515D02*
D03*
X-250958Y-900675D02*
D03*
X-258538Y-915835D02*
D03*
X-250958Y-930995D02*
D03*
X-258538Y-946155D02*
D03*
X-250958Y-961315D02*
D03*
X-258538Y-976475D02*
D03*
X-250958Y-991635D02*
D03*
X-258538Y-1006795D02*
D03*
X-250958Y-1021955D02*
D03*
X-266118Y-21395D02*
D03*
Y-627795D02*
D03*
X-273698Y-642955D02*
D03*
X-266118Y-658115D02*
D03*
X-273698Y-673275D02*
D03*
X-266118Y-688435D02*
D03*
X-273698Y-703595D02*
D03*
X-266118Y-718755D02*
D03*
X-273698Y-733915D02*
D03*
X-266118Y-749075D02*
D03*
X-273698Y-764235D02*
D03*
X-266118Y-779395D02*
D03*
X-273698Y-794555D02*
D03*
X-266118Y-809715D02*
D03*
X-273698Y-824875D02*
D03*
X-266118Y-840035D02*
D03*
X-273698Y-855195D02*
D03*
X-266118Y-870355D02*
D03*
X-273698Y-885515D02*
D03*
X-266118Y-900675D02*
D03*
X-273698Y-915835D02*
D03*
X-266118Y-930995D02*
D03*
X-273698Y-946155D02*
D03*
X-266118Y-961315D02*
D03*
X-273698Y-976475D02*
D03*
X-266118Y-991635D02*
D03*
X-281278Y-21395D02*
D03*
X-296438D02*
D03*
X-311598D02*
D03*
X-326758D02*
D03*
X-341918D02*
D03*
X-576898Y-642955D02*
D03*
X-569318Y-658115D02*
D03*
X-576898Y-673275D02*
D03*
X-569318Y-688435D02*
D03*
X-576898Y-703595D02*
D03*
X-569318Y-718755D02*
D03*
X-576898Y-733915D02*
D03*
X-569318Y-749075D02*
D03*
X-576898Y-764235D02*
D03*
X-569318Y-779395D02*
D03*
X-576898Y-794555D02*
D03*
X-569318Y-809715D02*
D03*
X-576898Y-824875D02*
D03*
X-569318Y-840035D02*
D03*
X-576898Y-855195D02*
D03*
X-569318Y-870355D02*
D03*
X-576898Y-885515D02*
D03*
X-569318Y-900675D02*
D03*
X-576898Y-915835D02*
D03*
X-569318Y-930995D02*
D03*
X-576898Y-946155D02*
D03*
X-569318Y-961315D02*
D03*
X-576898Y-976475D02*
D03*
X-569318Y-991635D02*
D03*
X-576898Y-1006795D02*
D03*
X-592057Y-642955D02*
D03*
X-584478Y-658115D02*
D03*
X-592057Y-673275D02*
D03*
X-584478Y-688435D02*
D03*
X-592057Y-703595D02*
D03*
X-584478Y-718755D02*
D03*
X-592057Y-733915D02*
D03*
X-584478Y-749075D02*
D03*
X-592057Y-764235D02*
D03*
X-584478Y-779395D02*
D03*
X-592057Y-794555D02*
D03*
X-584478Y-809715D02*
D03*
X-592057Y-824875D02*
D03*
X-584478Y-840035D02*
D03*
X-592057Y-855195D02*
D03*
X-584478Y-870355D02*
D03*
X-592057Y-885515D02*
D03*
X-584478Y-900675D02*
D03*
X-592057Y-915835D02*
D03*
X-584478Y-930995D02*
D03*
X-592057Y-946155D02*
D03*
X-584478Y-961315D02*
D03*
X-592057Y-976475D02*
D03*
X-584478Y-991635D02*
D03*
X-592057Y-1006795D02*
D03*
X-599637Y-627795D02*
D03*
X-607217Y-642955D02*
D03*
X-599637Y-658115D02*
D03*
X-607217Y-673275D02*
D03*
X-599637Y-688435D02*
D03*
X-607217Y-703595D02*
D03*
X-599637Y-718755D02*
D03*
X-607217Y-733915D02*
D03*
X-599637Y-749075D02*
D03*
X-607217Y-764235D02*
D03*
X-599637Y-779395D02*
D03*
X-607217Y-794555D02*
D03*
X-599637Y-809715D02*
D03*
X-607217Y-824875D02*
D03*
X-599637Y-840035D02*
D03*
X-607217Y-855195D02*
D03*
X-599637Y-870355D02*
D03*
X-607217Y-885515D02*
D03*
X-599637Y-900675D02*
D03*
X-607217Y-915835D02*
D03*
X-599637Y-930995D02*
D03*
X-607217Y-946155D02*
D03*
X-599637Y-961315D02*
D03*
X-607217Y-976475D02*
D03*
X-599637Y-991635D02*
D03*
X-607217Y-1006795D02*
D03*
X-599637Y-1021955D02*
D03*
X-614798Y-627795D02*
D03*
Y-658115D02*
D03*
X-622378Y-673275D02*
D03*
X-614798Y-688435D02*
D03*
Y-749075D02*
D03*
X-622378Y-764235D02*
D03*
X-614798Y-779395D02*
D03*
X-622378Y-794555D02*
D03*
X-614798Y-809715D02*
D03*
X-622378Y-824875D02*
D03*
X-614798Y-840035D02*
D03*
X-622378Y-855195D02*
D03*
X-614798Y-870355D02*
D03*
X-622378Y-885515D02*
D03*
X-614798Y-900675D02*
D03*
Y-961315D02*
D03*
X-622378Y-976475D02*
D03*
X-614798Y-1021955D02*
D03*
X-637537Y-673275D02*
D03*
X-629958Y-688435D02*
D03*
Y-749075D02*
D03*
X-637537Y-764235D02*
D03*
X-629958Y-779395D02*
D03*
X-637537Y-794555D02*
D03*
X-629958Y-809715D02*
D03*
X-637537Y-824875D02*
D03*
X-629958Y-840035D02*
D03*
X-637537Y-855195D02*
D03*
X-629958Y-870355D02*
D03*
X-637537Y-885515D02*
D03*
X-629958Y-900675D02*
D03*
Y-961315D02*
D03*
X-652698Y-673275D02*
D03*
X-645117Y-688435D02*
D03*
Y-749075D02*
D03*
X-652698Y-764235D02*
D03*
X-645117Y-779395D02*
D03*
X-652698Y-794555D02*
D03*
X-645117Y-809715D02*
D03*
X-652698Y-824875D02*
D03*
X-645117Y-840035D02*
D03*
X-652698Y-855195D02*
D03*
X-645117Y-870355D02*
D03*
X-652698Y-885515D02*
D03*
X-645117Y-900675D02*
D03*
Y-961315D02*
D03*
X-652698Y-976475D02*
D03*
X-660277Y-627795D02*
D03*
X-667858Y-642955D02*
D03*
X-660277Y-658115D02*
D03*
X-667858Y-673275D02*
D03*
X-660277Y-688435D02*
D03*
X-667858Y-703595D02*
D03*
Y-733915D02*
D03*
X-660277Y-749075D02*
D03*
X-667858Y-764235D02*
D03*
X-660277Y-779395D02*
D03*
X-667858Y-794555D02*
D03*
X-660277Y-809715D02*
D03*
X-667858Y-824875D02*
D03*
X-660277Y-840035D02*
D03*
X-667858Y-855195D02*
D03*
X-660277Y-870355D02*
D03*
X-667858Y-885515D02*
D03*
X-660277Y-900675D02*
D03*
X-667858Y-915835D02*
D03*
Y-946155D02*
D03*
X-660277Y-961315D02*
D03*
X-667858Y-976475D02*
D03*
Y-1006795D02*
D03*
X-660277Y-1021955D02*
D03*
X-675437Y-627795D02*
D03*
X-683018Y-642955D02*
D03*
X-675437Y-658115D02*
D03*
X-683018Y-673275D02*
D03*
X-675437Y-688435D02*
D03*
X-683018Y-703595D02*
D03*
X-675437Y-718755D02*
D03*
X-683018Y-733915D02*
D03*
X-675437Y-749075D02*
D03*
X-683018Y-764235D02*
D03*
X-675437Y-779395D02*
D03*
X-683018Y-794555D02*
D03*
X-675437Y-809715D02*
D03*
X-683018Y-824875D02*
D03*
X-675437Y-840035D02*
D03*
X-683018Y-855195D02*
D03*
X-675437Y-870355D02*
D03*
X-683018Y-885515D02*
D03*
X-675437Y-900675D02*
D03*
X-683018Y-915835D02*
D03*
X-675437Y-930995D02*
D03*
X-683018Y-946155D02*
D03*
X-675437Y-961315D02*
D03*
X-683018Y-976475D02*
D03*
X-675437Y-991635D02*
D03*
X-683018Y-1006795D02*
D03*
X-675437Y-1021955D02*
D03*
X-690598Y-627795D02*
D03*
X-698177Y-642955D02*
D03*
X-690598Y-658115D02*
D03*
X-698177Y-673275D02*
D03*
X-690598Y-688435D02*
D03*
X-698177Y-703595D02*
D03*
X-690598Y-718755D02*
D03*
X-698177Y-733915D02*
D03*
X-690598Y-749075D02*
D03*
X-698177Y-764235D02*
D03*
X-690598Y-779395D02*
D03*
X-698177Y-794555D02*
D03*
X-690598Y-809715D02*
D03*
X-698177Y-824875D02*
D03*
X-690598Y-840035D02*
D03*
X-698177Y-855195D02*
D03*
X-690598Y-870355D02*
D03*
X-698177Y-885515D02*
D03*
X-690598Y-900675D02*
D03*
X-698177Y-915835D02*
D03*
X-690598Y-930995D02*
D03*
X-698177Y-946155D02*
D03*
X-690598Y-961315D02*
D03*
X-698177Y-976475D02*
D03*
X-690598Y-991635D02*
D03*
X-698177Y-1006795D02*
D03*
X-690598Y-1021955D02*
D03*
X-705757Y-627795D02*
D03*
X-713337Y-642955D02*
D03*
X-705757Y-658115D02*
D03*
X-713337Y-673275D02*
D03*
X-705757Y-688435D02*
D03*
X-713337Y-703595D02*
D03*
X-705757Y-718755D02*
D03*
X-713337Y-733915D02*
D03*
X-705757Y-749075D02*
D03*
X-713337Y-764235D02*
D03*
X-705757Y-779395D02*
D03*
X-713337Y-794555D02*
D03*
X-705757Y-809715D02*
D03*
X-713337Y-824875D02*
D03*
X-705757Y-840035D02*
D03*
X-713337Y-855195D02*
D03*
X-705757Y-870355D02*
D03*
X-713337Y-885515D02*
D03*
X-705757Y-900675D02*
D03*
X-713337Y-915835D02*
D03*
X-705757Y-930995D02*
D03*
X-713337Y-946155D02*
D03*
X-705757Y-961315D02*
D03*
X-713337Y-976475D02*
D03*
X-705757Y-991635D02*
D03*
X-713337Y-1006795D02*
D03*
X-705757Y-1021955D02*
D03*
X-720917Y-627795D02*
D03*
X-728497Y-642955D02*
D03*
X-720917Y-658115D02*
D03*
X-728497Y-673275D02*
D03*
X-720917Y-688435D02*
D03*
X-728497Y-703595D02*
D03*
X-720917Y-718755D02*
D03*
X-728497Y-733915D02*
D03*
X-720917Y-749075D02*
D03*
X-728497Y-764235D02*
D03*
X-720917Y-779395D02*
D03*
X-728497Y-794555D02*
D03*
X-720917Y-809715D02*
D03*
X-728497Y-824875D02*
D03*
X-720917Y-840035D02*
D03*
X-728497Y-855195D02*
D03*
X-720917Y-870355D02*
D03*
X-728497Y-885515D02*
D03*
X-720917Y-900675D02*
D03*
X-728497Y-915835D02*
D03*
X-720917Y-930995D02*
D03*
X-728497Y-946155D02*
D03*
X-720917Y-961315D02*
D03*
X-728497Y-976475D02*
D03*
X-720917Y-991635D02*
D03*
X-728497Y-1006795D02*
D03*
X-720917Y-1021955D02*
D03*
X-736077Y-627795D02*
D03*
X-743657Y-642955D02*
D03*
X-736077Y-658115D02*
D03*
X-743657Y-673275D02*
D03*
X-736077Y-688435D02*
D03*
X-743657Y-703595D02*
D03*
X-736077Y-718755D02*
D03*
X-743657Y-733915D02*
D03*
X-736077Y-749075D02*
D03*
X-743657Y-764235D02*
D03*
X-736077Y-779395D02*
D03*
X-743657Y-794555D02*
D03*
X-736077Y-809715D02*
D03*
X-743657Y-824875D02*
D03*
X-736077Y-840035D02*
D03*
X-743657Y-855195D02*
D03*
X-736077Y-870355D02*
D03*
X-743657Y-885515D02*
D03*
X-736077Y-900675D02*
D03*
X-743657Y-915835D02*
D03*
X-736077Y-930995D02*
D03*
X-743657Y-946155D02*
D03*
X-736077Y-961315D02*
D03*
X-743657Y-976475D02*
D03*
X-736077Y-991635D02*
D03*
X-743657Y-1006795D02*
D03*
X-736077Y-1021955D02*
D03*
X-751237Y-627795D02*
D03*
X-758817Y-642955D02*
D03*
X-751237Y-658115D02*
D03*
X-758817Y-673275D02*
D03*
X-751237Y-688435D02*
D03*
X-758817Y-703595D02*
D03*
X-751237Y-718755D02*
D03*
X-758817Y-733915D02*
D03*
X-751237Y-749075D02*
D03*
X-758817Y-764235D02*
D03*
X-751237Y-779395D02*
D03*
X-758817Y-794555D02*
D03*
X-751237Y-809715D02*
D03*
X-758817Y-824875D02*
D03*
X-751237Y-840035D02*
D03*
X-758817Y-855195D02*
D03*
X-751237Y-870355D02*
D03*
X-758817Y-885515D02*
D03*
X-751237Y-900675D02*
D03*
X-758817Y-915835D02*
D03*
X-751237Y-930995D02*
D03*
X-758817Y-946155D02*
D03*
X-751237Y-961315D02*
D03*
X-758817Y-976475D02*
D03*
X-751237Y-991635D02*
D03*
X-758817Y-1006795D02*
D03*
X-751237Y-1021955D02*
D03*
X-773977Y-642955D02*
D03*
X-766397Y-658115D02*
D03*
X-773977Y-673275D02*
D03*
X-766397Y-688435D02*
D03*
X-773977Y-703595D02*
D03*
X-766397Y-718755D02*
D03*
X-773977Y-733915D02*
D03*
X-766397Y-749075D02*
D03*
X-773977Y-764235D02*
D03*
X-766397Y-779395D02*
D03*
X-773977Y-794555D02*
D03*
X-766397Y-809715D02*
D03*
X-773977Y-824875D02*
D03*
X-766397Y-840035D02*
D03*
X-773977Y-855195D02*
D03*
X-766397Y-870355D02*
D03*
X-773977Y-885515D02*
D03*
X-766397Y-900675D02*
D03*
X-773977Y-915835D02*
D03*
X-766397Y-930995D02*
D03*
X-773977Y-946155D02*
D03*
X-766397Y-961315D02*
D03*
X-773977Y-976475D02*
D03*
X-766397Y-991635D02*
D03*
X-773977Y-1006795D02*
D03*
X-781557Y-688435D02*
D03*
X-789137Y-703595D02*
D03*
X-781557Y-718755D02*
D03*
X-789137Y-733915D02*
D03*
X-781557Y-749075D02*
D03*
X-789137Y-764235D02*
D03*
X-781557Y-779395D02*
D03*
X-789137Y-794555D02*
D03*
X-781557Y-809715D02*
D03*
X-789137Y-824875D02*
D03*
X-781557Y-840035D02*
D03*
X-789137Y-855195D02*
D03*
X-781557Y-870355D02*
D03*
X-789137Y-885515D02*
D03*
X-781557Y-900675D02*
D03*
X-789137Y-915835D02*
D03*
X-781557Y-930995D02*
D03*
Y-961315D02*
D03*
Y-991635D02*
D03*
X-796717Y-688435D02*
D03*
X-804297Y-703595D02*
D03*
X-796717Y-718755D02*
D03*
X-804297Y-733915D02*
D03*
X-796717Y-749075D02*
D03*
X-804297Y-764235D02*
D03*
X-796717Y-779395D02*
D03*
X-804297Y-794555D02*
D03*
X-796717Y-809715D02*
D03*
X-804297Y-824875D02*
D03*
X-796717Y-840035D02*
D03*
X-804297Y-855195D02*
D03*
X-796717Y-870355D02*
D03*
X-804297Y-885515D02*
D03*
X-796717Y-900675D02*
D03*
X-819457Y-703595D02*
D03*
X-811877Y-718755D02*
D03*
X-819457Y-733915D02*
D03*
X-811877Y-749075D02*
D03*
X-819457Y-764235D02*
D03*
X-811877Y-779395D02*
D03*
X-819457Y-794555D02*
D03*
X-811877Y-809715D02*
D03*
X-819457Y-824875D02*
D03*
X-811877Y-840035D02*
D03*
X-819457Y-855195D02*
D03*
X-811877Y-870355D02*
D03*
X-819457Y-885515D02*
D03*
X-834617Y-703595D02*
D03*
X-827037Y-718755D02*
D03*
X-834617Y-733915D02*
D03*
X-827037Y-749075D02*
D03*
X-834617Y-764235D02*
D03*
X-827037Y-779395D02*
D03*
X-834617Y-794555D02*
D03*
X-827037Y-809715D02*
D03*
X-834617Y-824875D02*
D03*
X-827037Y-840035D02*
D03*
X-834617Y-855195D02*
D03*
X-827037Y-870355D02*
D03*
X-834617Y-885515D02*
D03*
X-849777Y-703595D02*
D03*
X-842197Y-718755D02*
D03*
X-849777Y-733915D02*
D03*
X-842197Y-749075D02*
D03*
X-849777Y-764235D02*
D03*
X-842197Y-779395D02*
D03*
X-849777Y-794555D02*
D03*
X-842197Y-809715D02*
D03*
X-849777Y-824875D02*
D03*
X-842197Y-840035D02*
D03*
X-849777Y-855195D02*
D03*
X-842197Y-870355D02*
D03*
X-849777Y-885515D02*
D03*
X-864937Y-703595D02*
D03*
X-857357Y-718755D02*
D03*
X-864937Y-733915D02*
D03*
X-857357Y-749075D02*
D03*
X-864937Y-764235D02*
D03*
X-857357Y-779395D02*
D03*
X-864937Y-794555D02*
D03*
X-857357Y-809715D02*
D03*
X-864937Y-824875D02*
D03*
X-857357Y-840035D02*
D03*
X-864937Y-855195D02*
D03*
X-857357Y-870355D02*
D03*
X-864937Y-885515D02*
D03*
X-880097Y-703595D02*
D03*
X-872517Y-718755D02*
D03*
X-880097Y-733915D02*
D03*
X-872517Y-749075D02*
D03*
X-880097Y-764235D02*
D03*
X-872517Y-779395D02*
D03*
X-880097Y-794555D02*
D03*
X-872517Y-809715D02*
D03*
X-880097Y-824875D02*
D03*
X-872517Y-840035D02*
D03*
X-880097Y-855195D02*
D03*
X-872517Y-870355D02*
D03*
X-880097Y-885515D02*
D03*
X-895257Y-703595D02*
D03*
X-887677Y-718755D02*
D03*
X-895257Y-733915D02*
D03*
X-887677Y-749075D02*
D03*
X-895257Y-764235D02*
D03*
X-887677Y-779395D02*
D03*
X-895257Y-794555D02*
D03*
X-887677Y-809715D02*
D03*
X-895257Y-824875D02*
D03*
X-887677Y-840035D02*
D03*
X-895257Y-855195D02*
D03*
X-887677Y-870355D02*
D03*
X-895257Y-885515D02*
D03*
X-910417Y-703595D02*
D03*
X-902837Y-718755D02*
D03*
X-910417Y-733915D02*
D03*
X-902837Y-749075D02*
D03*
X-910417Y-764235D02*
D03*
X-902837Y-779395D02*
D03*
X-910417Y-794555D02*
D03*
X-902837Y-809715D02*
D03*
X-910417Y-824875D02*
D03*
X-902837Y-840035D02*
D03*
X-910417Y-855195D02*
D03*
X-902837Y-870355D02*
D03*
X-910417Y-885515D02*
D03*
X-925577Y-703595D02*
D03*
X-917997Y-718755D02*
D03*
X-925577Y-733915D02*
D03*
X-917997Y-749075D02*
D03*
X-925577Y-764235D02*
D03*
X-917997Y-779395D02*
D03*
X-925577Y-794555D02*
D03*
X-917997Y-809715D02*
D03*
X-925577Y-824875D02*
D03*
X-917997Y-840035D02*
D03*
X-925577Y-855195D02*
D03*
X-917997Y-870355D02*
D03*
X-925577Y-885515D02*
D03*
X-940737Y-703595D02*
D03*
X-933157Y-718755D02*
D03*
X-940737Y-733915D02*
D03*
X-933157Y-749075D02*
D03*
X-940737Y-764235D02*
D03*
X-933157Y-779395D02*
D03*
X-940737Y-794555D02*
D03*
X-933157Y-809715D02*
D03*
X-940737Y-824875D02*
D03*
X-933157Y-840035D02*
D03*
X-940737Y-855195D02*
D03*
X-933157Y-870355D02*
D03*
X-940737Y-885515D02*
D03*
X-955897Y-703595D02*
D03*
X-948317Y-718755D02*
D03*
X-955897Y-733915D02*
D03*
X-948317Y-749075D02*
D03*
X-955897Y-764235D02*
D03*
X-948317Y-779395D02*
D03*
X-955897Y-794555D02*
D03*
X-948317Y-809715D02*
D03*
X-955897Y-824875D02*
D03*
X-948317Y-840035D02*
D03*
X-955897Y-855195D02*
D03*
X-948317Y-870355D02*
D03*
X-955897Y-885515D02*
D03*
X-971057Y-703595D02*
D03*
X-963477Y-718755D02*
D03*
X-971057Y-733915D02*
D03*
X-963477Y-749075D02*
D03*
X-971057Y-764235D02*
D03*
X-963477Y-779395D02*
D03*
X-971057Y-794555D02*
D03*
X-963477Y-809715D02*
D03*
X-971057Y-824875D02*
D03*
X-963477Y-840035D02*
D03*
X-971057Y-855195D02*
D03*
X-963477Y-870355D02*
D03*
X-971057Y-885515D02*
D03*
X-986217Y-703595D02*
D03*
X-978637Y-718755D02*
D03*
X-986217Y-733915D02*
D03*
X-978637Y-749075D02*
D03*
X-986217Y-764235D02*
D03*
X-978637Y-779395D02*
D03*
X-986217Y-794555D02*
D03*
X-978637Y-809715D02*
D03*
X-986217Y-824875D02*
D03*
X-978637Y-840035D02*
D03*
X-986217Y-855195D02*
D03*
X-978637Y-870355D02*
D03*
X-986217Y-885515D02*
D03*
X-1001377Y-703595D02*
D03*
X-993797Y-718755D02*
D03*
X-1001377Y-733915D02*
D03*
X-993797Y-749075D02*
D03*
X-1001377Y-764235D02*
D03*
X-993797Y-779395D02*
D03*
X-1001377Y-794555D02*
D03*
X-993797Y-809715D02*
D03*
X-1001377Y-824875D02*
D03*
X-993797Y-840035D02*
D03*
X-1001377Y-855195D02*
D03*
X-993797Y-870355D02*
D03*
X-1001377Y-885515D02*
D03*
X-1016537Y-703595D02*
D03*
X-1008957Y-718755D02*
D03*
X-1016537Y-733915D02*
D03*
X-1008957Y-749075D02*
D03*
X-1016537Y-764235D02*
D03*
X-1008957Y-779395D02*
D03*
X-1016537Y-794555D02*
D03*
X-1008957Y-809715D02*
D03*
X-1016537Y-824875D02*
D03*
X-1008957Y-840035D02*
D03*
X-1016537Y-855195D02*
D03*
X-1008957Y-870355D02*
D03*
X-1016537Y-885515D02*
D03*
X-1031697Y-703595D02*
D03*
X-1024117Y-718755D02*
D03*
X-1031697Y-733915D02*
D03*
X-1024117Y-749075D02*
D03*
X-1031697Y-764235D02*
D03*
X-1024117Y-779395D02*
D03*
X-1031697Y-794555D02*
D03*
X-1024117Y-809715D02*
D03*
X-1031697Y-824875D02*
D03*
X-1024117Y-840035D02*
D03*
X-1031697Y-855195D02*
D03*
X-1024117Y-870355D02*
D03*
X-1031697Y-885515D02*
D03*
X-1046857Y-703595D02*
D03*
X-1039277Y-718755D02*
D03*
X-1046857Y-733915D02*
D03*
X-1039277Y-749075D02*
D03*
X-1046857Y-764235D02*
D03*
X-1039277Y-779395D02*
D03*
Y-809715D02*
D03*
X-1046857Y-824875D02*
D03*
X-1039277Y-840035D02*
D03*
X-1046857Y-855195D02*
D03*
X-1039277Y-870355D02*
D03*
X-1046857Y-885515D02*
D03*
X-1054437Y-749075D02*
D03*
X-1062017Y-764235D02*
D03*
X-1054437Y-779395D02*
D03*
X-1062017Y-824875D02*
D03*
X-1054437Y-840035D02*
D03*
X-1062017Y-855195D02*
D03*
X-1054437Y-870355D02*
D03*
X-1062017Y-885515D02*
D03*
X-1077177Y-764235D02*
D03*
Y-824875D02*
D03*
X-1069597Y-840035D02*
D03*
X-1077177Y-855195D02*
D03*
X-1069597Y-870355D02*
D03*
X-1077177Y-885515D02*
D03*
X-1092337Y-703595D02*
D03*
X-1084757Y-749075D02*
D03*
X-1092337Y-764235D02*
D03*
Y-824875D02*
D03*
X-1084757Y-840035D02*
D03*
X-1092337Y-855195D02*
D03*
X-1084757Y-870355D02*
D03*
X-1107497Y-703595D02*
D03*
X-1099917Y-718755D02*
D03*
X-1107497Y-733915D02*
D03*
X-1099917Y-749075D02*
D03*
X-1107497Y-764235D02*
D03*
X-1099917Y-779395D02*
D03*
X-1107497Y-794555D02*
D03*
X-1099917Y-809715D02*
D03*
X-1107497Y-824875D02*
D03*
X-1099917Y-840035D02*
D03*
X-1122657Y-703595D02*
D03*
X-1115077Y-718755D02*
D03*
X-1122657Y-733915D02*
D03*
X-1115077Y-749075D02*
D03*
X-1122657Y-764235D02*
D03*
X-1115077Y-779395D02*
D03*
X-1122657Y-794555D02*
D03*
X-1115077Y-809715D02*
D03*
X-1122657Y-824875D02*
D03*
X-1115077Y-840035D02*
D03*
X-1137817Y-703595D02*
D03*
X-1130237Y-718755D02*
D03*
X-1137817Y-733915D02*
D03*
X-1130237Y-749075D02*
D03*
X-1137817Y-764235D02*
D03*
X-1130237Y-779395D02*
D03*
X-1137817Y-794555D02*
D03*
X-1130237Y-809715D02*
D03*
X-1137817Y-824875D02*
D03*
X-1130237Y-840035D02*
D03*
X-1145397Y-718755D02*
D03*
X-1152977Y-733915D02*
D03*
X-1145397Y-749075D02*
D03*
X-1152977Y-764235D02*
D03*
X-1145397Y-779395D02*
D03*
X-1152977Y-794555D02*
D03*
X-1145397Y-809715D02*
D03*
X-1152977Y-824875D02*
D03*
X-1145397Y-840035D02*
D03*
X-1160557Y-749075D02*
D03*
Y-779395D02*
D03*
Y-809715D02*
D03*
X-1274257Y-885515D02*
D03*
X-1281837Y-870355D02*
D03*
X-1289417Y-885515D02*
D03*
X-1296997Y-870355D02*
D03*
X-1304577Y-885515D02*
D03*
X-1312157Y-870355D02*
D03*
X-1319737Y-885515D02*
D03*
X-1312157Y-900675D02*
D03*
X-1319737Y-915835D02*
D03*
X-1327317Y-870355D02*
D03*
X-76618Y-294275D02*
D03*
Y-324595D02*
D03*
X-91778Y-263955D02*
D03*
X-84198Y-279115D02*
D03*
X-91778Y-294275D02*
D03*
X-84198Y-309435D02*
D03*
X-91778Y-324595D02*
D03*
X-84198Y-339755D02*
D03*
X-91778Y-354915D02*
D03*
X-106938Y-263955D02*
D03*
X-99358Y-279115D02*
D03*
Y-309435D02*
D03*
Y-339755D02*
D03*
X-106938Y-354915D02*
D03*
X-122098Y-263955D02*
D03*
X-114518Y-279115D02*
D03*
X-137258Y-263955D02*
D03*
X-152418D02*
D03*
X-167578D02*
D03*
X-182738D02*
D03*
X-190318Y-279115D02*
D03*
X-197898Y-354915D02*
D03*
X423662Y-1082595D02*
D03*
X431242Y-1097755D02*
D03*
X423662Y-1112915D02*
D03*
X408502Y-1082595D02*
D03*
X416082Y-1097755D02*
D03*
X408502Y-1112915D02*
D03*
X393342Y-1082595D02*
D03*
X400922Y-1097755D02*
D03*
X393342Y-1112915D02*
D03*
X400922Y-1128074D02*
D03*
X393342Y-1143234D02*
D03*
X378182Y-1082595D02*
D03*
X385762Y-1097755D02*
D03*
X378182Y-1112915D02*
D03*
X385762Y-1128074D02*
D03*
X378182Y-1143234D02*
D03*
X363022Y-1082595D02*
D03*
X370602Y-1097755D02*
D03*
X363022Y-1112915D02*
D03*
X370602Y-1128074D02*
D03*
X363022Y-1143234D02*
D03*
X370602Y-1158394D02*
D03*
X347862Y-1082595D02*
D03*
X355442Y-1097755D02*
D03*
X347862Y-1112915D02*
D03*
X355442Y-1128074D02*
D03*
X347862Y-1143234D02*
D03*
X355442Y-1158394D02*
D03*
X332702Y-1082595D02*
D03*
X340282Y-1097755D02*
D03*
X332702Y-1112915D02*
D03*
X340282Y-1128074D02*
D03*
X332702Y-1143234D02*
D03*
X340282Y-1158394D02*
D03*
X317542Y-1082595D02*
D03*
X325122Y-1097755D02*
D03*
X317542Y-1112915D02*
D03*
X325122Y-1128074D02*
D03*
X317542Y-1143234D02*
D03*
X325122Y-1158394D02*
D03*
X302382Y-1082595D02*
D03*
X309962Y-1097755D02*
D03*
X302382Y-1112915D02*
D03*
X309962Y-1128074D02*
D03*
X302382Y-1143234D02*
D03*
X309962Y-1158394D02*
D03*
X287222Y-1082595D02*
D03*
X294802Y-1097755D02*
D03*
X287222Y-1112915D02*
D03*
X294802Y-1128074D02*
D03*
X287222Y-1143234D02*
D03*
X294802Y-1158394D02*
D03*
X272062Y-1082595D02*
D03*
X279642Y-1097755D02*
D03*
X272062Y-1112915D02*
D03*
X279642Y-1128074D02*
D03*
X272062Y-1143234D02*
D03*
X279642Y-1158394D02*
D03*
X256902Y-385235D02*
D03*
Y-415555D02*
D03*
Y-445875D02*
D03*
X264482Y-1128074D02*
D03*
X249322Y-370075D02*
D03*
X241742Y-385235D02*
D03*
X249322Y-400395D02*
D03*
X241742Y-415555D02*
D03*
X249322Y-430715D02*
D03*
X241742Y-445875D02*
D03*
X249322Y-461035D02*
D03*
Y-1128074D02*
D03*
X234162Y-370075D02*
D03*
X226582Y-385235D02*
D03*
X234162Y-400395D02*
D03*
X226582Y-415555D02*
D03*
X234162Y-430715D02*
D03*
X226582Y-445875D02*
D03*
X234162Y-461035D02*
D03*
X226582Y-567155D02*
D03*
Y-1082595D02*
D03*
X234162Y-1128074D02*
D03*
X211422Y-385235D02*
D03*
X219002Y-400395D02*
D03*
X211422Y-415555D02*
D03*
X219002Y-430715D02*
D03*
X211422Y-445875D02*
D03*
X219002Y-461035D02*
D03*
X211422Y-476195D02*
D03*
X219002Y-491355D02*
D03*
X211422Y-506515D02*
D03*
X219002Y-521675D02*
D03*
X211422Y-536835D02*
D03*
X219002Y-551995D02*
D03*
X211422Y-567155D02*
D03*
Y-1082595D02*
D03*
X219002Y-1097755D02*
D03*
X211422Y-1112915D02*
D03*
X219002Y-1128074D02*
D03*
X211422Y-1143234D02*
D03*
X219002Y-1158394D02*
D03*
X196262Y-385235D02*
D03*
X203842Y-400395D02*
D03*
X196262Y-415555D02*
D03*
X203842Y-430715D02*
D03*
X196262Y-445875D02*
D03*
X203842Y-461035D02*
D03*
X196262Y-476195D02*
D03*
X203842Y-491355D02*
D03*
X196262Y-506515D02*
D03*
X203842Y-521675D02*
D03*
X196262Y-536835D02*
D03*
X203842Y-551995D02*
D03*
X196262Y-567155D02*
D03*
Y-1082595D02*
D03*
X203842Y-1097755D02*
D03*
X196262Y-1112915D02*
D03*
X203842Y-1128074D02*
D03*
X196262Y-1143234D02*
D03*
X203842Y-1158394D02*
D03*
X181102Y-385235D02*
D03*
X188682Y-400395D02*
D03*
X181102Y-415555D02*
D03*
X188682Y-430715D02*
D03*
X181102Y-445875D02*
D03*
X188682Y-461035D02*
D03*
X181102Y-476195D02*
D03*
X188682Y-491355D02*
D03*
X181102Y-506515D02*
D03*
X188682Y-521675D02*
D03*
X181102Y-536835D02*
D03*
X188682Y-551995D02*
D03*
X181102Y-567155D02*
D03*
Y-1082595D02*
D03*
X188682Y-1097755D02*
D03*
X181102Y-1112915D02*
D03*
X188682Y-1128074D02*
D03*
X181102Y-1143234D02*
D03*
X188682Y-1158394D02*
D03*
X165942Y-385235D02*
D03*
X173522Y-400395D02*
D03*
X165942Y-415555D02*
D03*
X173522Y-430715D02*
D03*
X165942Y-445875D02*
D03*
X173522Y-461035D02*
D03*
X165942Y-476195D02*
D03*
X173522Y-491355D02*
D03*
X165942Y-506515D02*
D03*
X173522Y-521675D02*
D03*
X165942Y-536835D02*
D03*
X173522Y-551995D02*
D03*
X165942Y-567155D02*
D03*
Y-1082595D02*
D03*
X173522Y-1097755D02*
D03*
X165942Y-1112915D02*
D03*
X173522Y-1128074D02*
D03*
X165942Y-1143234D02*
D03*
X173522Y-1158394D02*
D03*
X150782Y-385235D02*
D03*
X158362Y-400395D02*
D03*
X150782Y-415555D02*
D03*
X158362Y-430715D02*
D03*
X150782Y-445875D02*
D03*
X158362Y-461035D02*
D03*
X150782Y-476195D02*
D03*
X158362Y-491355D02*
D03*
X150782Y-506515D02*
D03*
X158362Y-521675D02*
D03*
X150782Y-536835D02*
D03*
X158362Y-551995D02*
D03*
X150782Y-567155D02*
D03*
Y-1082595D02*
D03*
X158362Y-1097755D02*
D03*
X150782Y-1112915D02*
D03*
X158362Y-1128074D02*
D03*
X150782Y-1143234D02*
D03*
X158362Y-1158394D02*
D03*
X143202Y-430715D02*
D03*
X135622Y-445875D02*
D03*
X143202Y-461035D02*
D03*
X135622Y-476195D02*
D03*
X143202Y-491355D02*
D03*
X135622Y-506515D02*
D03*
X143202Y-521675D02*
D03*
X135622Y-536835D02*
D03*
X143202Y-551995D02*
D03*
X135622Y-567155D02*
D03*
Y-1082595D02*
D03*
X143202Y-1097755D02*
D03*
X135622Y-1112915D02*
D03*
X143202Y-1128074D02*
D03*
X135622Y-1143234D02*
D03*
X143202Y-1158394D02*
D03*
X128042Y-430715D02*
D03*
X120462Y-445875D02*
D03*
X128042Y-461035D02*
D03*
X120462Y-476195D02*
D03*
X128042Y-491355D02*
D03*
X120462Y-506515D02*
D03*
X128042Y-521675D02*
D03*
X120462Y-536835D02*
D03*
X128042Y-551995D02*
D03*
X120462Y-567155D02*
D03*
Y-1082595D02*
D03*
X128042Y-1097755D02*
D03*
X120462Y-1112915D02*
D03*
X128042Y-1128074D02*
D03*
X120462Y-1143234D02*
D03*
X128042Y-1158394D02*
D03*
X112882Y-430715D02*
D03*
X105302Y-445875D02*
D03*
X112882Y-461035D02*
D03*
X105302Y-476195D02*
D03*
X112882Y-491355D02*
D03*
X105302Y-506515D02*
D03*
X112882Y-521675D02*
D03*
X105302Y-536835D02*
D03*
X112882Y-551995D02*
D03*
X105302Y-567155D02*
D03*
Y-1082595D02*
D03*
X112882Y-1097755D02*
D03*
X105302Y-1112915D02*
D03*
X112882Y-1128074D02*
D03*
X105302Y-1143234D02*
D03*
X112882Y-1158394D02*
D03*
X97722Y-430715D02*
D03*
X90142Y-445875D02*
D03*
X97722Y-461035D02*
D03*
X90142Y-476195D02*
D03*
X97722Y-491355D02*
D03*
X90142Y-506515D02*
D03*
X97722Y-521675D02*
D03*
X90142Y-536835D02*
D03*
X97722Y-551995D02*
D03*
X90142Y-567155D02*
D03*
Y-1082595D02*
D03*
X97722Y-1097755D02*
D03*
X90142Y-1112915D02*
D03*
X97722Y-1128074D02*
D03*
X90142Y-1143234D02*
D03*
X97722Y-1158394D02*
D03*
X82562Y-430715D02*
D03*
X74982Y-445875D02*
D03*
X82562Y-461035D02*
D03*
X74982Y-476195D02*
D03*
X82562Y-491355D02*
D03*
X74982Y-506515D02*
D03*
X82562Y-521675D02*
D03*
X74982Y-536835D02*
D03*
X82562Y-551995D02*
D03*
X74982Y-567155D02*
D03*
Y-1082595D02*
D03*
X82562Y-1097755D02*
D03*
X74982Y-1112915D02*
D03*
X82562Y-1128074D02*
D03*
X74982Y-1143234D02*
D03*
X82562Y-1158394D02*
D03*
X67402Y-430715D02*
D03*
X59822Y-445875D02*
D03*
X67402Y-461035D02*
D03*
X59822Y-476195D02*
D03*
X67402Y-491355D02*
D03*
X59822Y-506515D02*
D03*
X67402Y-521675D02*
D03*
X59822Y-536835D02*
D03*
X67402Y-551995D02*
D03*
X59822Y-567155D02*
D03*
Y-1082595D02*
D03*
X67402Y-1097755D02*
D03*
X59822Y-1112915D02*
D03*
X67402Y-1128074D02*
D03*
X59822Y-1143234D02*
D03*
X67402Y-1158394D02*
D03*
X52242Y-430715D02*
D03*
X44662Y-445875D02*
D03*
X52242Y-461035D02*
D03*
X44662Y-476195D02*
D03*
X52242Y-491355D02*
D03*
X44662Y-506515D02*
D03*
X52242Y-521675D02*
D03*
X44662Y-536835D02*
D03*
X52242Y-551995D02*
D03*
X44662Y-567155D02*
D03*
Y-1082595D02*
D03*
X52242Y-1097755D02*
D03*
X44662Y-1112915D02*
D03*
X52242Y-1128074D02*
D03*
X44662Y-1143234D02*
D03*
X52242Y-1158394D02*
D03*
X37082Y-430715D02*
D03*
X29502Y-445875D02*
D03*
X37082Y-461035D02*
D03*
X29502Y-476195D02*
D03*
X37082Y-491355D02*
D03*
X29502Y-506515D02*
D03*
X37082Y-521675D02*
D03*
X29502Y-536835D02*
D03*
X37082Y-551995D02*
D03*
X29502Y-567155D02*
D03*
Y-1082595D02*
D03*
X37082Y-1097755D02*
D03*
X29502Y-1112915D02*
D03*
X37082Y-1128074D02*
D03*
X29502Y-1143234D02*
D03*
X37082Y-1158394D02*
D03*
X21922Y-430715D02*
D03*
X14342Y-445875D02*
D03*
X21922Y-461035D02*
D03*
X14342Y-476195D02*
D03*
X21922Y-491355D02*
D03*
X14342Y-506515D02*
D03*
X21922Y-521675D02*
D03*
X14342Y-536835D02*
D03*
X21922Y-551995D02*
D03*
X14342Y-567155D02*
D03*
Y-1082595D02*
D03*
X21922Y-1097755D02*
D03*
X14342Y-1112915D02*
D03*
X21922Y-1128074D02*
D03*
X14342Y-1143234D02*
D03*
X21922Y-1158394D02*
D03*
X6762Y-430715D02*
D03*
X-818Y-445875D02*
D03*
X6762Y-461035D02*
D03*
X-818Y-476195D02*
D03*
X6762Y-491355D02*
D03*
X-818Y-506515D02*
D03*
X6762Y-521675D02*
D03*
X-818Y-536835D02*
D03*
X6762Y-551995D02*
D03*
X-818Y-567155D02*
D03*
Y-1082595D02*
D03*
X6762Y-1097755D02*
D03*
X-818Y-1112915D02*
D03*
X6762Y-1128074D02*
D03*
X-818Y-1143234D02*
D03*
X6762Y-1158394D02*
D03*
X-8398Y-430715D02*
D03*
X-15978Y-445875D02*
D03*
X-8398Y-461035D02*
D03*
X-15978Y-476195D02*
D03*
X-8398Y-491355D02*
D03*
X-15978Y-506515D02*
D03*
X-8398Y-521675D02*
D03*
X-15978Y-536835D02*
D03*
X-8398Y-551995D02*
D03*
X-15978Y-567155D02*
D03*
Y-1082595D02*
D03*
X-8398Y-1097755D02*
D03*
X-15978Y-1112915D02*
D03*
X-8398Y-1128074D02*
D03*
X-15978Y-1143234D02*
D03*
X-8398Y-1158394D02*
D03*
X-23558Y-430715D02*
D03*
X-31138Y-445875D02*
D03*
X-23558Y-461035D02*
D03*
X-31138Y-476195D02*
D03*
X-23558Y-491355D02*
D03*
X-31138Y-506515D02*
D03*
X-23558Y-521675D02*
D03*
X-31138Y-536835D02*
D03*
X-23558Y-551995D02*
D03*
X-31138Y-567155D02*
D03*
Y-1082595D02*
D03*
X-23558Y-1097755D02*
D03*
X-31138Y-1112915D02*
D03*
X-23558Y-1128074D02*
D03*
X-31138Y-1143234D02*
D03*
X-23558Y-1158394D02*
D03*
X-38718Y-430715D02*
D03*
X-46298Y-445875D02*
D03*
X-38718Y-461035D02*
D03*
X-46298Y-476195D02*
D03*
X-38718Y-491355D02*
D03*
X-46298Y-506515D02*
D03*
X-38718Y-521675D02*
D03*
X-46298Y-536835D02*
D03*
X-38718Y-551995D02*
D03*
X-46298Y-567155D02*
D03*
Y-1082595D02*
D03*
X-38718Y-1097755D02*
D03*
X-46298Y-1112915D02*
D03*
X-38718Y-1128074D02*
D03*
X-46298Y-1143234D02*
D03*
X-38718Y-1158394D02*
D03*
X-53878Y-430715D02*
D03*
X-61458Y-445875D02*
D03*
X-53878Y-461035D02*
D03*
X-61458Y-476195D02*
D03*
X-53878Y-491355D02*
D03*
X-61458Y-506515D02*
D03*
X-53878Y-521675D02*
D03*
X-61458Y-536835D02*
D03*
X-53878Y-551995D02*
D03*
X-61458Y-567155D02*
D03*
Y-1082595D02*
D03*
X-53878Y-1097755D02*
D03*
X-61458Y-1112915D02*
D03*
X-53878Y-1128074D02*
D03*
X-61458Y-1143234D02*
D03*
X-53878Y-1158394D02*
D03*
X-69038Y-430715D02*
D03*
X-76618Y-445875D02*
D03*
X-69038Y-461035D02*
D03*
X-76618Y-476195D02*
D03*
X-69038Y-491355D02*
D03*
X-76618Y-506515D02*
D03*
X-69038Y-521675D02*
D03*
X-76618Y-536835D02*
D03*
X-69038Y-551995D02*
D03*
X-76618Y-567155D02*
D03*
Y-1082595D02*
D03*
X-69038Y-1097755D02*
D03*
X-76618Y-1112915D02*
D03*
X-69038Y-1128074D02*
D03*
X-76618Y-1143234D02*
D03*
X-69038Y-1158394D02*
D03*
X-84198Y-430715D02*
D03*
X-91778Y-445875D02*
D03*
X-84198Y-461035D02*
D03*
X-91778Y-476195D02*
D03*
X-84198Y-491355D02*
D03*
X-91778Y-506515D02*
D03*
X-84198Y-521675D02*
D03*
X-91778Y-536835D02*
D03*
X-84198Y-551995D02*
D03*
X-91778Y-567155D02*
D03*
Y-1082595D02*
D03*
X-84198Y-1097755D02*
D03*
X-91778Y-1112915D02*
D03*
X-84198Y-1128074D02*
D03*
X-91778Y-1143234D02*
D03*
X-84198Y-1158394D02*
D03*
X-99358Y-430715D02*
D03*
X-106938Y-445875D02*
D03*
X-99358Y-461035D02*
D03*
X-106938Y-476195D02*
D03*
X-99358Y-491355D02*
D03*
X-106938Y-506515D02*
D03*
X-99358Y-521675D02*
D03*
X-106938Y-536835D02*
D03*
X-99358Y-551995D02*
D03*
X-106938Y-567155D02*
D03*
Y-1082595D02*
D03*
X-99358Y-1097755D02*
D03*
X-106938Y-1112915D02*
D03*
X-99358Y-1128074D02*
D03*
X-106938Y-1143234D02*
D03*
X-99358Y-1158394D02*
D03*
X-114518Y-430715D02*
D03*
X-122098Y-445875D02*
D03*
X-114518Y-461035D02*
D03*
X-122098Y-476195D02*
D03*
X-114518Y-491355D02*
D03*
X-122098Y-506515D02*
D03*
X-114518Y-521675D02*
D03*
X-122098Y-536835D02*
D03*
X-114518Y-551995D02*
D03*
X-122098Y-567155D02*
D03*
Y-1082595D02*
D03*
X-114518Y-1097755D02*
D03*
X-122098Y-1112915D02*
D03*
X-114518Y-1128074D02*
D03*
X-122098Y-1143234D02*
D03*
X-114518Y-1158394D02*
D03*
X-129678Y-430715D02*
D03*
X-137258Y-445875D02*
D03*
X-129678Y-461035D02*
D03*
X-137258Y-476195D02*
D03*
X-129678Y-491355D02*
D03*
X-137258Y-506515D02*
D03*
X-129678Y-521675D02*
D03*
X-137258Y-536835D02*
D03*
X-129678Y-551995D02*
D03*
X-137258Y-567155D02*
D03*
Y-1082595D02*
D03*
X-129678Y-1097755D02*
D03*
X-137258Y-1112915D02*
D03*
X-129678Y-1128074D02*
D03*
X-137258Y-1143234D02*
D03*
X-129678Y-1158394D02*
D03*
X-144838Y-430715D02*
D03*
X-152418Y-445875D02*
D03*
X-144838Y-461035D02*
D03*
X-152418Y-476195D02*
D03*
X-144838Y-491355D02*
D03*
X-152418Y-506515D02*
D03*
X-144838Y-521675D02*
D03*
X-152418Y-536835D02*
D03*
X-144838Y-551995D02*
D03*
X-152418Y-567155D02*
D03*
Y-1082595D02*
D03*
X-144838Y-1097755D02*
D03*
X-152418Y-1112915D02*
D03*
X-144838Y-1128074D02*
D03*
X-152418Y-1143234D02*
D03*
X-144838Y-1158394D02*
D03*
X-159998Y-430715D02*
D03*
X-167578Y-445875D02*
D03*
X-159998Y-461035D02*
D03*
X-167578Y-476195D02*
D03*
X-159998Y-491355D02*
D03*
X-167578Y-506515D02*
D03*
X-159998Y-521675D02*
D03*
X-167578Y-536835D02*
D03*
X-159998Y-551995D02*
D03*
X-167578Y-567155D02*
D03*
Y-1082595D02*
D03*
X-159998Y-1097755D02*
D03*
X-167578Y-1112915D02*
D03*
X-159998Y-1128074D02*
D03*
X-167578Y-1143234D02*
D03*
X-159998Y-1158394D02*
D03*
X-175158Y-430715D02*
D03*
X-182738Y-445875D02*
D03*
X-175158Y-461035D02*
D03*
Y-521675D02*
D03*
X-182738Y-567155D02*
D03*
X-175158Y-1128074D02*
D03*
X-190318Y-430715D02*
D03*
X-197898Y-445875D02*
D03*
X-190318Y-461035D02*
D03*
Y-1128074D02*
D03*
X-213058Y-445875D02*
D03*
X-205478Y-461035D02*
D03*
Y-1128074D02*
D03*
X-228218Y-1082595D02*
D03*
Y-1112915D02*
D03*
X-220638Y-1128074D02*
D03*
X-228218Y-1143234D02*
D03*
X-243378Y-1082595D02*
D03*
X-235798Y-1097755D02*
D03*
X-243378Y-1112915D02*
D03*
X-235798Y-1128074D02*
D03*
X-243378Y-1143234D02*
D03*
X-235798Y-1158394D02*
D03*
X-258538Y-1082595D02*
D03*
X-250958Y-1097755D02*
D03*
X-258538Y-1112915D02*
D03*
X-250958Y-1128074D02*
D03*
X-258538Y-1143234D02*
D03*
X-250958Y-1158394D02*
D03*
X-273698Y-1082595D02*
D03*
X-266118Y-1097755D02*
D03*
X-273698Y-1112915D02*
D03*
X-266118Y-1128074D02*
D03*
X-273698Y-1143234D02*
D03*
X-266118Y-1158394D02*
D03*
X-288858Y-1082595D02*
D03*
X-281278Y-1097755D02*
D03*
X-288858Y-1112915D02*
D03*
X-281278Y-1128074D02*
D03*
X-288858Y-1143234D02*
D03*
X-281278Y-1158394D02*
D03*
X-304018Y-1082595D02*
D03*
X-296438Y-1097755D02*
D03*
X-304018Y-1112915D02*
D03*
X-296438Y-1128074D02*
D03*
X-304018Y-1143234D02*
D03*
X-296438Y-1158394D02*
D03*
X-319178Y-1082595D02*
D03*
X-311598Y-1097755D02*
D03*
X-319178Y-1112915D02*
D03*
X-311598Y-1128074D02*
D03*
X-319178Y-1143234D02*
D03*
X-311598Y-1158394D02*
D03*
X-334338Y-1082595D02*
D03*
X-326758Y-1097755D02*
D03*
X-334338Y-1112915D02*
D03*
X-326758Y-1128074D02*
D03*
X-334338Y-1143234D02*
D03*
X-326758Y-1158394D02*
D03*
X-349498Y-1082595D02*
D03*
X-341918Y-1097755D02*
D03*
X-349498Y-1112915D02*
D03*
X-341918Y-1128074D02*
D03*
X-349498Y-1143234D02*
D03*
X-341918Y-1158394D02*
D03*
X-364658Y-445875D02*
D03*
Y-476195D02*
D03*
Y-506515D02*
D03*
Y-536835D02*
D03*
Y-1082595D02*
D03*
X-357078Y-1097755D02*
D03*
X-364658Y-1112915D02*
D03*
X-357078Y-1128074D02*
D03*
X-364658Y-1143234D02*
D03*
X-357078Y-1158394D02*
D03*
X-379818Y-415555D02*
D03*
X-372238Y-430715D02*
D03*
X-379818Y-445875D02*
D03*
X-372238Y-461035D02*
D03*
X-379818Y-476195D02*
D03*
X-372238Y-491355D02*
D03*
X-379818Y-506515D02*
D03*
X-372238Y-521675D02*
D03*
X-379818Y-536835D02*
D03*
X-372238Y-551995D02*
D03*
X-379818Y-567155D02*
D03*
X-372238Y-582315D02*
D03*
X-379818Y-1082595D02*
D03*
X-372238Y-1097755D02*
D03*
X-379818Y-1112915D02*
D03*
X-372238Y-1128074D02*
D03*
X-379818Y-1143234D02*
D03*
X-372238Y-1158394D02*
D03*
X-394978Y-415555D02*
D03*
X-387398Y-430715D02*
D03*
X-394978Y-445875D02*
D03*
X-387398Y-461035D02*
D03*
X-394978Y-476195D02*
D03*
X-387398Y-491355D02*
D03*
X-394978Y-506515D02*
D03*
X-387398Y-521675D02*
D03*
X-394978Y-536835D02*
D03*
X-387398Y-551995D02*
D03*
X-394978Y-567155D02*
D03*
X-387398Y-582315D02*
D03*
X-394978Y-1082595D02*
D03*
X-387398Y-1097755D02*
D03*
X-394978Y-1112915D02*
D03*
X-387398Y-1128074D02*
D03*
X-394978Y-1143234D02*
D03*
X-387398Y-1158394D02*
D03*
X-410138Y-415555D02*
D03*
X-402558Y-430715D02*
D03*
X-410138Y-445875D02*
D03*
X-402558Y-461035D02*
D03*
X-410138Y-476195D02*
D03*
X-402558Y-491355D02*
D03*
X-410138Y-506515D02*
D03*
X-402558Y-521675D02*
D03*
X-410138Y-536835D02*
D03*
X-402558Y-551995D02*
D03*
X-410138Y-567155D02*
D03*
X-402558Y-582315D02*
D03*
X-410138Y-1082595D02*
D03*
X-402558Y-1097755D02*
D03*
X-410138Y-1112915D02*
D03*
X-402558Y-1128074D02*
D03*
X-410138Y-1143234D02*
D03*
X-402558Y-1158394D02*
D03*
X-425298Y-415555D02*
D03*
X-417718Y-430715D02*
D03*
X-425298Y-445875D02*
D03*
X-417718Y-461035D02*
D03*
X-425298Y-476195D02*
D03*
X-417718Y-491355D02*
D03*
X-425298Y-506515D02*
D03*
X-417718Y-521675D02*
D03*
X-425298Y-536835D02*
D03*
X-417718Y-551995D02*
D03*
X-425298Y-567155D02*
D03*
X-417718Y-582315D02*
D03*
X-425298Y-1082595D02*
D03*
X-417718Y-1097755D02*
D03*
X-425298Y-1112915D02*
D03*
X-417718Y-1128074D02*
D03*
X-425298Y-1143234D02*
D03*
X-417718Y-1158394D02*
D03*
X-440458Y-415555D02*
D03*
X-432878Y-430715D02*
D03*
X-440458Y-445875D02*
D03*
X-432878Y-461035D02*
D03*
X-440458Y-476195D02*
D03*
X-432878Y-491355D02*
D03*
X-440458Y-506515D02*
D03*
X-432878Y-521675D02*
D03*
X-440458Y-536835D02*
D03*
X-432878Y-551995D02*
D03*
X-440458Y-567155D02*
D03*
X-432878Y-582315D02*
D03*
X-440458Y-1082595D02*
D03*
X-432878Y-1097755D02*
D03*
X-440458Y-1112915D02*
D03*
X-432878Y-1128074D02*
D03*
X-440458Y-1143234D02*
D03*
X-432878Y-1158394D02*
D03*
X-455618Y-415555D02*
D03*
X-448038Y-430715D02*
D03*
X-455618Y-445875D02*
D03*
X-448038Y-461035D02*
D03*
X-455618Y-476195D02*
D03*
X-448038Y-491355D02*
D03*
X-455618Y-506515D02*
D03*
X-448038Y-521675D02*
D03*
X-455618Y-536835D02*
D03*
X-448038Y-551995D02*
D03*
X-455618Y-567155D02*
D03*
X-448038Y-582315D02*
D03*
X-455618Y-1082595D02*
D03*
X-448038Y-1097755D02*
D03*
X-455618Y-1112915D02*
D03*
X-448038Y-1128074D02*
D03*
X-455618Y-1143234D02*
D03*
X-448038Y-1158394D02*
D03*
X-470778Y-415555D02*
D03*
X-463198Y-430715D02*
D03*
X-470778Y-445875D02*
D03*
X-463198Y-461035D02*
D03*
X-470778Y-476195D02*
D03*
X-463198Y-491355D02*
D03*
X-470778Y-506515D02*
D03*
X-463198Y-521675D02*
D03*
X-470778Y-536835D02*
D03*
X-463198Y-551995D02*
D03*
X-470778Y-567155D02*
D03*
X-463198Y-582315D02*
D03*
X-470778Y-1082595D02*
D03*
X-463198Y-1097755D02*
D03*
X-470778Y-1112915D02*
D03*
X-463198Y-1128074D02*
D03*
X-470778Y-1143234D02*
D03*
X-463198Y-1158394D02*
D03*
X-485938Y-415555D02*
D03*
X-478358Y-430715D02*
D03*
X-485938Y-445875D02*
D03*
X-478358Y-461035D02*
D03*
X-485938Y-476195D02*
D03*
X-478358Y-491355D02*
D03*
X-485938Y-506515D02*
D03*
X-478358Y-521675D02*
D03*
X-485938Y-536835D02*
D03*
X-478358Y-551995D02*
D03*
X-485938Y-567155D02*
D03*
X-478358Y-582315D02*
D03*
X-485938Y-1082595D02*
D03*
X-478358Y-1097755D02*
D03*
X-485938Y-1112915D02*
D03*
X-478358Y-1128074D02*
D03*
X-485938Y-1143234D02*
D03*
X-478358Y-1158394D02*
D03*
X-501098Y-415555D02*
D03*
X-493518Y-430715D02*
D03*
X-501098Y-445875D02*
D03*
X-493518Y-461035D02*
D03*
X-501098Y-476195D02*
D03*
X-493518Y-491355D02*
D03*
X-501098Y-506515D02*
D03*
X-493518Y-521675D02*
D03*
X-501098Y-536835D02*
D03*
X-493518Y-551995D02*
D03*
X-501098Y-567155D02*
D03*
X-493518Y-582315D02*
D03*
X-501098Y-1082595D02*
D03*
X-493518Y-1097755D02*
D03*
X-501098Y-1112915D02*
D03*
X-493518Y-1128074D02*
D03*
X-501098Y-1143234D02*
D03*
X-493518Y-1158394D02*
D03*
X-516258Y-415555D02*
D03*
X-508678Y-430715D02*
D03*
X-516258Y-445875D02*
D03*
X-508678Y-461035D02*
D03*
X-516258Y-476195D02*
D03*
X-508678Y-491355D02*
D03*
X-516258Y-506515D02*
D03*
X-508678Y-521675D02*
D03*
X-516258Y-536835D02*
D03*
X-508678Y-551995D02*
D03*
X-516258Y-567155D02*
D03*
X-508678Y-582315D02*
D03*
X-516258Y-1082595D02*
D03*
X-508678Y-1097755D02*
D03*
X-516258Y-1112915D02*
D03*
X-508678Y-1128074D02*
D03*
X-516258Y-1143234D02*
D03*
X-508678Y-1158394D02*
D03*
X-531418Y-415555D02*
D03*
X-523838Y-430715D02*
D03*
X-531418Y-445875D02*
D03*
X-523838Y-461035D02*
D03*
X-531418Y-476195D02*
D03*
X-523838Y-491355D02*
D03*
X-531418Y-506515D02*
D03*
X-523838Y-521675D02*
D03*
X-531418Y-536835D02*
D03*
X-523838Y-551995D02*
D03*
X-531418Y-567155D02*
D03*
X-523838Y-582315D02*
D03*
X-531418Y-1082595D02*
D03*
X-523838Y-1097755D02*
D03*
X-531418Y-1112915D02*
D03*
X-523838Y-1128074D02*
D03*
X-531418Y-1143234D02*
D03*
X-523838Y-1158394D02*
D03*
X-546577Y-415555D02*
D03*
X-538998Y-430715D02*
D03*
X-546577Y-445875D02*
D03*
X-538998Y-461035D02*
D03*
X-546577Y-476195D02*
D03*
X-538998Y-491355D02*
D03*
X-546577Y-506515D02*
D03*
X-538998Y-521675D02*
D03*
X-546577Y-536835D02*
D03*
X-538998Y-551995D02*
D03*
X-546577Y-567155D02*
D03*
X-538998Y-582315D02*
D03*
X-546577Y-1082595D02*
D03*
X-538998Y-1097755D02*
D03*
X-546577Y-1112915D02*
D03*
X-538998Y-1128074D02*
D03*
X-546577Y-1143234D02*
D03*
X-538998Y-1158394D02*
D03*
X-561738Y-415555D02*
D03*
X-554157Y-430715D02*
D03*
X-561738Y-445875D02*
D03*
X-554157Y-461035D02*
D03*
X-561738Y-476195D02*
D03*
X-554157Y-491355D02*
D03*
X-561738Y-506515D02*
D03*
X-554157Y-521675D02*
D03*
X-561738Y-536835D02*
D03*
X-554157Y-551995D02*
D03*
X-561738Y-567155D02*
D03*
Y-1082595D02*
D03*
X-554157Y-1097755D02*
D03*
X-561738Y-1112915D02*
D03*
X-554157Y-1128074D02*
D03*
X-561738Y-1143234D02*
D03*
X-554157Y-1158394D02*
D03*
X-576898Y-415555D02*
D03*
X-569318Y-430715D02*
D03*
X-576898Y-445875D02*
D03*
X-569318Y-461035D02*
D03*
X-576898Y-476195D02*
D03*
X-569318Y-491355D02*
D03*
X-576898Y-506515D02*
D03*
X-569318Y-521675D02*
D03*
X-576898Y-536835D02*
D03*
X-569318Y-551995D02*
D03*
X-576898Y-567155D02*
D03*
Y-1082595D02*
D03*
X-569318Y-1097755D02*
D03*
X-576898Y-1112915D02*
D03*
X-569318Y-1128074D02*
D03*
X-576898Y-1143234D02*
D03*
X-569318Y-1158394D02*
D03*
X-592057Y-415555D02*
D03*
X-584478Y-430715D02*
D03*
X-592057Y-445875D02*
D03*
X-584478Y-461035D02*
D03*
X-592057Y-476195D02*
D03*
X-584478Y-491355D02*
D03*
X-592057Y-506515D02*
D03*
X-584478Y-521675D02*
D03*
X-592057Y-536835D02*
D03*
X-584478Y-551995D02*
D03*
X-592057Y-567155D02*
D03*
Y-1082595D02*
D03*
X-584478Y-1097755D02*
D03*
X-592057Y-1112915D02*
D03*
X-584478Y-1128074D02*
D03*
X-592057Y-1143234D02*
D03*
X-584478Y-1158394D02*
D03*
X-607217Y-415555D02*
D03*
X-599637Y-430715D02*
D03*
X-607217Y-445875D02*
D03*
X-599637Y-461035D02*
D03*
X-607217Y-476195D02*
D03*
X-599637Y-491355D02*
D03*
X-607217Y-506515D02*
D03*
X-599637Y-521675D02*
D03*
X-607217Y-536835D02*
D03*
X-599637Y-551995D02*
D03*
X-607217Y-567155D02*
D03*
Y-1082595D02*
D03*
X-599637Y-1097755D02*
D03*
X-607217Y-1112915D02*
D03*
X-599637Y-1128074D02*
D03*
X-607217Y-1143234D02*
D03*
X-599637Y-1158394D02*
D03*
X-622378Y-415555D02*
D03*
X-614798Y-430715D02*
D03*
X-622378Y-445875D02*
D03*
X-614798Y-461035D02*
D03*
Y-521675D02*
D03*
X-622378Y-567155D02*
D03*
X-614798Y-1128074D02*
D03*
X-637537Y-415555D02*
D03*
X-629958Y-430715D02*
D03*
X-637537Y-445875D02*
D03*
X-629958Y-461035D02*
D03*
X-652698Y-415555D02*
D03*
X-645117Y-430715D02*
D03*
X-652698Y-445875D02*
D03*
X-645117Y-461035D02*
D03*
X-652698Y-567155D02*
D03*
X-667858Y-415555D02*
D03*
X-660277Y-430715D02*
D03*
X-667858Y-445875D02*
D03*
X-660277Y-461035D02*
D03*
X-667858Y-476195D02*
D03*
Y-506515D02*
D03*
X-660277Y-521675D02*
D03*
X-667858Y-536835D02*
D03*
Y-567155D02*
D03*
Y-1082595D02*
D03*
Y-1112915D02*
D03*
X-660277Y-1128074D02*
D03*
X-667858Y-1143234D02*
D03*
X-683018Y-415555D02*
D03*
X-675437Y-430715D02*
D03*
X-683018Y-445875D02*
D03*
X-675437Y-461035D02*
D03*
X-683018Y-476195D02*
D03*
X-675437Y-491355D02*
D03*
X-683018Y-506515D02*
D03*
X-675437Y-521675D02*
D03*
X-683018Y-536835D02*
D03*
X-675437Y-551995D02*
D03*
X-683018Y-567155D02*
D03*
Y-1082595D02*
D03*
X-675437Y-1097755D02*
D03*
X-683018Y-1112915D02*
D03*
X-675437Y-1128074D02*
D03*
X-683018Y-1143234D02*
D03*
X-675437Y-1158394D02*
D03*
X-698177Y-415555D02*
D03*
X-690598Y-430715D02*
D03*
X-698177Y-445875D02*
D03*
X-690598Y-461035D02*
D03*
X-698177Y-476195D02*
D03*
X-690598Y-491355D02*
D03*
X-698177Y-506515D02*
D03*
X-690598Y-521675D02*
D03*
X-698177Y-536835D02*
D03*
X-690598Y-551995D02*
D03*
X-698177Y-567155D02*
D03*
Y-1082595D02*
D03*
X-690598Y-1097755D02*
D03*
X-698177Y-1112915D02*
D03*
X-690598Y-1128074D02*
D03*
X-698177Y-1143234D02*
D03*
X-690598Y-1158394D02*
D03*
X-713337Y-415555D02*
D03*
X-705757Y-430715D02*
D03*
X-713337Y-445875D02*
D03*
X-705757Y-461035D02*
D03*
X-713337Y-476195D02*
D03*
X-705757Y-491355D02*
D03*
X-713337Y-506515D02*
D03*
X-705757Y-521675D02*
D03*
X-713337Y-536835D02*
D03*
X-705757Y-551995D02*
D03*
X-713337Y-567155D02*
D03*
Y-1082595D02*
D03*
X-705757Y-1097755D02*
D03*
X-713337Y-1112915D02*
D03*
X-705757Y-1128074D02*
D03*
X-713337Y-1143234D02*
D03*
X-705757Y-1158394D02*
D03*
X-728497Y-415555D02*
D03*
X-720917Y-430715D02*
D03*
X-728497Y-445875D02*
D03*
X-720917Y-461035D02*
D03*
X-728497Y-476195D02*
D03*
X-720917Y-491355D02*
D03*
X-728497Y-506515D02*
D03*
X-720917Y-521675D02*
D03*
X-728497Y-536835D02*
D03*
X-720917Y-551995D02*
D03*
X-728497Y-567155D02*
D03*
X-720917Y-1097755D02*
D03*
X-728497Y-1112915D02*
D03*
X-720917Y-1128074D02*
D03*
X-728497Y-1143234D02*
D03*
X-720917Y-1158394D02*
D03*
X-743657Y-415555D02*
D03*
X-736077Y-430715D02*
D03*
X-743657Y-445875D02*
D03*
X-736077Y-461035D02*
D03*
X-743657Y-476195D02*
D03*
X-736077Y-491355D02*
D03*
X-743657Y-506515D02*
D03*
X-736077Y-521675D02*
D03*
X-743657Y-536835D02*
D03*
X-736077Y-551995D02*
D03*
X-743657Y-567155D02*
D03*
X-736077Y-1097755D02*
D03*
Y-1128074D02*
D03*
X-758817Y-415555D02*
D03*
X-751237Y-430715D02*
D03*
X-758817Y-445875D02*
D03*
X-751237Y-461035D02*
D03*
X-758817Y-476195D02*
D03*
X-751237Y-491355D02*
D03*
X-758817Y-506515D02*
D03*
X-751237Y-521675D02*
D03*
X-758817Y-536835D02*
D03*
X-751237Y-551995D02*
D03*
X-758817Y-567155D02*
D03*
X-766397Y-430715D02*
D03*
X-773977Y-445875D02*
D03*
X-766397Y-461035D02*
D03*
X-773977Y-476195D02*
D03*
X-766397Y-491355D02*
D03*
X-773977Y-506515D02*
D03*
X-766397Y-521675D02*
D03*
X-773977Y-536835D02*
D03*
X-766397Y-551995D02*
D03*
X-1259097Y-370075D02*
D03*
Y-400395D02*
D03*
Y-430715D02*
D03*
Y-461035D02*
D03*
Y-491355D02*
D03*
Y-521675D02*
D03*
Y-551995D02*
D03*
Y-582315D02*
D03*
Y-612635D02*
D03*
X-1266677Y-263955D02*
D03*
Y-354915D02*
D03*
X-1274257Y-370075D02*
D03*
X-1266677Y-385235D02*
D03*
X-1274257Y-400395D02*
D03*
X-1266677Y-415555D02*
D03*
X-1274257Y-430715D02*
D03*
X-1266677Y-445875D02*
D03*
X-1274257Y-461035D02*
D03*
X-1266677Y-476195D02*
D03*
X-1274257Y-491355D02*
D03*
X-1266677Y-506515D02*
D03*
X-1274257Y-521675D02*
D03*
X-1266677Y-536835D02*
D03*
X-1274257Y-551995D02*
D03*
X-1266677Y-567155D02*
D03*
X-1274257Y-582315D02*
D03*
X-1266677Y-597475D02*
D03*
X-1274257Y-612635D02*
D03*
X-1266677Y-627795D02*
D03*
X-1274257Y-642955D02*
D03*
X-1281837Y-263955D02*
D03*
X-1289417Y-309435D02*
D03*
Y-339755D02*
D03*
X-1281837Y-354915D02*
D03*
X-1289417Y-370075D02*
D03*
X-1281837Y-385235D02*
D03*
X-1289417Y-400395D02*
D03*
X-1281837Y-415555D02*
D03*
X-1289417Y-430715D02*
D03*
X-1281837Y-445875D02*
D03*
X-1289417Y-461035D02*
D03*
X-1281837Y-476195D02*
D03*
X-1289417Y-491355D02*
D03*
X-1281837Y-506515D02*
D03*
X-1289417Y-521675D02*
D03*
X-1281837Y-536835D02*
D03*
X-1289417Y-551995D02*
D03*
X-1281837Y-567155D02*
D03*
X-1289417Y-582315D02*
D03*
X-1281837Y-597475D02*
D03*
X-1289417Y-612635D02*
D03*
X-1281837Y-627795D02*
D03*
X-1289417Y-642955D02*
D03*
X-1296997Y-263955D02*
D03*
X-1304577Y-279115D02*
D03*
X-1296997Y-294275D02*
D03*
X-1304577Y-309435D02*
D03*
X-1296997Y-324595D02*
D03*
X-1304577Y-339755D02*
D03*
X-1296997Y-354915D02*
D03*
X-1304577Y-370075D02*
D03*
X-1296997Y-385235D02*
D03*
X-1304577Y-400395D02*
D03*
X-1296997Y-415555D02*
D03*
X-1304577Y-430715D02*
D03*
X-1296997Y-445875D02*
D03*
X-1304577Y-461035D02*
D03*
X-1296997Y-476195D02*
D03*
X-1304577Y-491355D02*
D03*
X-1296997Y-506515D02*
D03*
X-1304577Y-521675D02*
D03*
X-1296997Y-536835D02*
D03*
X-1304577Y-551995D02*
D03*
X-1296997Y-567155D02*
D03*
X-1304577Y-582315D02*
D03*
X-1296997Y-597475D02*
D03*
X-1304577Y-612635D02*
D03*
X-1296997Y-627795D02*
D03*
X-1304577Y-642955D02*
D03*
X-1312157Y-263955D02*
D03*
X-1319737Y-279115D02*
D03*
X-1312157Y-294275D02*
D03*
X-1319737Y-309435D02*
D03*
X-1312157Y-324595D02*
D03*
X-1319737Y-339755D02*
D03*
X-1312157Y-354915D02*
D03*
X-1319737Y-370075D02*
D03*
X-1312157Y-385235D02*
D03*
X-1319737Y-400395D02*
D03*
X-1312157Y-415555D02*
D03*
X-1319737Y-430715D02*
D03*
X-1312157Y-445875D02*
D03*
X-1319737Y-461035D02*
D03*
X-1312157Y-476195D02*
D03*
X-1319737Y-491355D02*
D03*
X-1312157Y-506515D02*
D03*
X-1319737Y-521675D02*
D03*
X-1312157Y-536835D02*
D03*
X-1319737Y-551995D02*
D03*
X-1312157Y-567155D02*
D03*
X-1319737Y-582315D02*
D03*
X-1312157Y-597475D02*
D03*
X-1319737Y-612635D02*
D03*
X-1312157Y-627795D02*
D03*
X-1319737Y-642955D02*
D03*
X-1327317Y-263955D02*
D03*
X-1334897Y-279115D02*
D03*
X-1327317Y-294275D02*
D03*
X-1334897Y-309435D02*
D03*
X-1327317Y-324595D02*
D03*
X-1334897Y-339755D02*
D03*
X-1327317Y-354915D02*
D03*
X-1334897Y-430715D02*
D03*
X-1327317Y-445875D02*
D03*
X-1334897Y-461035D02*
D03*
X-1327317Y-476195D02*
D03*
X-1334897Y-491355D02*
D03*
X-1327317Y-506515D02*
D03*
X-1334897Y-521675D02*
D03*
X-1327317Y-536835D02*
D03*
X-1334897Y-551995D02*
D03*
X-1327317Y-567155D02*
D03*
X-1334897Y-582315D02*
D03*
X-1327317Y-597475D02*
D03*
X-1334897Y-612635D02*
D03*
X-1327317Y-627795D02*
D03*
X-1334897Y-642955D02*
D03*
X-1342477Y-263955D02*
D03*
X-1350057Y-279115D02*
D03*
X-1342477Y-294275D02*
D03*
X-1350057Y-309435D02*
D03*
X-1342477Y-324595D02*
D03*
X-1350057Y-339755D02*
D03*
X-1342477Y-445875D02*
D03*
X-1350057Y-461035D02*
D03*
X-1342477Y-476195D02*
D03*
X-1350057Y-491355D02*
D03*
X-1342477Y-506515D02*
D03*
X-1350057Y-521675D02*
D03*
X-1342477Y-536835D02*
D03*
X-1350057Y-551995D02*
D03*
X-1342477Y-567155D02*
D03*
X-1350057Y-582315D02*
D03*
X-1342477Y-597475D02*
D03*
X-1350057Y-612635D02*
D03*
X-1342477Y-627795D02*
D03*
X-1350057Y-642955D02*
D03*
X-1357637Y-263955D02*
D03*
X-1365217Y-279115D02*
D03*
X-1357637Y-294275D02*
D03*
X-1365217Y-309435D02*
D03*
X-1357637Y-324595D02*
D03*
X-1365217Y-339755D02*
D03*
Y-461035D02*
D03*
X-1357637Y-476195D02*
D03*
X-1365217Y-491355D02*
D03*
X-1357637Y-506515D02*
D03*
X-1365217Y-521675D02*
D03*
X-1357637Y-536835D02*
D03*
X-1365217Y-551995D02*
D03*
X-1357637Y-567155D02*
D03*
X-1365217Y-582315D02*
D03*
X-1357637Y-597475D02*
D03*
X-1365217Y-612635D02*
D03*
X-1357637Y-627795D02*
D03*
X-1365217Y-642955D02*
D03*
X-1372797Y-263955D02*
D03*
X-1380377Y-279115D02*
D03*
X-1372797Y-294275D02*
D03*
X-1380377Y-309435D02*
D03*
X-1372797Y-324595D02*
D03*
X-1380377Y-339755D02*
D03*
Y-461035D02*
D03*
X-1372797Y-476195D02*
D03*
X-1380377Y-491355D02*
D03*
X-1372797Y-506515D02*
D03*
X-1380377Y-521675D02*
D03*
X-1372797Y-536835D02*
D03*
X-1380377Y-551995D02*
D03*
X-1372797Y-567155D02*
D03*
X-1380377Y-582315D02*
D03*
X-1372797Y-597475D02*
D03*
X-1380377Y-612635D02*
D03*
X-1372797Y-627795D02*
D03*
X-1380377Y-642955D02*
D03*
X-1387957Y-263955D02*
D03*
X-1395537Y-279115D02*
D03*
X-1387957Y-294275D02*
D03*
X-1395537Y-309435D02*
D03*
X-1387957Y-324595D02*
D03*
X-1395537Y-339755D02*
D03*
Y-461035D02*
D03*
X-1387957Y-476195D02*
D03*
X-1395537Y-491355D02*
D03*
X-1387957Y-506515D02*
D03*
X-1395537Y-521675D02*
D03*
X-1387957Y-536835D02*
D03*
X-1395537Y-551995D02*
D03*
X-1387957Y-567155D02*
D03*
X-1395537Y-582315D02*
D03*
X-1387957Y-597475D02*
D03*
X-1395537Y-612635D02*
D03*
X-1387957Y-627795D02*
D03*
X-1395537Y-642955D02*
D03*
X-1403117Y-263955D02*
D03*
X-1410697Y-279115D02*
D03*
X-1403117Y-294275D02*
D03*
X-1410697Y-309435D02*
D03*
X-1403117Y-324595D02*
D03*
X-1410697Y-339755D02*
D03*
X-1403117Y-445875D02*
D03*
X-1410697Y-461035D02*
D03*
X-1403117Y-476195D02*
D03*
X-1410697Y-491355D02*
D03*
X-1403117Y-506515D02*
D03*
X-1410697Y-521675D02*
D03*
X-1403117Y-536835D02*
D03*
X-1410697Y-551995D02*
D03*
X-1403117Y-567155D02*
D03*
X-1410697Y-582315D02*
D03*
X-1403117Y-597475D02*
D03*
X-1410697Y-612635D02*
D03*
X-1403117Y-627795D02*
D03*
X-1418277Y-294275D02*
D03*
Y-324595D02*
D03*
Y-354915D02*
D03*
Y-445875D02*
D03*
Y-476195D02*
D03*
Y-506515D02*
D03*
Y-536835D02*
D03*
Y-567155D02*
D03*
Y-597475D02*
D03*
Y-627795D02*
D03*
M02*
