M48
;Layer_Color=9474304
;FILE_FORMAT=2:5
INCH,LZ
;TYPE=PLATED
T1F00S00C0.01500
T2F00S00C0.02756
T3F00S00C0.03346
T4F00S00C0.03543
T5F00S00C0.03937
T6F00S00C0.04000
T7F00S00C0.04331
T8F00S00C0.05512
T9F00S00C0.05906
T10F00S00C0.07874
T11F00S00C0.08000
T12F00S00C0.08268
T13F00S00C0.13780
T14F00S00C0.17717
%
T01
X0116064Y-0456061
X0122032
X0128001
X0133969
X0139938
X0145906
X014889Y-0450092
X0154859
X0157843Y-0444124
X0151875
X0145906
X0139938
X0133969
X0128001
X0122032
X0116064
X0119048Y-0438155
X0125016
X0130985
X0136953
X0142922
X014889
X0154859
X0160828
X0166796
X016978Y-0432187
X0163812
X0157843
X0151875
X0145906
X0139938
X0133969
X0128001
X0122032
X0116064
X0119048Y-0426218
X0125016
X0130985
X0136953
X0142922
X014889
X0154859
X0160828
X0166796
X0163812Y-0402344
X0157843
X0151875
X0145906
X0139938
X0133969
X0128001
X0122032
X0116064
X0119048Y-0396376
X0125016
X0130985
X0136953
X0142922
X014889
X0154859
X0160828
X0166796
X0172765
X0175749Y-0390407
X016978
X0163812
X0157843
X0151875
X0145906
X0139938
X0133969
X0128001
X0122032
X0116064
X0119048Y-0384439
X0125016
X0130985
X0136953
X0142922
X014889
X0154859
X0160828
X0166796
X0172765
X0175749Y-037847
X016978
X0163812
X0157843
X0151875
X0145906
X0139938
X0133969
X0128001
X0122032
X0116064
X0119048Y-0372502
X0125016
X0130985
X0136953
X0142922
X014889
X0154859
X0160828
X0166796
X0172765
X0175749Y-0366533
X016978
X0163812
X0157843
X0151875
X0145906
X0139938
X0133969
X0128001
X0122032
X0116064
X0119048Y-0360565
X0125016
X0130985
X0136953
X0142922
X014889
X0154859
X0160828
X0166796
X0172765
X0175749Y-0354596
X016978
X0163812
X0157843
X0151875
X0145906
X0139938
X0133969
X0128001
X0122032
X0116064
X0119048Y-0348628
X0125016
X0130985
X0136953
X0142922
X014889
X0154859
X0160828
X0166796
X0172765
X0175749Y-0342659
X016978
X0163812
X0157843
X0151875
X0145906
X0139938
X0133969
X0128001
X0122032
X0116064
X0119048Y-0336691
X0125016
X0130985
X0136953
X0142922
X014889
X0154859
X0160828
X0166796
X0172765
X0175749Y-0330722
X016978
X0163812
X0157843
X0151875
X0145906
X0139938
X0133969
X0128001
X0122032
X0116064
X0119048Y-0324754
X0125016
X0130985
X0136953
X0142922
X014889
X0154859
X0160828
X0166796
X0172765
X016978Y-0318785
X0163812
X0157843
X0151875
X0145906
X0139938
X0133969
X0128001
X0122032
X0116064
X011308Y-0324754
Y-0336691
Y-0348628
Y-0360565
Y-0372502
Y-0384439
Y-0396376
Y-0426218
Y-0438155
Y-0450092
X0119048
X0125016
X0130985
X0136953
X0142922
X0217528
X0220513Y-0444124
X0217528Y-0438155
X0220513Y-0432187
X0223497Y-0426218
X0229465
X023245Y-042025
X0238418
X0244387
X0250355
X0256324
X0262292
X0259308Y-0414281
X0253339
X0247371
X0241402
X0235434
X0229465
X0223497
X0217528
X0220513Y-0408313
X0226481
X023245
X0238418
X0244387
X0250355
X0256324
X0262292
X0259308Y-0402344
X0253339
X0247371
X0241402
X0235434
X0229465
X0223497
X0217528
X0220513Y-0396376
X0226481
X023245
X0238418
X0244387
X0250355
X0256324
X0262292
X0259308Y-0390407
X0253339
X0247371
X0241402
X0235434
X0229465
X0223497
X0217528
X0220513Y-0384439
X0226481
X023245
X0238418
X0244387
X0250355
X0256324
X0262292
X0259308Y-037847
X0253339
X0247371
X0241402
X0235434
X0229465
X0223497
X0217528
X0220513Y-0372502
X0226481
X023245
X0238418
X0244387
X0250355
X0256324
X0262292
X0259308Y-0366533
X0253339
X0247371
X0241402
X0235434
X0229465
X023245Y-0360565
X0238418
X0244387
X0250355
X0256324
X0262292
X0259308Y-0354596
X0253339
X0247371
X0241402
X0235434
X0229465
X0223497
X0217528
X0220513Y-0348628
X0226481
X023245
X0238418
X0244387
X0250355
X0256324
X0262292
X0241402Y-0342659
X0235434
X0229465
X0223497
X0217528Y-0366533
X0220513Y-042025
X0226481
X0217528Y-0426218
X0220513Y-0456061
X0223497Y-0462029
X0229465
X023245Y-0467998
X0238418
X0244387
X0250355
X0256324
X0259308Y-0462029
X0262292Y-0456061
Y-0432187
X0259308Y-0426218
X0226481Y-0467998
X0220513
X0217528Y-0462029
X0110095Y-0456061
X0107111Y-0450092
X0110095Y-0444124
X0104127
X0098158
X009219
X0086221
X0080253
X0074284
X0068316
X0062347
X0056379
X005041
X0044442
X0038473
X0032505
X0026536
X0020568
X0014599
X0008631
X0002662
X-0003306
X-0009275
X-0015243
X-0021212
X-002718
X-0033149
X-0039117
X-0036133Y-0438155
X-0030165
X-0024196
X-0018227
X-0012259
X-000629
X-0000322
X0005646
X0011615
X0017583
X0023552
X002952
X0035489
X0041458
X0047426
X0053395
X0059363
X0065332
X00713
X0077268
X0083237
X0086221Y-0432187
X0080253
X0074284
X0068316
X0062347
X0056379
X005041
X0044442
X0038473
X0032505
X0026536
X0020568
X0014599
X0008631
X0002662
X-0003306
X-0009275
X-0015243
X-0021212
X-002718
X-0033149
X-0039117
X-0036133Y-0426218
X-0030165
X-0024196
X-0018227
X-0012259
X-000629
X-0000322
X0005646
X0011615
X0017583
X0023552
X002952
X0035489
X0041458
X0047426
X0053395
X0059363
X0065332
X00713
X0077268
X0083237
X0089205
X0107111
X0110095Y-0432187
X0107111Y-0438155
X0083237Y-0450092
X0077268
X00713
X0065332
X0059363
X0053395
X0047426
X0041458
X0035489
X002952
X0023552
X0017583
X0011615
X0005646
X-0000322
X-000629
X-0012259
X-0018227
X-0024196
X-0030165
X-0036133
X-0042101
X-0039117Y-0456061
X-0033149
X-002718
X-0021212
X-0015243
X-0009275
X-0003306
X0002662
X0008631
X0014599
X0020568
X0026536
X0032505
X0038473
X0044442
X005041
X0056379
X0062347
X0068316
X0074284
X0080253
X0086221
Y-0402344
X0080253
X0074284
X0068316
X0062347
X0056379
X005041
X0044442
X0038473
X0032505
X0026536
X0020568
X0014599
X0008631
X0002662
X-0003306
X-0009275
X-0015243
X-0021212
X-002718
X-0033149
X-0039117
X-0036133Y-0396376
X-0030165
X-0024196
X-0018227
X-0012259
X-000629
X-0000322
X0005646
X0011615
X0017583
X0023552
X002952
X0035489
X0041458
X0047426
X0053395
X0059363
X0065332
X00713
X0077268
X0083237
X0086221Y-0390407
X0080253
X0074284
X0068316
X0062347
X0056379
X005041
X0044442
X0038473
X0032505
X0026536
X0020568
X0014599
X0008631
X0002662
X-0003306
X-0009275
X-0015243
X-0021212
X-002718
X-0033149
X-0039117
X-0036133Y-0384439
X-0030165
X-0024196
X-0018227
X-0012259
X-000629
X-0000322
X0005646
X0011615
X0017583
X0023552
X002952
X0035489
X0041458
X0047426
X0053395
X0059363
X0065332
X00713
X0077268
X0083237
X0089205
X009219Y-037847
X0098158
X0104127
X0110095
X0107111Y-0372502
X0110095Y-0366533
X0107111Y-0360565
X0110095Y-0354596
X0104127
X0098158
X009219
X0086221
X0080253
X0074284
X0068316
X0062347
X0056379
X005041
X0044442
X0038473
X0032505
X0026536
X0020568
X0014599
X0008631
X0002662
X-0003306
X-0009275
X-0015243
X-0021212
X-002718
X-0033149
X-0039117
X-0036133Y-0348628
X-0030165
X-0024196
X-0018227
X-0012259
X-000629
X-0000322
X0005646
X0011615
X0017583
X0023552
X002952
X0035489
X0041458
X0047426
X0053395
X0059363
X0065332
X00713
X0077268
X0083237
X0089205
X0095174
X0101143
X0107111
X0110095Y-0342659
X0104127
X0098158
X009219
X0086221
X0080253
X0074284
X0068316
X0062347
X0056379
X005041
X0044442
X0038473
X0032505
X0026536
X0020568
X0014599
X0008631
X0002662
X-0003306
X-0009275
X-0015243
X-0021212
X-002718
X-0033149
X-0039117
X-0036133Y-0336691
X-0030165
X-0024196
X-0018227
X-0012259
X-000629
X-0000322
X0005646
X0011615
X0017583
X0023552
X002952
X0035489
X0041458
X0047426
X0053395
X0059363
X0065332
X00713
X0077268
X0083237
X0089205
X0095174
X0101143
X0107111
X0110095Y-0330722
X0104127
X0098158
X009219
X0086221
X0080253
X0074284
X0068316
X0062347
X0056379
X005041
X0044442
X0038473
X0032505
X0026536
X0020568
X0014599
X0008631
X0002662
X-0003306
X-0009275
X-0015243
X-0021212
X-002718
X-0033149
X-0039117
X-0036133Y-0324754
X-0030165
X-0024196
X-0018227
X-0012259
X-000629
X-0000322
X0005646
X0011615
X0017583
X0023552
X002952
X0035489
X0041458
X0047426
X0053395
X0059363
X0065332
X00713
X0077268
X0083237
X0089205
X0095174
X0101143
X0107111
X0110095Y-0318785
X0104127
X0098158
X009219
X0086221
X0080253
X0074284
X0068316
X0062347
X0056379
X005041
X0044442
X0038473
X0032505
X0026536
X0020568
X0014599
X0008631
X0002662
X-0003306
X-0009275
X-0015243
X-0021212
X-002718
X-0033149
X-0039117
X-0042101Y-0324754
Y-0336691
Y-0348628
Y-0360565
X-0036133
X-0030165
X-0024196
X-0018227
X-0012259
X-000629
X-0000322
X0005646
X0011615
X0017583
X0023552
X002952
X0035489
X0041458
X0047426
X0053395
X0059363
X0065332
X00713
X0077268
X0083237
X0086221Y-0366533
X0080253
X0074284
X0068316
X0062347
X0056379
X005041
X0044442
X0038473
X0032505
X0026536
X0020568
X0014599
X0008631
X0002662
X-0003306
X-0009275
X-0015243
X-0021212
X-002718
X-0033149
X-0039117
X-0036133Y-0372502
X-0030165
X-0024196
X-0018227
X-0012259
X-000629
X-0000322
X0005646
X0011615
X0017583
X0023552
X002952
X0035489
X0041458
X0047426
X0053395
X0059363
X0065332
X00713
X0077268
X0083237
X0086221Y-037847
X0080253
X0074284
X0068316
X0062347
X0056379
X005041
X0044442
X0038473
X0032505
X0026536
X0020568
X0014599
X0008631
X0002662
X-0003306
X-0009275
X-0015243
X-0021212
X-002718
X-0033149
X-0039117
X-0042101Y-0372502
Y-0384439
Y-0396376
Y-0426218
Y-0438155
X0104127Y-0402344
X0110095
X0107111Y-0396376
X0110095Y-0390407
X0107111Y-0384439
X0101143
X-004807
X-0054039
X-0060007
X-0065975
X-0071944
X-006896Y-037847
X-0062991
X-0057023
X-0051054
X-0045086
X-004807Y-0372502
X-0054039
X-0060007
X-0065975
X-0062991Y-0366533
X-0057023
X-0051054
X-0045086
X-004807Y-0360565
X-0054039
X-0060007
X-0065975
X-0062991Y-0354596
X-0057023
X-0051054
X-0045086
X-004807Y-0348628
X-0054039
X-0060007
X-0065975
X-0071944
X-0077912
X-0083881
X-008985
X-0095818
X-0101786
X-0107755
X-0104771Y-0342659
X-0098802
X-0092834
X-0086865
X-0080897
X-0074928
X-006896
X-0062991
X-0057023
X-0051054
X-0045086
X-004807Y-0336691
X-0054039
X-0060007
X-0065975
X-0071944
X-0077912
X-0083881
X-008985
X-0095818
X-0101786
X-0107755
X-0104771Y-0330722
X-0098802
X-0092834
X-0086865
X-0080897
X-0074928
X-006896
X-0062991
X-0057023
X-0051054
X-0045086
X-004807Y-0324754
X-0054039
X-0060007
X-0065975
X-0071944
X-0077912
X-0083881
X-008985
X-0095818
X-0101786
X-0107755
X-0104771Y-0318785
X-0098802
X-0092834
X-0086865
X-0080897
X-0074928
X-006896
X-0062991
X-0057023
X-0051054
X-0045086
X-006896Y-0354596
X-0074928
X-0080897
X-0086865
X-0092834
X-0098802
X-0104771
X-0101786Y-0360565
X-0095818
X-008985
X-0092834Y-0366533
X-0098802
X-0104771
X-0101786Y-0372502
X-0095818
X-008985
X-0086865Y-037847
X-0080897
X-0074928
X-0083881Y-0384439
X-008985
X-0095818
X-0101786
X-0107755
X-0104771Y-037847
X-0098802
X-0092834
Y-0390407
X-0098802
X-0104771
X-0101786Y-0396376
X-0095818
X-008985
X-0086865Y-0402344
X-0092834
X-0098802
X-0095818Y-0426218
X-008985
X-0092834Y-0432187
X-0098802
X-0104771
X-0110739
X-0116708
X-0122676
X-0128645
X-0134613
X-0140582
X-014655
X-0152519
X-0158487
X-0164456
X-0170424
X-0176393
X-0182361
X-018833
X-0194298
X-0191314Y-0426218
X-0185345
X-0179377
X-0173408
X-016744
X-0161471
X-0155503
X-0149534
X-0143566
X-0137598
X-0131629
X-0125661
X-0119692
X-0113724
X-0107755
X-0101786
Y-0438155
X-0095818
X-008985
X-0086865Y-0444124
X-0080897
X-0074928
X-006896
X-0062991
X-0057023
X-0051054
X-0045086
X-004807Y-0438155
X-0054039
X-0060007
X-0065975
X-0062991Y-0432187
X-0057023
X-0051054
X-0045086
X-004807Y-0426218
X-0054039
X-0060007
X-0065975
Y-0450092
X-0060007
X-0054039
X-004807
X-0045086Y-0456061
X-0051054
X-0057023
X-0062991
X-0092834
X-0098802
X-0104771
X-0110739
X-0116708
X-0122676
X-0128645
X-0134613
X-0140582
X-014655
X-0152519
X-0158487
X-0164456
X-0170424
X-0176393
X-0182361
X-018833
X-0194298
X-0191314Y-0450092
X-0185345
X-0179377
X-0173408
X-016744
X-0161471
X-0155503
X-0149534
X-0143566
X-0137598
X-0131629
X-0125661
X-0119692
X-0113724
X-0107755
X-0101786
X-0095818
X-008985
X-0092834Y-0444124
X-0098802
X-0104771
X-0110739
X-0116708
X-0122676
X-0128645
X-0134613
X-0140582
X-014655
X-0152519
X-0158487
X-0164456
X-0170424
X-0176393
X-0182361
X-018833
X-0194298
X-0191314Y-0438155
X-0185345
X-0179377
X-0173408
X-016744
X-0161471
X-0155503
X-0149534
X-0143566
X-0137598
X-0131629
X-0125661
X-0119692
X-0113724
X-0107755
Y-0372502
Y-0360565
X-0062991Y-0390407
X-0057023
X-0051054
X-0045086
X-004807Y-0396376
X-0054039
X-0060007
X-0065975
X-0062991Y-0402344
X-0057023
X-0051054
X-0045086
X-006896
X-0197283Y-0426218
Y-0438155
Y-0450092
X-0203251
X-020922
X-0215188
X-0221157
X-0227125
X-0233094
X-0239062
X-0236078Y-0444124
X-0230109
X-0224141
X-0218172
X-0212204
X-0206235
X-0200267
X-0203251Y-0438155
X-020922
X-0215188
X-0221157
X-0227125
X-0233094
X-0239062
X-0236078Y-0432187
X-0230109
X-0224141
X-0218172
X-0212204
X-0206235
X-0200267
X-0203251Y-0426218
X-020922
X-0215188
X-0221157
X-0227125
X-0233094
X-0239062
X-0242046Y-0444124
X-0236078Y-0456061
X-0230109
X-0224141
X-0218172
X-0212204
X-0206235
X-0200267
X-026592
X-0271889
X-0277857
X-0283826
X-0280841Y-0450092
X-0274873
X-0268904
X-0262936
X-0259952Y-0444124
X-026592
X-0271889
X-0277857
X-0283826
X-0289794
X-028681Y-0438155
X-0280841
X-0274873
X-0268904
X-0262936
X-026592Y-0432187
X-0271889
X-0277857
X-0283826
X-0289794
X-0280841Y-0426218
X-0274873
X-0268904
X-0262936
X-0259952Y-0402344
X-026592
X-0271889
X-0277857
X-0283826
X-0289794
X-0295763
X-0292778Y-0396376
X-028681
X-0280841
X-0274873
X-0268904
X-0262936
X-026592Y-0390407
X-0271889
X-0277857
X-0283826
X-0289794
X-0295763
X-0301731
X-03077
X-0304715Y-0384439
X-0298747
X-0292778
X-028681
X-0280841
X-0274873
X-0268904
X-0262936
X-0256967
X-0253983Y-037847
X-0248015
X-0242046
X-0236078
X-0230109
X-0224141
X-0227125Y-0372502
X-0233094
X-0239062
X-0236078Y-0366533
X-0230109
X-0224141
X-0227125Y-0360565
X-0233094
X-0239062
X-0236078Y-0354596
X-0230109
X-0224141
X-0227125Y-0348628
X-0233094
X-0239062
X-024503
X-0250999
X-0256967
X-0262936
X-0268904
X-0274873
X-0280841
X-028681
X-0292778
X-0298747
X-0304715
X-0310684
X-0316652
X-0322621
X-032859
X-0334558
X-0340527
X-0346495
X-0352464
X-0349479Y-0342659
X-0343511
X-0337542
X-0331574
X-0325605
X-0319637
X-0313668
X-03077
X-0301731
X-0295763
X-0289794
X-0283826
X-0277857
X-0271889
X-026592
X-0259952
X-0253983
X-0248015
X-0242046
X-0236078
X-0230109
X-0224141
X-0227125Y-0336691
X-0233094
X-0239062
X-024503
X-0250999
X-0256967
X-0262936
X-0268904
X-0274873
X-0280841
X-028681
X-0292778
X-0298747
X-0304715
X-0310684
X-0316652
X-0322621
X-032859
X-0334558
X-0340527
X-0346495
X-0352464
X-0349479Y-0330722
X-0343511
X-0337542
X-0331574
X-0325605
X-0319637
X-0313668
X-03077
X-0301731
X-0295763
X-0289794
X-0283826
X-0277857
X-0271889
X-026592
X-0259952
X-0253983
X-0248015
X-0242046
X-0236078
X-0230109
X-0224141
X-0227125Y-0324754
X-0233094
X-0239062
X-024503
X-0250999
X-0256967
X-0262936
X-0268904
X-0274873
X-0280841
X-028681
X-0292778
X-0298747
X-0304715
X-0310684
X-0316652
X-0322621
X-032859
X-0334558
X-0340527
X-0346495
X-0352464
X-0349479Y-0318785
X-0343511
X-0337542
X-0331574
X-0325605
X-0319637
X-0313668
X-03077
X-0301731
X-0295763
X-0289794
X-0283826
X-0277857
X-0271889
X-026592
X-0259952
X-0253983
X-0248015
X-0242046
X-0236078
X-0230109
X-0224141
X-0242046Y-0354596
X-0248015
X-0253983
X-0259952
X-026592
X-0271889
X-0277857
X-0283826
X-0289794
X-0295763
X-0301731
X-03077
X-0313668
X-0310684Y-0360565
X-0304715
X-0298747
X-0292778
X-028681
X-0280841
X-0274873
X-0268904
X-0262936
X-026592Y-0366533
X-0271889
X-0277857
X-0283826
X-0289794
X-0295763
X-0301731
X-03077
X-0304715Y-0372502
X-0298747
X-0292778
X-028681
X-0280841
X-0274873
X-0268904
X-0262936
X-0259952Y-037847
X-026592
X-0271889
X-0277857
X-0283826
X-0289794
X-0295763
X-0301731
X-03077
X-0304715Y-0396376
X-0298747
X-0239062
X-0233094
X-0227125
X-0224141Y-0390407
X-0230109
X-0236078
X-0233094Y-0384439
X-0227125
X-0239062
X-024503
X-0242046Y-0402344
X-0236078
X-028681Y-0450092
X-0355448Y-0342659
Y-0330722
Y-0318785
X-0361416
X-0367385
X-0373353
X-0379322
X-038529
X-0391259
X-0397227
X-0403196
X-0409164
X-040618Y-0324754
X-0400211
X-0394243
X-0388275
X-0382306
X-0376338
X-0370369
X-0364401
X-0358432
X-0361416Y-0330722
X-0367385
X-0373353
X-0379322
X-038529
X-0391259
X-0397227
X-0403196
X-0409164
X-0415133
X-0421101
X-042707
X-0433038
X-0439007
X-0444975
X-0450944
X-044796Y-0324754
X-0441991
X-0436023
X-0430054
X-0424086
X-0418117
X-0412149
Y-0336691
X-040618
X-0400211
X-0394243
X-0388275
X-0382306
X-0376338
X-0370369
X-0364401
X-0358432
X-0361416Y-0342659
X-0367385
X-0373353
X-0379322
X-038529
X-0391259
X-0397227
X-0403196
X-0409164
X-0415133
X-0421101
X-042707
X-0424086Y-0336691
X-0418117
Y-0348628
X-0412149
X-040618
X-0400211
X-0394243
X-0388275
X-0382306
X-0376338
X-0370369
X-0364401
X-0358432
X-0424086
X-0430054Y-0336691
X-0433038Y-0318785
X-0439007
X-0444975
X-0450944
X-0456912
X-0453928Y-0324754
X-050466Y-0342659
X-0510629
X-0507645Y-0348628
X-0501676
X-0513613
X-0519582
X-0516597Y-0342659
X-0522566
X-0516597Y-0354596
X-0519582Y-0360565
Y-0253132
X-0513613
X-0516597Y-0247163
X-0522566
X-0528534
X-0534503
X-0540471
X-054644
X-0552408
X-0558377
X-0555393Y-0241195
X-0549424
X-0543456
X-0537487
X-0531519
X-052555
X-0519582
X-0513613
X-0516597Y-0235226
X-0522566
X-0528534
X-0534503
X-0540471
X-054644
X-0552408
X-0558377
X-0555393Y-0229258
X-0549424
X-0543456
X-0537487
X-0531519
X-052555
X-0519582
X-0513613
X-0516597Y-0223289
X-0522566
X-0528534
X-0534503
X-0540471
X-054644
X-0552408
X-0558377
X-0555393Y-0217321
X-0549424
X-0543456
X-0537487
X-0531519
X-052555
X-0519582
X-0513613
X-0516597Y-0211352
X-0522566
X-0528534
X-0534503
X-0540471
X-054644
X-0552408
X-0558377
X-0555393Y-0205384
X-0549424
X-0543456
X-0537487
X-0531519
X-052555
X-0519582
X-0513613
X-0516597Y-0199415
X-0522566
X-0528534
X-0534503
X-0540471
X-054644
X-0552408
X-0558377
X-0555393Y-0193447
X-0549424
X-0543456
X-0537487
X-0531519
X-052555
X-0519582
X-0513613
X-0516597Y-0187478
X-0522566
X-0528534
X-0534503
X-0540471
X-054644
X-0552408
X-0558377
X-0555393Y-018151
X-0549424
X-0543456
X-0537487
X-0531519
X-052555
X-0519582
X-0513613
X-0516597Y-0175541
X-0522566
X-0528534
X-052555Y-0169573
X-0519582
X-0513613
X-0516597Y-0163604
X-0552408Y-0175541
X-0558377
X-0549424Y-0253132
X-0543456
X-0537487
X-0531519
X-052555
X-0507645
X-0501676
X-0498692Y-0247163
X-050466
X-0510629
X-0507645Y-0241195
X-0501676
X-0495708
X-0498692Y-0235226
X-050466
X-0510629
X-0507645Y-0229258
X-0501676
X-0495708
X-0498692Y-0223289
X-050466
X-0510629
X-0507645Y-0217321
X-0501676
X-0495708
X-0498692Y-0211352
X-050466
X-0510629
X-0507645Y-0205384
X-0501676
X-0495708
X-0498692Y-0199415
X-050466
X-0510629
X-0507645Y-0193447
X-0501676
X-0495708
X-0498692Y-0187478
X-050466
X-0510629
X-0507645Y-018151
X-0501676
X-0495708
X-0498692Y-0175541
X-050466
X-0510629
X-0507645Y-0169573
X-0501676
X-0495708
X-0498692Y-0163604
X-050466
X-0510629
X-044796Y-0277006
X-0441991
X-0436023
X-0430054
X-0433038Y-0282974
X-0439007
X-0444975
X-0450944
X-044796Y-0288943
X-0441991
X-0436023
X-0433038Y-0294911
X-042707
X-0424086Y-030088
X-0418117
X-0412149
X-040618
X-0400211
X-0394243
X-0388275
X-0382306
X-0376338
X-0370369
X-0364401
X-0358432
X-0361416Y-0294911
X-0367385
X-0373353
X-0379322
X-038529
X-0391259
X-0397227
X-0403196
X-0409164
X-0415133
X-0412149Y-0288943
X-040618
X-0400211
X-0394243
X-0388275
X-0382306
X-0376338
X-0370369
X-0364401
X-0358432
X-0361416Y-0282974
X-0367385
X-0373353
X-0379322
X-038529
X-0391259
X-0397227
X-0403196
X-0409164
X-040618Y-0277006
X-0400211
X-0394243
X-0388275
X-0382306
X-0376338
X-0370369
X-0364401
X-0358432
X-0361416Y-0306848
X-0367385
X-0373353
X-0379322
X-038529
X-0391259
X-0397227
X-0403196
X-0409164
X-0415133
X-040618Y-0312817
X-0400211
X-0394243
X-0388275
X-0382306
X-0376338
X-0370369
X-0364401
X-0358432
X-0436023
X-0441991
X-044796
X-0453928
X-0450944Y-0306848
X-0444975
X-0439007
X-0433038
X-0430054Y-030088
X-0436023
X-0441991
X-044796
X-0453928
X-0450944Y-0294911
X-0444975
X-0439007
X-0456912
X-0453928Y-0288943
X-0456912Y-0306848
X-0412149Y-0277006
X-0352464
X-0346495
X-0340527
X-0334558
X-032859
X-0322621
X-0316652
X-0310684
X-0304715
X-0298747
X-0292778
X-028681
X-0280841
X-0274873
X-0268904
X-0262936
X-0259952Y-0271037
X-0253983
X-0248015
X-0242046
X-0236078
X-0230109
X-0224141
X-0227125Y-0265069
X-0233094
X-0239062
X-024503
X-0250999
X-0256967
X-0262936
X-0268904
X-0274873
X-0280841
X-028681
X-0292778
X-0298747
X-0304715
X-0301731Y-02591
X-0295763
X-0289794
X-0283826
X-0277857
X-0271889
X-026592
X-0259952
X-0262936Y-0253132
X-0268904
X-0274873
X-0280841
X-028681
X-0292778
X-0298747
X-0304715
X-0295763Y-0247163
X-0289794
X-0283826
X-0277857
X-0271889
X-026592
X-0259952
X-0242046
X-0236078
X-0233094Y-0253132
X-0227125
X-0224141Y-02591
X-0230109
X-0236078
X-0242046
X-0239062Y-0253132
Y-0277006
X-0233094
X-0227125
X-0224141Y-0282974
X-0230109
X-0236078
X-0233094Y-0288943
X-0227125
X-0224141Y-0294911
X-0230109
X-0236078
X-0242046
X-0248015
X-0253983
X-0259952
X-026592
X-0271889
X-0277857
X-0283826
X-0289794
X-0295763
X-0301731
X-03077
X-0313668
X-0319637
X-0325605
X-0331574
X-0337542
X-0343511
X-0349479
X-0355448
X-0352464Y-0288943
X-0346495
X-0340527
X-0334558
X-032859
X-0322621
X-0316652
X-0310684
X-0304715
X-0298747
X-0292778
X-028681
X-0280841
X-0274873
X-0268904
X-0262936
X-026592Y-0282974
X-0271889
X-0277857
X-0283826
X-0289794
X-0295763
X-0301731
X-03077
X-0313668
X-0319637
X-0325605
X-0331574
X-0337542
X-0343511
X-0349479
X-0355448
X-0352464Y-030088
X-0346495
X-0340527
X-0334558
X-032859
X-0322621
X-0316652
X-0310684
X-0304715
X-0298747
X-0292778
X-028681
X-0280841
X-0274873
X-0268904
X-0262936
X-0256967
X-0250999
X-024503
X-0239062
X-0233094
X-0227125
X-0224141Y-0306848
X-0230109
X-0236078
X-0242046
X-0248015
X-0253983
X-0259952
X-026592
X-0271889
X-0277857
X-0283826
X-0289794
X-0295763
X-0301731
X-03077
X-0313668
X-0319637
X-0325605
X-0331574
X-0337542
X-0343511
X-0349479
X-0355448
X-0352464Y-0312817
X-0346495
X-0340527
X-0334558
X-032859
X-0322621
X-0316652
X-0310684
X-0304715
X-0298747
X-0292778
X-028681
X-0280841
X-0274873
X-0268904
X-0262936
X-0256967
X-0250999
X-024503
X-0239062
X-0233094
X-0227125
X-0239062Y-0288943
X-026592Y-0271037
X-0271889
X-0277857
X-0283826
X-0289794
X-0295763
X-0301731
X-03077
X-0313668
X-0298747Y-0223289
X-0292778
X-028681
X-0280841
X-0274873
X-0268904
X-0262936
X-0256967
X-024503
X-0239062
X-0233094
X-0227125
X-0221157
X-0215188
X-020922
X-0203251
X-0200267Y-0217321
X-0206235
X-0212204
X-0218172
X-0224141
X-0230109
X-0236078
X-0233094Y-0211352
X-0227125
X-0221157
X-0215188
X-020922
X-0203251
X-0200267Y-0205384
X-0206235
X-0212204
X-0218172
X-0224141
X-0230109
X-0236078
X-0242046
X-0239062Y-0199415
X-0233094
X-0227125
X-0221157
X-0215188
X-020922
X-0203251
X-0200267Y-0193447
X-0206235
X-0212204
X-0218172
X-0224141
X-0230109
X-0236078
X-0233094Y-0187478
X-0227125
X-0221157
X-0215188
X-020922
X-0203251
X-0200267Y-018151
X-0206235
X-0212204
X-0218172
X-0224141
X-0230109
X-0236078
X-0242046
X-0248015
X-0253983
X-0259952
X-026592
X-0271889
X-0277857
X-0283826
X-0289794
X-0295763
X-0301731
X-0298747Y-0175541
X-0292778
X-028681
X-0280841
X-0274873
X-0268904
X-0262936
X-0256967
X-0250999
X-024503
X-0239062
X-0233094
X-0227125
X-0221157
X-0215188
X-020922
X-0203251
X-0200267Y-0169573
X-0206235
X-0212204
X-0218172
X-0224141
X-0230109
X-0236078
X-0242046
X-0248015
X-0253983
X-0259952
X-026592
X-0271889
X-0277857
X-0283826
X-0289794
X-0295763
X-0301731
X-0298747Y-0163604
X-0292778
X-028681
X-0280841
X-0274873
X-0268904
X-0262936
X-0256967
X-0250999
X-024503
X-0239062
X-0233094
X-0227125
X-0221157
X-0215188
X-020922
X-0203251
X-0239062Y-0187478
Y-0211352
X-0262936
X-0268904
X-0274873
X-0280841
X-028681
X-0292778
X-0298747
X-0304715
X-0301731Y-0205384
X-0295763
X-0289794
X-0283826
X-0277857
X-0271889
X-026592
X-0259952
X-0262936Y-0199415
X-0268904
X-0274873
X-0280841
X-028681
X-0292778
X-0298747
X-0304715
X-0301731Y-0193447
X-0295763
X-0289794
X-0283826
X-0277857
X-0271889
X-026592
X-0262936Y-0187478
X-0268904
X-0274873
X-0280841
X-028681
X-0292778
X-0298747
X-0304715
Y-0175541
X-0301731Y-0217321
X-0295763
X-0289794
X-0283826
X-0277857
X-0271889
X-026592
X-0212204Y-0229258
X-0206235
X-0200267
X-0194298
X-018833
X-0182361
X-0176393
X-0170424
X-0164456
X-0158487
X-0152519
X-014655
X-0149534Y-0223289
X-0155503
X-0161471
X-016744
X-0173408
X-0179377
X-0185345
X-0191314
X-0197283
X-0194298Y-0217321
X-018833
X-0182361
X-0176393
X-0170424
X-0164456
X-0158487
X-0152519
X-014655
X-0143566Y-0211352
X-0149534
X-0155503
X-0161471
X-016744
X-0173408
X-0179377
X-0185345
X-0191314
X-0197283
X-0194298Y-0205384
X-018833
X-0182361
X-0176393
X-0170424
X-0164456
X-0158487
X-0152519
X-014655
X-0143566Y-0199415
X-0149534
X-0155503
X-0161471
X-016744
X-0173408
X-0179377
X-0185345
X-0191314
X-0197283
X-0194298Y-0193447
X-018833
X-0182361
X-0176393
X-0170424
X-0164456
X-0158487
X-0152519
X-014655
X-0143566Y-0187478
X-0149534
X-0155503
X-0161471
X-016744
X-0173408
X-0179377
X-0185345
X-0191314
X-0197283
X-0194298Y-018151
X-018833
X-0182361
X-0176393
X-0170424
X-0164456
X-0158487
X-0152519
X-014655
X-0143566Y-0175541
X-0149534
X-0155503
X-0161471
X-016744
X-0173408
X-0179377
X-0185345
X-0191314
X-0197283
X-0194298Y-0169573
X-018833
X-0182361
X-0176393
X-0170424
X-0164456
X-0158487
X-0152519
X-014655
X-0149534Y-0163604
X-0155503
X-0161471
X-016744
X-0173408
X-0179377
X-0185345
X-0191314
X-0197283
X-0083881Y-0175541
X-0077912
X-0071944
X-0065975
X-0060007
X-0054039
X-004807
X-0045086Y-0169573
X-0051054
X-0057023
X-0062991
X-006896
X-0074928
Y-018151
X-006896
X-0062991
X-0057023
X-0051054
X-0045086
X-004807Y-0187478
X-0054039
X-0060007
X-0065975
X-0062991Y-0193447
X-0057023
X-0051054
X-0045086
X-004807Y-0199415
X-0054039
X-0060007
X-0065975
X-0062991Y-0205384
X-0057023
X-0051054
X-0045086
X-004807Y-0211352
X-0054039
X-0060007
X-0065975
X-0062991Y-0217321
X-0057023
X-0051054
X-0045086
X-004807Y-0223289
X-0054039
X-0060007
X-0065975
X-0071944
X-006896Y-0205384
X-0080897Y-018151
X-0086865Y-0247163
X-0092834
X-0098802
X-0104771
X-0101786Y-0253132
X-0095818
X-008985
X-0086865Y-02591
X-0092834
X-0098802
X-0104771
X-0101786Y-0265069
X-0095818
X-008985
X-0083881
X-0077912
X-0071944
X-0065975
X-0060007
X-0054039
X-004807
X-0045086Y-02591
X-0051054
X-0057023
X-0062991
X-006896
X-0065975Y-0253132
X-0060007
X-0054039
X-004807
X-0045086Y-0247163
X-0051054
X-0057023
X-0062991
X-006896
Y-0271037
X-0062991
X-0057023
X-0051054
X-0045086
X-004807Y-0277006
X-0054039
X-0060007
X-0065975
X-0062991Y-0282974
X-0057023
X-0051054
X-0045086
X-004807Y-0288943
X-0054039
X-0060007
X-0065975
X-0062991Y-0294911
X-0057023
X-0051054
X-0045086
X-004807Y-030088
X-0054039
X-0060007
X-0065975
X-0071944
X-0077912
X-0083881
X-008985
X-0095818
X-0101786
X-0107755
X-0104771Y-0294911
X-0098802
X-0092834
X-0086865
X-0080897
X-0074928
X-006896
Y-0306848
X-0062991
X-0057023
X-0051054
X-0045086
X-004807Y-0312817
X-0054039
X-0060007
X-0065975
X-0071944
X-0077912
X-0083881
X-008985
X-0095818
X-0101786
X-0107755
X-0104771Y-0306848
X-0098802
X-0092834
X-0086865
X-0080897
X-0074928
X-008985Y-0288943
X-0095818
X-0101786
X-0107755
X-0104771Y-0282974
X-0098802
X-0092834
X-008985Y-0277006
X-0095818
X-0101786
X-0107755
X-0104771Y-0271037
X-0098802
X-0092834
X-0086865
X-0080897
X-0074928
X-0107755Y-0265069
Y-0253132
X-0042101
X-0036133
X-0030165
X-0024196
X-0018227
X-0012259
X-000629
X-0000322
X0005646
X0011615
X0017583
X0023552
X002952
X0035489
X0041458
X0047426
X0053395
X0059363
X0065332
X00713
X0077268
X0083237
X0086221Y-0247163
X0080253
X0074284
X0068316
X0062347
X0056379
X005041
X0044442
X0038473
X0032505
X0026536
X0020568
X0014599
X0008631
X0002662
X-0003306
X-0009275
X-0015243
X-0021212
X-002718
X-0033149
X-0039117
Y-02591
X-0033149
X-002718
X-0021212
X-0015243
X-0009275
X-0003306
X0002662
X0008631
X0014599
X0020568
X0026536
X0032505
X0038473
X0044442
X005041
X0056379
X0062347
X0068316
X0074284
X0080253
X0086221
X0089205Y-0265069
X0095174
X0101143
X0107111
X0110095Y-02591
X0107111Y-0253132
X0110095Y-0247163
X0104127
Y-0271037
X0110095
X0107111Y-0277006
X0110095Y-0282974
X0107111Y-0288943
X0110095Y-0294911
X0104127
X0098158
X009219
X0086221
X0080253
X0074284
X0068316
X0062347
X0056379
X005041
X0044442
X0038473
X0032505
X0026536
X0020568
X0014599
X0008631
X0002662
X-0003306
X-0009275
X-0015243
X-0021212
X-002718
X-0033149
X-0039117
X-0036133Y-0288943
X-0030165
X-0024196
X-0018227
X-0012259
X-000629
X-0000322
X0005646
X0011615
X0017583
X0023552
X002952
X0035489
X0041458
X0047426
X0053395
X0059363
X0065332
X00713
X0077268
X0083237
X0086221Y-0282974
X0080253
X0074284
X0068316
X0062347
X0056379
X005041
X0044442
X0038473
X0032505
X0026536
X0020568
X0014599
X0008631
X0002662
X-0003306
X-0009275
X-0015243
X-0021212
X-002718
X-0033149
X-0039117
X-0036133Y-0277006
X-0030165
X-0024196
X-0018227
X-0012259
X-000629
X-0000322
X0005646
X0011615
X0017583
X0023552
X002952
X0035489
X0041458
X0047426
X0053395
X0059363
X0065332
X00713
X0077268
X0083237
X0086221Y-0271037
X009219
X0098158
X0080253
X0074284
X0068316
X0062347
X0056379
X005041
X0044442
X0038473
X0032505
X0026536
X0020568
X0014599
X0008631
X0002662
X-0003306
X-0009275
X-0015243
X-0021212
X-002718
X-0033149
X-0039117
X-0036133Y-0265069
X-0030165
X-0024196
X-0018227
X-0012259
X-000629
X-0000322
X0005646
X0011615
X0017583
X0023552
X002952
X0035489
X0041458
X0047426
X0053395
X0059363
X0065332
X00713
X0077268
X0083237
Y-030088
X0089205
X0095174
X0101143
X0107111
X0110095Y-0306848
X0104127
X0098158
X009219
X0086221
X0080253
X0074284
X0068316
X0062347
X0056379
X005041
X0044442
X0038473
X0032505
X0026536
X0020568
X0014599
X0008631
X0002662
X-0003306
X-0009275
X-0015243
X-0021212
X-002718
X-0033149
X-0039117
X-0036133Y-030088
X-0030165
X-0024196
X-0018227
X-0012259
X-000629
X-0000322
X0005646
X0011615
X0017583
X0023552
X002952
X0035489
X0041458
X0047426
X0053395
X0059363
X0065332
X00713
X0077268
Y-0312817
X0083237
X0089205
X0095174
X0101143
X0107111
X00713
X0065332
X0059363
X0053395
X0047426
X0041458
X0035489
X002952
X0023552
X0017583
X0011615
X0005646
X-0000322
X-000629
X-0012259
X-0018227
X-0024196
X-0030165
X-0036133
X-0042101
Y-030088
Y-0288943
Y-0277006
Y-0265069
Y-0223289
X-0036133
X-0030165
X-0024196
X-0018227
X-0012259
X-000629
X-0000322
X0005646
X0011615
X0017583
X0023552
X002952
X0035489
X0041458
X0047426
X0053395
X0059363
X0065332
X00713
X0077268
X0083237
X0089205
X0086221Y-0217321
X0080253
X0074284
X0068316
X0062347
X0056379
X005041
X0044442
X0038473
X0032505
X0026536
X0020568
X0014599
X0008631
X0002662
X-0003306
X-0009275
X-0015243
X-0021212
X-002718
X-0033149
X-0039117
X-0036133Y-0211352
X-0030165
X-0024196
X-0018227
X-0012259
X-000629
X-0000322
X0005646
X0011615
X0017583
X0023552
X002952
X0035489
X0041458
X0047426
X0053395
X0059363
X0065332
X00713
X0077268
X0083237
X0086221Y-0205384
X0080253
X0074284
X0068316
X0062347
X0056379
X005041
X0044442
X0038473
X0032505
X0026536
X0020568
X0014599
X0008631
X0002662
X-0003306
X-0009275
X-0015243
X-0021212
X-002718
X-0033149
X-0039117
X-0036133Y-0199415
X-0030165
X-0024196
X-0018227
X-0012259
X-000629
X-0000322
X0005646
X0011615
X0017583
X0023552
X002952
X0035489
X0041458
X0047426
X0053395
X0059363
X0065332
X00713
X0077268
X0083237
X0086221Y-0193447
X0080253
X0074284
X0068316
X0062347
X0056379
X005041
X0044442
X0038473
X0032505
X0026536
X0020568
X0014599
X0008631
X0002662
X-0003306
X-0009275
X-0015243
X-0021212
X-002718
X-0033149
X-0039117
X-0036133Y-0187478
X-0030165
X-0024196
X-0018227
X-0012259
X-000629
X-0000322
X0005646
X0011615
X0017583
X0023552
X002952
X0035489
X0041458
X0047426
X0053395
X0059363
X0065332
X00713
X0077268
X0083237
X0086221Y-018151
X009219
X0098158
X0101143Y-0175541
X0095174
X0089205
X0083237
X0077268
X00713
X0065332
X0059363
X0053395
X0047426
X0041458
X0035489
X002952
X0023552
X0017583
X0011615
X0005646
X-0000322
X-000629
X-0012259
X-0018227
X-0024196
X-0030165
X-0036133
X-0042101
X-0039117Y-0169573
X-0033149
X-002718
X-0021212
X-0015243
X-0009275
X-0003306
X0002662
X0008631
X0014599
X0020568
X0026536
X0032505
X0038473
X0044442
X005041
X0056379
X0062347
X0068316
X0074284
X0080253
X0086221
X009219
X0098158
X0101143Y-0163604
X0095174
X0089205
X0083237
X0077268
X00713
X0065332
X0059363
X0062347Y-018151
X0068316
X0074284
X0080253
X0056379
X005041
X0044442
X0038473
X0032505
X0026536
X0020568
X0014599
X0008631
X0002662
X-0003306
X-0009275
X-0015243
X-0021212
X-002718
X-0033149
X-0039117
X-0042101Y-0187478
Y-0199415
Y-0211352
X0116064Y-0247163
X0122032
X0128001
X0133969
X0139938
X0145906
X0151875
X0157843
X0163812
X0166796Y-0253132
X0172765
X016978Y-02591
X0163812
X0157843
X0151875
X0145906
X0139938
X0133969
X0128001
X0122032
X0116064
X0119048Y-0253132
X0125016
X0130985
X0136953
X0142922
X014889
X0154859
X0160828
Y-0265069
X0166796
X0172765
X016978Y-0271037
X0163812
X0157843
X0151875
X0145906
X0139938
X0133969
X0128001
X0122032
X0116064
X0119048Y-0265069
X0125016
X0130985
X0136953
X0142922
X014889
X0154859
Y-0277006
X0160828
X0166796
X0172765
X016978Y-0282974
X0163812
X0157843
X0151875
X0145906
X0139938
X0133969
X0128001
X0122032
X0116064
X0119048Y-0277006
X0125016
X0130985
X0136953
X0142922
X014889
Y-0288943
X0154859
X0160828
X0166796
X0172765
X016978Y-0294911
X0163812
X0157843
X0151875
X0145906
X0139938
X0133969
X0128001
X0122032
X0116064
X0119048Y-0288943
X0125016
X0130985
X0136953
X0142922
Y-030088
X014889
X0154859
X0160828
X0166796
X0172765
X016978Y-0306848
X0163812
X0157843
X0151875
X0145906
X0139938
X0133969
X0128001
X0122032
X0116064
X0119048Y-030088
X0125016
X0130985
X0136953
Y-0312817
X0142922
X014889
X0154859
X0160828
X0166796
X0172765
X0199623Y-0306848
X0205591
X021156
X0217528
X0223497
X0229465
X0235434
X0241402
X0247371
X0253339
X0259308
X0262292Y-030088
X0256324
X0250355
X0244387
X0238418
X023245
X0235434Y-0294911
X0241402
X0247371
X0253339
X0259308
X0262292Y-0288943
X0256324
X0250355
X0244387
X0238418
X023245
X0226481
X0220513
X0214544
X0208576
X0202607
X0196639
X0199623Y-0282974
X0205591
X021156
X0217528
X0223497
X0229465
X0235434
X0241402
X0247371
X0253339
X0259308
X0262292Y-0277006
X0256324
X0250355
X0244387
X0238418
X023245
X0226481
X0220513
X0214544
X0208576
X0202607
X0196639
X0199623Y-0271037
X0205591
X021156
X0217528
X0223497
X0229465
X0235434
X0241402
X0247371
X0253339
X0259308
X0262292Y-0265069
X0256324
X0250355
X0244387
X0238418
X023245
X0226481
X0220513
X0214544
X0208576
X0202607
X0196639
X0199623Y-02591
X0205591
X021156
X0217528
X0223497
X0229465
X0235434
X0241402
X0247371
X0253339
X0259308
X0262292Y-0253132
X0256324
X0250355
X0244387
X0238418
X023245
X0226481
X0220513
X0214544
X0208576
X0202607
X0196639
X0199623Y-0247163
X0205591
X021156
X0217528
X0223497
X0229465
X0235434
X0241402
X0247371
X0253339
X0259308
X0262292Y-0241195
X0256324
X0250355
X0244387
X0238418
X023245
X0226481
X0220513
X0223497Y-0235226
X0229465
X0235434
X0241402
X0247371
X0253339
X0259308
X0262292Y-0229258
X0256324
X0250355
X0244387
X0238418
X023245
X0226481
X0229465Y-0223289
X0259308
X0262292Y-0193447
X0259308Y-0187478
X0262292Y-018151
X0256324
X0250355
X0244387
X0238418
X023245
X0226481
X0229465Y-0187478
X0226481Y-0193447
X0235434Y-0175541
X0241402
X0247371
X0253339
X0229465Y-0294911
X0223497
X0217528
X021156
X0205591
X0199623
X0202607Y-030088
X0208576
X0214544
Y-0312817
X0220513
X0226481
X023245
X0238418
X0244387
X0208576
X0196639Y-030088
X0130985Y-0312817
X0125016
X0119048
X011308
Y-030088
Y-0288943
Y-0277006
Y-0265069
Y-0253132
X0098158Y-0157636
X009219
X0086221
X0080253
X0074284
X0068316
X0062347
X0065332Y-0151667
X00713
X0077268
X0083237
X0089205
X0095174
X0101143
X0098158Y-0145699
X009219
X0059363Y-0151667
X-0036133Y-013973
X-0042101
X-0039117Y-0133762
X-0033149
X-0030165Y-0127793
X-0036133
X-0033149Y-0121825
X-0039117
X-0036133Y-0115856
X-0030165
X-0033149Y-0109888
X-0039117
X-0036133Y-0103919
X-0042101
X-0039117Y-0008423
X-0033149
X-002718
X-0021212
X-0015243
X-0045086
X-0051054
X-0057023
X-0062991
X-006896
X-0074928
X-0080897
X-0086865
X-0092834
X-0098802
X-0104771
X-0110739
X-0116708
X-0122676
X-0128645
X-0134613
X-0071944Y-0103919
X-0065975
X-0060007
X-0054039
X-004807
X-0045086Y-0109888
X-0074928
X-0077912Y-013973
X-0498692
X-050466
X-0510629
X-0507645Y-0133762
X-0510629Y-0127793
X-0507645Y-0121825
X-0510629Y-0115856
Y-0103919
X-050466
X-0498692
X-0495708Y-0145699
X-0501676
X-0507645
X-050466Y-0151667
X-0498692
X-0495708Y-0157636
X-0501676
X-0507645
X-0510629Y-0151667
X-0516597
X-0513613Y-0145699
X-0519582
X-0516597Y-013973
X-0522566
X-0519582Y-0133762
X-0513613
X-0516597Y-0127793
X-0522566
X-0528534
X-0534503
X-0540471
X-054644
X-0552408
X-0558377
X-0555393Y-0121825
X-0549424
X-0543456
X-0537487
X-0531519
X-052555
X-0519582
X-0513613
X-0516597Y-0115856
X-0522566
X-0528534
X-0534503
X-0540471
X-054644
X-0552408
X-0558377
X-0555393Y-0109888
X-0549424
X-0543456
X-0537487
X-0531519
X-052555
X-0519582
X-0513613
X-0516597Y-0103919
X-0522566
X-0528534
X-0534503
X-0540471
X-054644
X-0552408
X-0549424Y-0133762
X-0543456
X-0537487
X-0531519
X-052555
X-0519582Y-0157636
X-0513613
X-0558377Y-013973
X-0555393Y-0133762
T02
X0034749Y-0131116
Y-0123635
Y-0116155
Y-0108675
X-0464392Y-007975
X-0471873
X-0479353
X-0486833
T03
X-0440054Y-0511864
X-0428243
Y-0481864
X-0440054
X-0362101Y-0489423
X-0349896Y-0489817
Y-0459817
X-0350487Y-044651
X-0339266
Y-0416509
X-0350487
X-0361707
Y-044651
X-0362101Y-0459423
X-0428243Y-0471706
X-0440054
Y-0441706
Y-0430761
X-0428243Y-0441706
X-0440054Y-0400762
X-0082652Y-008151
X-0052652
T04
X-0359345Y-0509462
X-0349345
X-0335329Y-0509447
X-0325329
X-0145329Y-0059856
X-0135329
T05
X0198923Y-039962
X-0356983Y-0392927
Y-0377927
X-0395959Y-037836
Y-039336
X0198923Y-0314187
X0198923Y-0218517
X-0049424Y-0064974
X-0059424
X-0069424
Y-0054974
X-0059424
X-0049424
X-0079424
X-0089424
Y-0064974
X-0099424
Y-0054974
X-0109424
Y-0064974
X-0119424
Y-0054974
X-0079424Y-0064974
T06
X-0405408Y-0486706
Y-0476706
X-0375408
Y-0486706
X0221757Y-0361037
X-0375408Y-0426706
Y-0436706
Y-0446706
Y-0456706
Y-0466706
X-0405408
Y-0456706
Y-0446706
Y-0436706
Y-0426706
X-0442652Y-0379541
X-0502652
X0221757Y-0301037
T07
X-0551078Y-0477179
X-0497692Y-0509447
X-0487692
X-0477692
X-0467692
X-0462495Y-0477179
X-0405723Y-0509462
X-0395723
X-0385723
X-0375723
X-0462495Y-0457179
Y-0437179
Y-0417336
X-0551078
X0155222Y-0140565
X0215064
Y-0051982
X0195064
X0175064
X0155222
X0164277Y-0027573
X0174277
X0184277
X0194277
X0084749Y-0094502
X0074513
X006467
Y-0145289
X0074513
X0084749
X0007978Y-013458
Y-012458
Y-011458
Y-010458
X-0001629Y-0082691
X-0041629
X-0121432Y-0114446
X-0131432
X-0141432
Y-0140946
X-0131432
X-0121432
X-0404121Y-0106462
Y-006473
X-0463219Y-005825
X-0473219
X-0483219
X-0493219
X-0501007Y-0109671
Y-0119513
Y-012975
X-0450219
Y-0119513
Y-0109671
T08
X0251678Y-0338124
Y-0318124
X-0546794Y-0282647
Y-0262647
X-0432967Y-0032691
X-0412967
T09
X-0367621Y-0108254
Y-0068096
T10
X-030699Y-0123214
X-0276677
X-0316991Y-0053134
T11
X-00272Y-0030307
X-00057
X-00487
X-01321
X-01536
X-01751
T12
X0096453Y-0454254
Y-0433624
Y-0394254
Y-0365754
X-0078147
Y-0394254
Y-0433624
Y-0454254
X-0251047
Y-0433624
Y-0394254
Y-0365754
X-0421794Y-0314517
Y-0286017
Y-0246647
Y-0226017
X-0251047Y-0214347
Y-0193717
Y-0253717
Y-0282217
X-0078147
Y-0253717
Y-0214347
Y-0193717
X0096453
Y-0214347
Y-0253717
Y-0282217
T13
X-0549109Y-0509447
X-0218794
X0252072
X-0549109Y0041719
X-0247141Y0017293
X-01684Y0017309
X002846Y0017293
X01072
X0252072Y0041719
T14
X0243643Y-0443222
X-0542416Y-0356313
X0244143Y-0206706
X-0059932Y-0127482
X-0227932
X-0542223Y-0155647
M30
