G04*
G04 #@! TF.GenerationSoftware,Altium Limited,Altium Designer,22.5.1 (42)*
G04*
G04 Layer_Color=0*
%FSLAX44Y44*%
%MOMM*%
G71*
G04*
G04 #@! TF.SameCoordinates,C796FD1A-AD25-48EF-AA2C-5B7F1B644D0D*
G04*
G04*
G04 #@! TF.FilePolarity,Positive*
G04*
G01*
G75*
%ADD12C,0.2000*%
%ADD14C,0.8000*%
D12*
X-1127557Y-422564D02*
X-1126556Y-421564D01*
Y-186564D01*
X-1127557Y-185564D02*
X-1126556Y-186564D01*
X-1146307Y-172564D02*
X-1140556D01*
X-1282557D02*
X-1146307D01*
X-1289557Y-422564D02*
X-1127557D01*
X-1289557D02*
Y-179564D01*
X-1282557Y-172564D01*
X-1140556D02*
X-1127557Y-185564D01*
X307263Y-223034D02*
X308263Y-224034D01*
X72263Y-223034D02*
X307263D01*
X71263Y-224034D02*
X72263Y-223034D01*
X58263Y-242784D02*
Y-237034D01*
Y-379034D02*
Y-242784D01*
X308263Y-386034D02*
Y-224034D01*
X65263Y-386034D02*
X308263D01*
X58263Y-379034D02*
X65263Y-386034D01*
X58263Y-237034D02*
X71263Y-224034D01*
X-1318537Y-1256034D02*
X-1257737D01*
X-1134737D02*
Y-1012034D01*
X-1434737D02*
X-1134737D01*
X-1434737Y-1256034D02*
Y-1012034D01*
Y-1256034D02*
X-1318537D01*
X-1257737D02*
X-1134737D01*
X590263Y-215034D02*
Y-92034D01*
Y-392034D02*
Y-275834D01*
X346263Y-392034D02*
X590263D01*
X346263D02*
Y-92034D01*
X590263D01*
Y-275834D02*
Y-215034D01*
X-1076437Y-516484D02*
X-1066277D01*
X-1071357Y-521564D02*
Y-511404D01*
X239911Y-1211404D02*
X250071D01*
X244991Y-1216485D02*
Y-1206324D01*
X-198493Y-1216485D02*
Y-1206324D01*
X-203573Y-1211404D02*
X-193413D01*
X-642739D02*
X-632579D01*
X-637659Y-1216485D02*
Y-1206324D01*
X244991Y-439522D02*
Y-429362D01*
X239911Y-434442D02*
X250071D01*
X-203573D02*
X-193413D01*
X-198493Y-439522D02*
Y-429362D01*
X-637659Y-439522D02*
Y-429362D01*
X-642739Y-434442D02*
X-632579D01*
D14*
X-866357Y-686484D02*
G03*
X-866357Y-686484I-205000J0D01*
G01*
X449991Y-1041404D02*
G03*
X449991Y-1041404I-205000J0D01*
G01*
X6507D02*
G03*
X6507Y-1041404I-205000J0D01*
G01*
X-432659D02*
G03*
X-432659Y-1041404I-205000J0D01*
G01*
X449991Y-604442D02*
G03*
X449991Y-604442I-205000J0D01*
G01*
X6507D02*
G03*
X6507Y-604442I-205000J0D01*
G01*
X-432659D02*
G03*
X-432659Y-604442I-205000J0D01*
G01*
M02*
