G04*
G04 #@! TF.GenerationSoftware,Altium Limited,Altium Designer,22.5.1 (42)*
G04*
G04 Layer_Color=16711935*
%FSLAX44Y44*%
%MOMM*%
G71*
G04*
G04 #@! TF.SameCoordinates,C796FD1A-AD25-48EF-AA2C-5B7F1B644D0D*
G04*
G04*
G04 #@! TF.FilePolarity,Positive*
G04*
G01*
G75*
%ADD78C,0.1000*%
G36*
X-880265Y-752956D02*
Y-753789D01*
X-882293Y-754119D01*
X-884117D01*
Y-752594D01*
X-882293D01*
X-880265Y-752956D01*
D02*
G37*
G36*
X-873237Y-758931D02*
X-881743D01*
X-881727Y-758946D01*
X-881664Y-759025D01*
X-881570Y-759119D01*
X-881460Y-759277D01*
X-881318Y-759449D01*
X-881161Y-759669D01*
X-880988Y-759921D01*
X-880815Y-760204D01*
Y-760220D01*
X-880799Y-760236D01*
X-880736Y-760330D01*
X-880658Y-760487D01*
X-880564Y-760676D01*
X-880453Y-760896D01*
X-880343Y-761132D01*
X-880233Y-761368D01*
X-880139Y-761603D01*
X-881428D01*
Y-761588D01*
X-881460Y-761556D01*
X-881475Y-761493D01*
X-881523Y-761415D01*
X-881570Y-761320D01*
X-881633Y-761210D01*
X-881790Y-760943D01*
X-881963Y-760629D01*
X-882183Y-760314D01*
X-882434Y-759984D01*
X-882702Y-759654D01*
X-882718Y-759638D01*
X-882733Y-759622D01*
X-882780Y-759575D01*
X-882828Y-759512D01*
X-882985Y-759371D01*
X-883174Y-759182D01*
X-883394Y-758994D01*
X-883645Y-758789D01*
X-883897Y-758616D01*
X-884164Y-758459D01*
Y-757594D01*
X-873237D01*
Y-758931D01*
D02*
G37*
G36*
X-876601Y-763867D02*
X-876507Y-763899D01*
X-876381Y-763946D01*
X-876240Y-763993D01*
X-876067Y-764056D01*
X-875878Y-764135D01*
X-875674Y-764229D01*
X-875234Y-764449D01*
X-874793Y-764732D01*
X-874573Y-764905D01*
X-874353Y-765078D01*
X-874164Y-765267D01*
X-873976Y-765487D01*
X-873960Y-765503D01*
X-873929Y-765534D01*
X-873897Y-765613D01*
X-873834Y-765691D01*
X-873756Y-765817D01*
X-873677Y-765943D01*
X-873598Y-766116D01*
X-873520Y-766289D01*
X-873426Y-766493D01*
X-873347Y-766713D01*
X-873268Y-766949D01*
X-873190Y-767201D01*
X-873127Y-767468D01*
X-873095Y-767751D01*
X-873064Y-768050D01*
X-873048Y-768364D01*
Y-768537D01*
X-873064Y-768663D01*
Y-768804D01*
X-873080Y-768977D01*
X-873111Y-769166D01*
X-873142Y-769386D01*
X-873221Y-769842D01*
X-873347Y-770314D01*
X-873520Y-770785D01*
X-873630Y-771005D01*
X-873756Y-771226D01*
X-873771Y-771241D01*
X-873787Y-771273D01*
X-873834Y-771336D01*
X-873897Y-771399D01*
X-873960Y-771493D01*
X-874054Y-771603D01*
X-874164Y-771729D01*
X-874290Y-771855D01*
X-874432Y-771980D01*
X-874573Y-772122D01*
X-874935Y-772405D01*
X-875359Y-772672D01*
X-875831Y-772908D01*
X-875847D01*
X-875894Y-772939D01*
X-875973Y-772955D01*
X-876067Y-773002D01*
X-876193Y-773034D01*
X-876350Y-773081D01*
X-876523Y-773144D01*
X-876712Y-773191D01*
X-876916Y-773238D01*
X-877152Y-773301D01*
X-877639Y-773380D01*
X-878189Y-773443D01*
X-878755Y-773474D01*
X-878771D01*
X-878834D01*
X-878928D01*
X-879038Y-773458D01*
X-879196D01*
X-879353Y-773443D01*
X-879557Y-773427D01*
X-879762Y-773395D01*
X-880218Y-773317D01*
X-880721Y-773207D01*
X-881224Y-773049D01*
X-881711Y-772829D01*
X-881727Y-772814D01*
X-881774Y-772798D01*
X-881837Y-772766D01*
X-881916Y-772704D01*
X-882026Y-772641D01*
X-882151Y-772562D01*
X-882434Y-772358D01*
X-882749Y-772090D01*
X-883063Y-771776D01*
X-883378Y-771414D01*
X-883645Y-770990D01*
X-883661Y-770974D01*
X-883677Y-770927D01*
X-883708Y-770864D01*
X-883755Y-770785D01*
X-883802Y-770660D01*
X-883849Y-770534D01*
X-883912Y-770377D01*
X-883975Y-770204D01*
X-884038Y-770015D01*
X-884101Y-769811D01*
X-884195Y-769370D01*
X-884274Y-768867D01*
X-884305Y-768348D01*
Y-768191D01*
X-884290Y-768081D01*
X-884274Y-767940D01*
X-884258Y-767767D01*
X-884243Y-767594D01*
X-884195Y-767389D01*
X-884101Y-766965D01*
X-883960Y-766493D01*
X-883865Y-766257D01*
X-883755Y-766037D01*
X-883614Y-765817D01*
X-883472Y-765597D01*
X-883456Y-765581D01*
X-883441Y-765550D01*
X-883394Y-765487D01*
X-883315Y-765408D01*
X-883236Y-765330D01*
X-883126Y-765220D01*
X-883000Y-765110D01*
X-882875Y-764984D01*
X-882718Y-764858D01*
X-882529Y-764732D01*
X-882340Y-764591D01*
X-882136Y-764465D01*
X-881900Y-764355D01*
X-881664Y-764229D01*
X-881413Y-764135D01*
X-881130Y-764040D01*
X-880799Y-765455D01*
X-880815D01*
X-880846Y-765471D01*
X-880909Y-765503D01*
X-880988Y-765534D01*
X-881082Y-765565D01*
X-881208Y-765613D01*
X-881460Y-765739D01*
X-881743Y-765896D01*
X-882026Y-766084D01*
X-882293Y-766320D01*
X-882529Y-766572D01*
X-882560Y-766603D01*
X-882623Y-766698D01*
X-882702Y-766855D01*
X-882812Y-767059D01*
X-882906Y-767327D01*
X-883000Y-767625D01*
X-883063Y-767987D01*
X-883079Y-768380D01*
Y-768506D01*
X-883063Y-768584D01*
Y-768694D01*
X-883048Y-768820D01*
X-883000Y-769119D01*
X-882938Y-769449D01*
X-882828Y-769795D01*
X-882670Y-770156D01*
X-882466Y-770487D01*
Y-770502D01*
X-882434Y-770518D01*
X-882356Y-770628D01*
X-882230Y-770770D01*
X-882041Y-770943D01*
X-881806Y-771147D01*
X-881538Y-771336D01*
X-881208Y-771509D01*
X-880846Y-771666D01*
X-880831D01*
X-880799Y-771682D01*
X-880752Y-771697D01*
X-880674Y-771713D01*
X-880579Y-771745D01*
X-880469Y-771776D01*
X-880202Y-771823D01*
X-879887Y-771886D01*
X-879541Y-771949D01*
X-879164Y-771980D01*
X-878755Y-771996D01*
X-878740D01*
X-878692D01*
X-878614D01*
X-878520D01*
X-878410Y-771980D01*
X-878268D01*
X-878111Y-771965D01*
X-877938Y-771949D01*
X-877561Y-771902D01*
X-877152Y-771823D01*
X-876743Y-771729D01*
X-876334Y-771603D01*
X-876318D01*
X-876287Y-771587D01*
X-876240Y-771556D01*
X-876161Y-771524D01*
X-875973Y-771430D01*
X-875752Y-771289D01*
X-875501Y-771116D01*
X-875234Y-770895D01*
X-874998Y-770644D01*
X-874778Y-770345D01*
Y-770330D01*
X-874762Y-770298D01*
X-874730Y-770251D01*
X-874699Y-770188D01*
X-874668Y-770109D01*
X-874620Y-770015D01*
X-874526Y-769795D01*
X-874432Y-769512D01*
X-874353Y-769197D01*
X-874290Y-768851D01*
X-874275Y-768490D01*
Y-768380D01*
X-874290Y-768286D01*
Y-768176D01*
X-874306Y-768065D01*
X-874369Y-767782D01*
X-874447Y-767452D01*
X-874573Y-767122D01*
X-874746Y-766776D01*
X-874840Y-766603D01*
X-874966Y-766446D01*
X-874982Y-766430D01*
X-874998Y-766414D01*
X-875045Y-766367D01*
X-875092Y-766304D01*
X-875171Y-766242D01*
X-875265Y-766163D01*
X-875359Y-766069D01*
X-875485Y-765990D01*
X-875627Y-765896D01*
X-875784Y-765786D01*
X-875941Y-765691D01*
X-876130Y-765597D01*
X-876334Y-765518D01*
X-876554Y-765440D01*
X-876790Y-765361D01*
X-877042Y-765298D01*
X-876680Y-763852D01*
X-876664D01*
X-876601Y-763867D01*
D02*
G37*
G36*
X52673Y-954430D02*
X52830D01*
X52987Y-954446D01*
X53192Y-954462D01*
X53396Y-954493D01*
X53852Y-954572D01*
X54355Y-954682D01*
X54858Y-954839D01*
X55346Y-955059D01*
X55361Y-955075D01*
X55409Y-955090D01*
X55471Y-955122D01*
X55550Y-955185D01*
X55660Y-955248D01*
X55786Y-955326D01*
X56069Y-955531D01*
X56383Y-955798D01*
X56698Y-956112D01*
X57012Y-956474D01*
X57280Y-956898D01*
X57295Y-956914D01*
X57311Y-956961D01*
X57342Y-957024D01*
X57390Y-957103D01*
X57437Y-957229D01*
X57484Y-957355D01*
X57547Y-957512D01*
X57610Y-957685D01*
X57673Y-957873D01*
X57736Y-958078D01*
X57830Y-958518D01*
X57908Y-959021D01*
X57940Y-959540D01*
Y-959697D01*
X57924Y-959807D01*
X57908Y-959949D01*
X57893Y-960122D01*
X57877Y-960295D01*
X57830Y-960499D01*
X57736Y-960923D01*
X57594Y-961395D01*
X57500Y-961631D01*
X57390Y-961851D01*
X57248Y-962071D01*
X57107Y-962291D01*
X57091Y-962307D01*
X57075Y-962339D01*
X57028Y-962402D01*
X56949Y-962480D01*
X56871Y-962559D01*
X56761Y-962669D01*
X56635Y-962779D01*
X56509Y-962905D01*
X56352Y-963030D01*
X56163Y-963156D01*
X55975Y-963298D01*
X55770Y-963423D01*
X55534Y-963533D01*
X55299Y-963659D01*
X55047Y-963754D01*
X54764Y-963848D01*
X54434Y-962433D01*
X54450D01*
X54481Y-962417D01*
X54544Y-962386D01*
X54622Y-962354D01*
X54717Y-962323D01*
X54843Y-962276D01*
X55094Y-962150D01*
X55377Y-961993D01*
X55660Y-961804D01*
X55927Y-961568D01*
X56163Y-961317D01*
X56195Y-961285D01*
X56258Y-961191D01*
X56336Y-961034D01*
X56446Y-960829D01*
X56541Y-960562D01*
X56635Y-960263D01*
X56698Y-959902D01*
X56714Y-959509D01*
Y-959383D01*
X56698Y-959304D01*
Y-959194D01*
X56682Y-959068D01*
X56635Y-958770D01*
X56572Y-958439D01*
X56462Y-958093D01*
X56305Y-957732D01*
X56100Y-957402D01*
Y-957386D01*
X56069Y-957370D01*
X55990Y-957260D01*
X55865Y-957119D01*
X55676Y-956946D01*
X55440Y-956741D01*
X55173Y-956553D01*
X54843Y-956380D01*
X54481Y-956223D01*
X54465D01*
X54434Y-956207D01*
X54387Y-956191D01*
X54308Y-956175D01*
X54214Y-956144D01*
X54104Y-956112D01*
X53836Y-956065D01*
X53522Y-956002D01*
X53176Y-955939D01*
X52799Y-955908D01*
X52390Y-955892D01*
X52374D01*
X52327D01*
X52248D01*
X52154D01*
X52044Y-955908D01*
X51902D01*
X51745Y-955924D01*
X51572Y-955939D01*
X51195Y-955987D01*
X50786Y-956065D01*
X50377Y-956160D01*
X49969Y-956285D01*
X49953D01*
X49921Y-956301D01*
X49874Y-956332D01*
X49796Y-956364D01*
X49607Y-956458D01*
X49387Y-956600D01*
X49135Y-956773D01*
X48868Y-956993D01*
X48632Y-957244D01*
X48412Y-957543D01*
Y-957559D01*
X48396Y-957590D01*
X48365Y-957637D01*
X48333Y-957700D01*
X48302Y-957779D01*
X48255Y-957873D01*
X48160Y-958093D01*
X48066Y-958376D01*
X47987Y-958691D01*
X47925Y-959037D01*
X47909Y-959398D01*
Y-959509D01*
X47925Y-959603D01*
Y-959713D01*
X47940Y-959823D01*
X48003Y-960106D01*
X48082Y-960436D01*
X48208Y-960766D01*
X48380Y-961112D01*
X48475Y-961285D01*
X48601Y-961442D01*
X48616Y-961458D01*
X48632Y-961474D01*
X48679Y-961521D01*
X48726Y-961584D01*
X48805Y-961647D01*
X48899Y-961725D01*
X48994Y-961820D01*
X49120Y-961898D01*
X49261Y-961993D01*
X49418Y-962103D01*
X49576Y-962197D01*
X49764Y-962291D01*
X49969Y-962370D01*
X50189Y-962449D01*
X50424Y-962527D01*
X50676Y-962590D01*
X50314Y-964037D01*
X50299D01*
X50236Y-964021D01*
X50142Y-963989D01*
X50016Y-963942D01*
X49874Y-963895D01*
X49701Y-963832D01*
X49513Y-963754D01*
X49308Y-963659D01*
X48868Y-963439D01*
X48428Y-963156D01*
X48208Y-962983D01*
X47987Y-962810D01*
X47799Y-962622D01*
X47610Y-962402D01*
X47594Y-962386D01*
X47563Y-962354D01*
X47531Y-962276D01*
X47469Y-962197D01*
X47390Y-962071D01*
X47311Y-961945D01*
X47233Y-961773D01*
X47154Y-961600D01*
X47060Y-961395D01*
X46981Y-961175D01*
X46903Y-960939D01*
X46824Y-960688D01*
X46761Y-960420D01*
X46730Y-960137D01*
X46698Y-959839D01*
X46683Y-959524D01*
Y-959351D01*
X46698Y-959225D01*
Y-959084D01*
X46714Y-958911D01*
X46745Y-958722D01*
X46777Y-958502D01*
X46856Y-958046D01*
X46981Y-957575D01*
X47154Y-957103D01*
X47264Y-956883D01*
X47390Y-956663D01*
X47406Y-956647D01*
X47421Y-956616D01*
X47469Y-956553D01*
X47531Y-956490D01*
X47594Y-956395D01*
X47689Y-956285D01*
X47799Y-956160D01*
X47925Y-956034D01*
X48066Y-955908D01*
X48208Y-955767D01*
X48569Y-955483D01*
X48994Y-955216D01*
X49465Y-954980D01*
X49481D01*
X49528Y-954949D01*
X49607Y-954933D01*
X49701Y-954886D01*
X49827Y-954855D01*
X49984Y-954807D01*
X50157Y-954744D01*
X50346Y-954697D01*
X50550Y-954650D01*
X50786Y-954587D01*
X51273Y-954509D01*
X51824Y-954446D01*
X52390Y-954414D01*
X52406D01*
X52468D01*
X52563D01*
X52673Y-954430D01*
D02*
G37*
G36*
X57610Y-972401D02*
X56556D01*
X56541Y-972385D01*
X56509Y-972354D01*
X56446Y-972291D01*
X56352Y-972228D01*
X56242Y-972134D01*
X56116Y-972008D01*
X55959Y-971882D01*
X55770Y-971741D01*
X55581Y-971599D01*
X55361Y-971426D01*
X55110Y-971253D01*
X54858Y-971080D01*
X54575Y-970892D01*
X54276Y-970703D01*
X53946Y-970514D01*
X53616Y-970326D01*
X53601Y-970310D01*
X53538Y-970278D01*
X53443Y-970231D01*
X53302Y-970153D01*
X53129Y-970074D01*
X52940Y-969980D01*
X52720Y-969870D01*
X52468Y-969760D01*
X52185Y-969634D01*
X51902Y-969492D01*
X51588Y-969367D01*
X51258Y-969241D01*
X50582Y-968989D01*
X49858Y-968753D01*
X49843D01*
X49796Y-968738D01*
X49717Y-968722D01*
X49623Y-968690D01*
X49497Y-968659D01*
X49340Y-968628D01*
X49167Y-968580D01*
X48978Y-968549D01*
X48758Y-968502D01*
X48522Y-968455D01*
X48019Y-968376D01*
X47469Y-968297D01*
X46871Y-968250D01*
Y-966882D01*
X46887D01*
X46934D01*
X46997D01*
X47091Y-966898D01*
X47217D01*
X47374Y-966914D01*
X47547Y-966930D01*
X47736Y-966945D01*
X47956Y-966977D01*
X48176Y-967008D01*
X48443Y-967055D01*
X48711Y-967103D01*
X48994Y-967150D01*
X49308Y-967213D01*
X49953Y-967370D01*
X49969D01*
X50031Y-967385D01*
X50126Y-967417D01*
X50267Y-967464D01*
X50424Y-967511D01*
X50613Y-967574D01*
X50833Y-967637D01*
X51069Y-967731D01*
X51336Y-967826D01*
X51604Y-967920D01*
X52201Y-968156D01*
X52830Y-968439D01*
X53459Y-968753D01*
X53475Y-968769D01*
X53538Y-968801D01*
X53616Y-968848D01*
X53742Y-968911D01*
X53884Y-968989D01*
X54056Y-969099D01*
X54245Y-969209D01*
X54450Y-969335D01*
X54905Y-969634D01*
X55377Y-969948D01*
X55865Y-970310D01*
X56321Y-970687D01*
Y-965357D01*
X57610D01*
Y-972401D01*
D02*
G37*
G36*
X57751Y-975294D02*
X55927D01*
X53899Y-974932D01*
Y-974099D01*
X55927Y-973769D01*
X57751D01*
Y-975294D01*
D02*
G37*
G36*
X-390811Y-954430D02*
X-390654D01*
X-390497Y-954446D01*
X-390292Y-954462D01*
X-390088Y-954493D01*
X-389632Y-954572D01*
X-389129Y-954682D01*
X-388626Y-954839D01*
X-388138Y-955059D01*
X-388123Y-955075D01*
X-388075Y-955090D01*
X-388013Y-955122D01*
X-387934Y-955185D01*
X-387824Y-955248D01*
X-387698Y-955326D01*
X-387415Y-955531D01*
X-387101Y-955798D01*
X-386786Y-956112D01*
X-386472Y-956474D01*
X-386204Y-956898D01*
X-386189Y-956914D01*
X-386173Y-956961D01*
X-386142Y-957024D01*
X-386094Y-957103D01*
X-386047Y-957229D01*
X-386000Y-957355D01*
X-385937Y-957512D01*
X-385874Y-957685D01*
X-385811Y-957873D01*
X-385748Y-958078D01*
X-385654Y-958518D01*
X-385576Y-959021D01*
X-385544Y-959540D01*
Y-959697D01*
X-385560Y-959807D01*
X-385576Y-959949D01*
X-385591Y-960122D01*
X-385607Y-960295D01*
X-385654Y-960499D01*
X-385748Y-960923D01*
X-385890Y-961395D01*
X-385984Y-961631D01*
X-386094Y-961851D01*
X-386236Y-962071D01*
X-386377Y-962291D01*
X-386393Y-962307D01*
X-386409Y-962339D01*
X-386456Y-962402D01*
X-386535Y-962480D01*
X-386613Y-962559D01*
X-386723Y-962669D01*
X-386849Y-962779D01*
X-386975Y-962905D01*
X-387132Y-963030D01*
X-387321Y-963156D01*
X-387509Y-963298D01*
X-387714Y-963423D01*
X-387950Y-963533D01*
X-388186Y-963659D01*
X-388437Y-963754D01*
X-388720Y-963848D01*
X-389050Y-962433D01*
X-389035D01*
X-389003Y-962417D01*
X-388940Y-962386D01*
X-388862Y-962354D01*
X-388767Y-962323D01*
X-388642Y-962276D01*
X-388390Y-962150D01*
X-388107Y-961993D01*
X-387824Y-961804D01*
X-387557Y-961568D01*
X-387321Y-961317D01*
X-387289Y-961285D01*
X-387226Y-961191D01*
X-387148Y-961034D01*
X-387038Y-960829D01*
X-386943Y-960562D01*
X-386849Y-960263D01*
X-386786Y-959902D01*
X-386771Y-959509D01*
Y-959383D01*
X-386786Y-959304D01*
Y-959194D01*
X-386802Y-959068D01*
X-386849Y-958770D01*
X-386912Y-958439D01*
X-387022Y-958093D01*
X-387179Y-957732D01*
X-387384Y-957402D01*
Y-957386D01*
X-387415Y-957370D01*
X-387494Y-957260D01*
X-387620Y-957119D01*
X-387808Y-956946D01*
X-388044Y-956741D01*
X-388311Y-956553D01*
X-388642Y-956380D01*
X-389003Y-956223D01*
X-389019D01*
X-389050Y-956207D01*
X-389097Y-956191D01*
X-389176Y-956175D01*
X-389270Y-956144D01*
X-389380Y-956112D01*
X-389648Y-956065D01*
X-389962Y-956002D01*
X-390308Y-955939D01*
X-390685Y-955908D01*
X-391094Y-955892D01*
X-391110D01*
X-391157D01*
X-391236D01*
X-391330D01*
X-391440Y-955908D01*
X-391582D01*
X-391739Y-955924D01*
X-391912Y-955939D01*
X-392289Y-955987D01*
X-392698Y-956065D01*
X-393107Y-956160D01*
X-393516Y-956285D01*
X-393531D01*
X-393563Y-956301D01*
X-393610Y-956332D01*
X-393688Y-956364D01*
X-393877Y-956458D01*
X-394097Y-956600D01*
X-394349Y-956773D01*
X-394616Y-956993D01*
X-394852Y-957244D01*
X-395072Y-957543D01*
Y-957559D01*
X-395088Y-957590D01*
X-395119Y-957637D01*
X-395151Y-957700D01*
X-395182Y-957779D01*
X-395229Y-957873D01*
X-395324Y-958093D01*
X-395418Y-958376D01*
X-395496Y-958691D01*
X-395559Y-959037D01*
X-395575Y-959398D01*
Y-959509D01*
X-395559Y-959603D01*
Y-959713D01*
X-395544Y-959823D01*
X-395481Y-960106D01*
X-395402Y-960436D01*
X-395276Y-960766D01*
X-395103Y-961112D01*
X-395009Y-961285D01*
X-394883Y-961442D01*
X-394868Y-961458D01*
X-394852Y-961474D01*
X-394805Y-961521D01*
X-394758Y-961584D01*
X-394679Y-961647D01*
X-394585Y-961725D01*
X-394490Y-961820D01*
X-394365Y-961898D01*
X-394223Y-961993D01*
X-394066Y-962103D01*
X-393909Y-962197D01*
X-393720Y-962291D01*
X-393516Y-962370D01*
X-393295Y-962449D01*
X-393060Y-962527D01*
X-392808Y-962590D01*
X-393170Y-964037D01*
X-393185D01*
X-393248Y-964021D01*
X-393343Y-963989D01*
X-393468Y-963942D01*
X-393610Y-963895D01*
X-393783Y-963832D01*
X-393971Y-963754D01*
X-394176Y-963659D01*
X-394616Y-963439D01*
X-395056Y-963156D01*
X-395276Y-962983D01*
X-395496Y-962810D01*
X-395685Y-962622D01*
X-395874Y-962402D01*
X-395890Y-962386D01*
X-395921Y-962354D01*
X-395952Y-962276D01*
X-396015Y-962197D01*
X-396094Y-962071D01*
X-396173Y-961945D01*
X-396251Y-961773D01*
X-396330Y-961600D01*
X-396424Y-961395D01*
X-396503Y-961175D01*
X-396581Y-960939D01*
X-396660Y-960688D01*
X-396723Y-960420D01*
X-396754Y-960137D01*
X-396786Y-959839D01*
X-396801Y-959524D01*
Y-959351D01*
X-396786Y-959225D01*
Y-959084D01*
X-396770Y-958911D01*
X-396739Y-958722D01*
X-396707Y-958502D01*
X-396628Y-958046D01*
X-396503Y-957575D01*
X-396330Y-957103D01*
X-396220Y-956883D01*
X-396094Y-956663D01*
X-396078Y-956647D01*
X-396063Y-956616D01*
X-396015Y-956553D01*
X-395952Y-956490D01*
X-395890Y-956395D01*
X-395795Y-956285D01*
X-395685Y-956160D01*
X-395559Y-956034D01*
X-395418Y-955908D01*
X-395276Y-955767D01*
X-394915Y-955483D01*
X-394490Y-955216D01*
X-394019Y-954980D01*
X-394003D01*
X-393956Y-954949D01*
X-393877Y-954933D01*
X-393783Y-954886D01*
X-393657Y-954855D01*
X-393500Y-954807D01*
X-393327Y-954744D01*
X-393138Y-954697D01*
X-392934Y-954650D01*
X-392698Y-954587D01*
X-392211Y-954509D01*
X-391660Y-954446D01*
X-391094Y-954414D01*
X-391078D01*
X-391016D01*
X-390921D01*
X-390811Y-954430D01*
D02*
G37*
G36*
X-391236Y-965216D02*
X-391016D01*
X-390764Y-965231D01*
X-390465Y-965263D01*
X-390135Y-965294D01*
X-389773Y-965342D01*
X-389412Y-965405D01*
X-389019Y-965483D01*
X-388642Y-965577D01*
X-388264Y-965687D01*
X-387902Y-965829D01*
X-387557Y-965986D01*
X-387226Y-966159D01*
X-386943Y-966364D01*
X-386928Y-966379D01*
X-386896Y-966411D01*
X-386833Y-966474D01*
X-386739Y-966552D01*
X-386645Y-966647D01*
X-386550Y-966772D01*
X-386425Y-966930D01*
X-386315Y-967087D01*
X-386204Y-967275D01*
X-386079Y-967480D01*
X-385984Y-967716D01*
X-385874Y-967952D01*
X-385796Y-968219D01*
X-385733Y-968502D01*
X-385701Y-968801D01*
X-385686Y-969115D01*
Y-969241D01*
X-385701Y-969335D01*
Y-969445D01*
X-385717Y-969571D01*
X-385780Y-969870D01*
X-385859Y-970200D01*
X-385984Y-970546D01*
X-386173Y-970892D01*
X-386283Y-971065D01*
X-386409Y-971222D01*
X-386425Y-971238D01*
X-386440Y-971253D01*
X-386488Y-971300D01*
X-386535Y-971348D01*
X-386613Y-971426D01*
X-386708Y-971489D01*
X-386928Y-971662D01*
X-387211Y-971835D01*
X-387557Y-971992D01*
X-387950Y-972134D01*
X-388390Y-972228D01*
X-388500Y-970892D01*
X-388484D01*
X-388469Y-970876D01*
X-388374Y-970860D01*
X-388233Y-970813D01*
X-388060Y-970750D01*
X-387871Y-970687D01*
X-387682Y-970593D01*
X-387509Y-970483D01*
X-387368Y-970373D01*
X-387337Y-970341D01*
X-387274Y-970278D01*
X-387179Y-970168D01*
X-387069Y-970011D01*
X-386975Y-969807D01*
X-386880Y-969587D01*
X-386818Y-969319D01*
X-386786Y-969036D01*
Y-968926D01*
X-386802Y-968801D01*
X-386833Y-968659D01*
X-386880Y-968470D01*
X-386943Y-968282D01*
X-387022Y-968093D01*
X-387148Y-967904D01*
X-387164Y-967873D01*
X-387226Y-967794D01*
X-387337Y-967684D01*
X-387494Y-967543D01*
X-387682Y-967385D01*
X-387902Y-967213D01*
X-388186Y-967055D01*
X-388500Y-966898D01*
X-388516D01*
X-388547Y-966882D01*
X-388594Y-966867D01*
X-388657Y-966835D01*
X-388751Y-966820D01*
X-388862Y-966788D01*
X-388987Y-966757D01*
X-389145Y-966725D01*
X-389318Y-966678D01*
X-389506Y-966647D01*
X-389711Y-966615D01*
X-389931Y-966599D01*
X-390182Y-966568D01*
X-390434Y-966552D01*
X-390717Y-966536D01*
X-391000D01*
X-390984Y-966552D01*
X-390890Y-966615D01*
X-390764Y-966725D01*
X-390607Y-966867D01*
X-390418Y-967024D01*
X-390245Y-967228D01*
X-390072Y-967448D01*
X-389915Y-967700D01*
Y-967716D01*
X-389899Y-967731D01*
X-389852Y-967826D01*
X-389805Y-967967D01*
X-389726Y-968156D01*
X-389663Y-968376D01*
X-389616Y-968628D01*
X-389569Y-968895D01*
X-389553Y-969178D01*
Y-969304D01*
X-389569Y-969398D01*
X-389585Y-969524D01*
X-389600Y-969650D01*
X-389632Y-969807D01*
X-389679Y-969964D01*
X-389789Y-970326D01*
X-389868Y-970514D01*
X-389978Y-970703D01*
X-390088Y-970892D01*
X-390214Y-971096D01*
X-390371Y-971285D01*
X-390544Y-971458D01*
X-390560Y-971473D01*
X-390591Y-971505D01*
X-390638Y-971552D01*
X-390717Y-971599D01*
X-390827Y-971678D01*
X-390937Y-971756D01*
X-391078Y-971835D01*
X-391236Y-971929D01*
X-391409Y-972024D01*
X-391597Y-972102D01*
X-391817Y-972181D01*
X-392038Y-972260D01*
X-392273Y-972307D01*
X-392541Y-972354D01*
X-392808Y-972385D01*
X-393091Y-972401D01*
X-393107D01*
X-393138D01*
X-393185D01*
X-393264D01*
X-393358Y-972385D01*
X-393453D01*
X-393704Y-972338D01*
X-394003Y-972291D01*
X-394317Y-972212D01*
X-394663Y-972102D01*
X-394993Y-971945D01*
X-395009D01*
X-395025Y-971929D01*
X-395072Y-971898D01*
X-395135Y-971867D01*
X-395292Y-971772D01*
X-395496Y-971631D01*
X-395717Y-971458D01*
X-395937Y-971253D01*
X-396157Y-971002D01*
X-396345Y-970734D01*
Y-970719D01*
X-396361Y-970703D01*
X-396393Y-970656D01*
X-396408Y-970593D01*
X-396487Y-970436D01*
X-396566Y-970231D01*
X-396660Y-969964D01*
X-396723Y-969665D01*
X-396786Y-969335D01*
X-396801Y-968973D01*
Y-968895D01*
X-396786Y-968816D01*
Y-968690D01*
X-396770Y-968549D01*
X-396739Y-968392D01*
X-396691Y-968203D01*
X-396644Y-968014D01*
X-396581Y-967794D01*
X-396503Y-967574D01*
X-396408Y-967354D01*
X-396283Y-967118D01*
X-396141Y-966898D01*
X-395984Y-966678D01*
X-395795Y-966458D01*
X-395575Y-966254D01*
X-395559Y-966238D01*
X-395512Y-966206D01*
X-395449Y-966159D01*
X-395339Y-966096D01*
X-395198Y-966002D01*
X-395041Y-965923D01*
X-394836Y-965829D01*
X-394616Y-965735D01*
X-394349Y-965625D01*
X-394050Y-965530D01*
X-393720Y-965452D01*
X-393358Y-965373D01*
X-392949Y-965294D01*
X-392509Y-965247D01*
X-392038Y-965216D01*
X-391534Y-965200D01*
X-391519D01*
X-391503D01*
X-391456D01*
X-391393D01*
X-391236Y-965216D01*
D02*
G37*
G36*
X-385733Y-975294D02*
X-387557D01*
X-389585Y-974932D01*
Y-974099D01*
X-387557Y-973769D01*
X-385733D01*
Y-975294D01*
D02*
G37*
G36*
X-829977Y-954430D02*
X-829820D01*
X-829663Y-954446D01*
X-829458Y-954462D01*
X-829254Y-954493D01*
X-828798Y-954572D01*
X-828295Y-954682D01*
X-827792Y-954839D01*
X-827304Y-955059D01*
X-827289Y-955075D01*
X-827241Y-955090D01*
X-827179Y-955122D01*
X-827100Y-955185D01*
X-826990Y-955248D01*
X-826864Y-955326D01*
X-826581Y-955531D01*
X-826267Y-955798D01*
X-825952Y-956112D01*
X-825638Y-956474D01*
X-825370Y-956898D01*
X-825355Y-956914D01*
X-825339Y-956961D01*
X-825308Y-957024D01*
X-825260Y-957103D01*
X-825213Y-957229D01*
X-825166Y-957355D01*
X-825103Y-957512D01*
X-825040Y-957685D01*
X-824977Y-957873D01*
X-824914Y-958078D01*
X-824820Y-958518D01*
X-824742Y-959021D01*
X-824710Y-959540D01*
Y-959697D01*
X-824726Y-959807D01*
X-824742Y-959949D01*
X-824757Y-960122D01*
X-824773Y-960295D01*
X-824820Y-960499D01*
X-824914Y-960923D01*
X-825056Y-961395D01*
X-825150Y-961631D01*
X-825260Y-961851D01*
X-825402Y-962071D01*
X-825543Y-962291D01*
X-825559Y-962307D01*
X-825575Y-962339D01*
X-825622Y-962402D01*
X-825701Y-962480D01*
X-825779Y-962559D01*
X-825889Y-962669D01*
X-826015Y-962779D01*
X-826141Y-962905D01*
X-826298Y-963030D01*
X-826487Y-963156D01*
X-826675Y-963298D01*
X-826880Y-963423D01*
X-827116Y-963533D01*
X-827352Y-963659D01*
X-827603Y-963754D01*
X-827886Y-963848D01*
X-828216Y-962433D01*
X-828201D01*
X-828169Y-962417D01*
X-828106Y-962386D01*
X-828028Y-962354D01*
X-827933Y-962323D01*
X-827807Y-962276D01*
X-827556Y-962150D01*
X-827273Y-961993D01*
X-826990Y-961804D01*
X-826723Y-961568D01*
X-826487Y-961317D01*
X-826455Y-961285D01*
X-826392Y-961191D01*
X-826314Y-961034D01*
X-826204Y-960829D01*
X-826109Y-960562D01*
X-826015Y-960263D01*
X-825952Y-959902D01*
X-825937Y-959509D01*
Y-959383D01*
X-825952Y-959304D01*
Y-959194D01*
X-825968Y-959068D01*
X-826015Y-958770D01*
X-826078Y-958439D01*
X-826188Y-958093D01*
X-826345Y-957732D01*
X-826550Y-957402D01*
Y-957386D01*
X-826581Y-957370D01*
X-826660Y-957260D01*
X-826786Y-957119D01*
X-826974Y-956946D01*
X-827210Y-956741D01*
X-827477Y-956553D01*
X-827807Y-956380D01*
X-828169Y-956223D01*
X-828185D01*
X-828216Y-956207D01*
X-828263Y-956191D01*
X-828342Y-956175D01*
X-828436Y-956144D01*
X-828546Y-956112D01*
X-828814Y-956065D01*
X-829128Y-956002D01*
X-829474Y-955939D01*
X-829851Y-955908D01*
X-830260Y-955892D01*
X-830276D01*
X-830323D01*
X-830402D01*
X-830496D01*
X-830606Y-955908D01*
X-830748D01*
X-830905Y-955924D01*
X-831078Y-955939D01*
X-831455Y-955987D01*
X-831864Y-956065D01*
X-832273Y-956160D01*
X-832682Y-956285D01*
X-832697D01*
X-832729Y-956301D01*
X-832776Y-956332D01*
X-832854Y-956364D01*
X-833043Y-956458D01*
X-833263Y-956600D01*
X-833515Y-956773D01*
X-833782Y-956993D01*
X-834018Y-957244D01*
X-834238Y-957543D01*
Y-957559D01*
X-834254Y-957590D01*
X-834285Y-957637D01*
X-834317Y-957700D01*
X-834348Y-957779D01*
X-834395Y-957873D01*
X-834490Y-958093D01*
X-834584Y-958376D01*
X-834662Y-958691D01*
X-834725Y-959037D01*
X-834741Y-959398D01*
Y-959509D01*
X-834725Y-959603D01*
Y-959713D01*
X-834710Y-959823D01*
X-834647Y-960106D01*
X-834568Y-960436D01*
X-834442Y-960766D01*
X-834269Y-961112D01*
X-834175Y-961285D01*
X-834049Y-961442D01*
X-834034Y-961458D01*
X-834018Y-961474D01*
X-833971Y-961521D01*
X-833924Y-961584D01*
X-833845Y-961647D01*
X-833751Y-961725D01*
X-833656Y-961820D01*
X-833531Y-961898D01*
X-833389Y-961993D01*
X-833232Y-962103D01*
X-833074Y-962197D01*
X-832886Y-962291D01*
X-832682Y-962370D01*
X-832461Y-962449D01*
X-832225Y-962527D01*
X-831974Y-962590D01*
X-832336Y-964037D01*
X-832351D01*
X-832414Y-964021D01*
X-832508Y-963989D01*
X-832634Y-963942D01*
X-832776Y-963895D01*
X-832949Y-963832D01*
X-833137Y-963754D01*
X-833342Y-963659D01*
X-833782Y-963439D01*
X-834222Y-963156D01*
X-834442Y-962983D01*
X-834662Y-962810D01*
X-834851Y-962622D01*
X-835040Y-962402D01*
X-835056Y-962386D01*
X-835087Y-962354D01*
X-835118Y-962276D01*
X-835181Y-962197D01*
X-835260Y-962071D01*
X-835339Y-961945D01*
X-835417Y-961773D01*
X-835496Y-961600D01*
X-835590Y-961395D01*
X-835669Y-961175D01*
X-835747Y-960939D01*
X-835826Y-960688D01*
X-835889Y-960420D01*
X-835920Y-960137D01*
X-835952Y-959839D01*
X-835967Y-959524D01*
Y-959351D01*
X-835952Y-959225D01*
Y-959084D01*
X-835936Y-958911D01*
X-835905Y-958722D01*
X-835873Y-958502D01*
X-835795Y-958046D01*
X-835669Y-957575D01*
X-835496Y-957103D01*
X-835386Y-956883D01*
X-835260Y-956663D01*
X-835244Y-956647D01*
X-835229Y-956616D01*
X-835181Y-956553D01*
X-835118Y-956490D01*
X-835056Y-956395D01*
X-834961Y-956285D01*
X-834851Y-956160D01*
X-834725Y-956034D01*
X-834584Y-955908D01*
X-834442Y-955767D01*
X-834081Y-955483D01*
X-833656Y-955216D01*
X-833185Y-954980D01*
X-833169D01*
X-833122Y-954949D01*
X-833043Y-954933D01*
X-832949Y-954886D01*
X-832823Y-954855D01*
X-832666Y-954807D01*
X-832493Y-954744D01*
X-832304Y-954697D01*
X-832100Y-954650D01*
X-831864Y-954587D01*
X-831376Y-954509D01*
X-830826Y-954446D01*
X-830260Y-954414D01*
X-830245D01*
X-830182D01*
X-830087D01*
X-829977Y-954430D01*
D02*
G37*
G36*
X-832823Y-966662D02*
X-832839D01*
X-832870D01*
X-832917Y-966678D01*
X-832996Y-966694D01*
X-833169Y-966741D01*
X-833405Y-966804D01*
X-833641Y-966898D01*
X-833908Y-967024D01*
X-834144Y-967181D01*
X-834364Y-967370D01*
X-834380Y-967401D01*
X-834442Y-967464D01*
X-834521Y-967590D01*
X-834615Y-967763D01*
X-834710Y-967952D01*
X-834788Y-968187D01*
X-834851Y-968455D01*
X-834867Y-968753D01*
Y-968848D01*
X-834851Y-968911D01*
X-834836Y-969099D01*
X-834773Y-969319D01*
X-834694Y-969587D01*
X-834568Y-969854D01*
X-834380Y-970137D01*
X-834269Y-970263D01*
X-834144Y-970388D01*
X-834128Y-970404D01*
X-834112Y-970420D01*
X-834065Y-970451D01*
X-834018Y-970499D01*
X-833845Y-970609D01*
X-833625Y-970734D01*
X-833357Y-970844D01*
X-833027Y-970955D01*
X-832634Y-971033D01*
X-832430Y-971065D01*
X-832210D01*
X-832194D01*
X-832163D01*
X-832100D01*
X-832021Y-971049D01*
X-831927D01*
X-831817Y-971033D01*
X-831565Y-970986D01*
X-831266Y-970907D01*
X-830968Y-970797D01*
X-830685Y-970640D01*
X-830417Y-970420D01*
X-830402D01*
X-830386Y-970388D01*
X-830307Y-970310D01*
X-830197Y-970168D01*
X-830071Y-969980D01*
X-829961Y-969728D01*
X-829851Y-969445D01*
X-829773Y-969115D01*
X-829741Y-968926D01*
Y-968628D01*
X-829757Y-968502D01*
X-829773Y-968345D01*
X-829820Y-968156D01*
X-829867Y-967967D01*
X-829946Y-967763D01*
X-830040Y-967559D01*
X-830056Y-967543D01*
X-830087Y-967480D01*
X-830166Y-967385D01*
X-830245Y-967260D01*
X-830355Y-967134D01*
X-830496Y-967008D01*
X-830638Y-966867D01*
X-830810Y-966757D01*
X-830638Y-965499D01*
X-825040Y-966552D01*
Y-971961D01*
X-826314D01*
Y-967606D01*
X-829254Y-967024D01*
X-829238Y-967040D01*
X-829222Y-967071D01*
X-829191Y-967118D01*
X-829144Y-967197D01*
X-829097Y-967291D01*
X-829034Y-967401D01*
X-828908Y-967653D01*
X-828782Y-967967D01*
X-828672Y-968313D01*
X-828594Y-968690D01*
X-828562Y-968879D01*
Y-969225D01*
X-828578Y-969319D01*
X-828594Y-969445D01*
X-828609Y-969587D01*
X-828641Y-969744D01*
X-828688Y-969917D01*
X-828798Y-970294D01*
X-828877Y-970499D01*
X-828987Y-970703D01*
X-829097Y-970907D01*
X-829222Y-971112D01*
X-829380Y-971300D01*
X-829553Y-971489D01*
X-829568Y-971505D01*
X-829600Y-971536D01*
X-829647Y-971583D01*
X-829726Y-971646D01*
X-829836Y-971725D01*
X-829946Y-971804D01*
X-830087Y-971898D01*
X-830245Y-971992D01*
X-830417Y-972071D01*
X-830606Y-972165D01*
X-830826Y-972244D01*
X-831046Y-972322D01*
X-831282Y-972385D01*
X-831549Y-972432D01*
X-831817Y-972464D01*
X-832100Y-972480D01*
X-832115D01*
X-832163D01*
X-832241D01*
X-832351Y-972464D01*
X-832477Y-972448D01*
X-832619Y-972432D01*
X-832792Y-972401D01*
X-832964Y-972370D01*
X-833373Y-972275D01*
X-833798Y-972118D01*
X-834018Y-972024D01*
X-834222Y-971898D01*
X-834442Y-971772D01*
X-834647Y-971615D01*
X-834662Y-971599D01*
X-834710Y-971568D01*
X-834773Y-971505D01*
X-834851Y-971426D01*
X-834946Y-971316D01*
X-835071Y-971190D01*
X-835181Y-971033D01*
X-835307Y-970860D01*
X-835433Y-970671D01*
X-835543Y-970451D01*
X-835653Y-970216D01*
X-835763Y-969964D01*
X-835842Y-969697D01*
X-835905Y-969398D01*
X-835952Y-969084D01*
X-835967Y-968753D01*
Y-968612D01*
X-835952Y-968502D01*
X-835936Y-968376D01*
X-835920Y-968234D01*
X-835905Y-968062D01*
X-835857Y-967889D01*
X-835763Y-967496D01*
X-835622Y-967103D01*
X-835527Y-966898D01*
X-835417Y-966694D01*
X-835291Y-966505D01*
X-835150Y-966316D01*
X-835134Y-966301D01*
X-835118Y-966269D01*
X-835056Y-966238D01*
X-834993Y-966175D01*
X-834914Y-966096D01*
X-834820Y-966018D01*
X-834694Y-965923D01*
X-834553Y-965845D01*
X-834411Y-965750D01*
X-834238Y-965656D01*
X-833861Y-965483D01*
X-833420Y-965342D01*
X-833185Y-965294D01*
X-832933Y-965263D01*
X-832823Y-966662D01*
D02*
G37*
G36*
X-824899Y-975294D02*
X-826723D01*
X-828751Y-974932D01*
Y-974099D01*
X-826723Y-973769D01*
X-824899D01*
Y-975294D01*
D02*
G37*
G36*
X436083Y-670914D02*
Y-671747D01*
X434055Y-672077D01*
X432231D01*
Y-670552D01*
X434055D01*
X436083Y-670914D01*
D02*
G37*
G36*
X440501Y-674970D02*
X443111D01*
Y-676307D01*
X440501D01*
Y-681039D01*
X439275D01*
X432231Y-676055D01*
Y-674970D01*
X439275D01*
Y-673493D01*
X440501D01*
Y-674970D01*
D02*
G37*
G36*
X439747Y-681825D02*
X439841Y-681857D01*
X439967Y-681904D01*
X440108Y-681951D01*
X440281Y-682014D01*
X440470Y-682093D01*
X440674Y-682187D01*
X441114Y-682407D01*
X441555Y-682690D01*
X441775Y-682863D01*
X441995Y-683036D01*
X442184Y-683225D01*
X442372Y-683445D01*
X442388Y-683461D01*
X442419Y-683492D01*
X442451Y-683571D01*
X442514Y-683649D01*
X442592Y-683775D01*
X442671Y-683901D01*
X442750Y-684074D01*
X442828Y-684247D01*
X442923Y-684451D01*
X443001Y-684671D01*
X443080Y-684907D01*
X443158Y-685159D01*
X443221Y-685426D01*
X443253Y-685709D01*
X443284Y-686008D01*
X443300Y-686322D01*
Y-686495D01*
X443284Y-686621D01*
Y-686762D01*
X443268Y-686935D01*
X443237Y-687124D01*
X443205Y-687344D01*
X443127Y-687800D01*
X443001Y-688272D01*
X442828Y-688743D01*
X442718Y-688963D01*
X442592Y-689184D01*
X442577Y-689199D01*
X442561Y-689231D01*
X442514Y-689294D01*
X442451Y-689357D01*
X442388Y-689451D01*
X442294Y-689561D01*
X442184Y-689687D01*
X442058Y-689813D01*
X441916Y-689938D01*
X441775Y-690080D01*
X441413Y-690363D01*
X440989Y-690630D01*
X440517Y-690866D01*
X440501D01*
X440454Y-690897D01*
X440376Y-690913D01*
X440281Y-690960D01*
X440155Y-690992D01*
X439998Y-691039D01*
X439825Y-691102D01*
X439636Y-691149D01*
X439432Y-691196D01*
X439196Y-691259D01*
X438709Y-691338D01*
X438159Y-691401D01*
X437593Y-691432D01*
X437577D01*
X437514D01*
X437420D01*
X437310Y-691416D01*
X437152D01*
X436995Y-691401D01*
X436791Y-691385D01*
X436586Y-691353D01*
X436130Y-691275D01*
X435627Y-691165D01*
X435124Y-691008D01*
X434637Y-690787D01*
X434621Y-690772D01*
X434574Y-690756D01*
X434511Y-690724D01*
X434432Y-690662D01*
X434322Y-690599D01*
X434197Y-690520D01*
X433913Y-690316D01*
X433599Y-690048D01*
X433285Y-689734D01*
X432970Y-689372D01*
X432703Y-688948D01*
X432687Y-688932D01*
X432671Y-688885D01*
X432640Y-688822D01*
X432593Y-688743D01*
X432546Y-688618D01*
X432498Y-688492D01*
X432436Y-688335D01*
X432373Y-688162D01*
X432310Y-687973D01*
X432247Y-687769D01*
X432153Y-687328D01*
X432074Y-686825D01*
X432043Y-686306D01*
Y-686149D01*
X432058Y-686039D01*
X432074Y-685898D01*
X432090Y-685725D01*
X432105Y-685552D01*
X432153Y-685347D01*
X432247Y-684923D01*
X432388Y-684451D01*
X432483Y-684215D01*
X432593Y-683995D01*
X432734Y-683775D01*
X432876Y-683555D01*
X432892Y-683539D01*
X432907Y-683508D01*
X432954Y-683445D01*
X433033Y-683366D01*
X433112Y-683288D01*
X433222Y-683178D01*
X433348Y-683068D01*
X433473Y-682942D01*
X433630Y-682816D01*
X433819Y-682690D01*
X434008Y-682549D01*
X434212Y-682423D01*
X434448Y-682313D01*
X434684Y-682187D01*
X434935Y-682093D01*
X435219Y-681998D01*
X435549Y-683413D01*
X435533D01*
X435502Y-683429D01*
X435439Y-683461D01*
X435360Y-683492D01*
X435266Y-683523D01*
X435140Y-683571D01*
X434888Y-683697D01*
X434605Y-683854D01*
X434322Y-684042D01*
X434055Y-684278D01*
X433819Y-684530D01*
X433788Y-684561D01*
X433725Y-684656D01*
X433646Y-684813D01*
X433536Y-685017D01*
X433442Y-685285D01*
X433348Y-685583D01*
X433285Y-685945D01*
X433269Y-686338D01*
Y-686464D01*
X433285Y-686542D01*
Y-686652D01*
X433300Y-686778D01*
X433348Y-687077D01*
X433410Y-687407D01*
X433520Y-687753D01*
X433678Y-688114D01*
X433882Y-688445D01*
Y-688460D01*
X433913Y-688476D01*
X433992Y-688586D01*
X434118Y-688728D01*
X434306Y-688901D01*
X434542Y-689105D01*
X434810Y-689294D01*
X435140Y-689467D01*
X435502Y-689624D01*
X435517D01*
X435549Y-689640D01*
X435596Y-689655D01*
X435674Y-689671D01*
X435769Y-689703D01*
X435879Y-689734D01*
X436146Y-689781D01*
X436460Y-689844D01*
X436806Y-689907D01*
X437184Y-689938D01*
X437593Y-689954D01*
X437608D01*
X437655D01*
X437734D01*
X437828D01*
X437938Y-689938D01*
X438080D01*
X438237Y-689923D01*
X438410Y-689907D01*
X438787Y-689860D01*
X439196Y-689781D01*
X439605Y-689687D01*
X440014Y-689561D01*
X440030D01*
X440061Y-689545D01*
X440108Y-689514D01*
X440187Y-689482D01*
X440376Y-689388D01*
X440596Y-689247D01*
X440847Y-689074D01*
X441114Y-688854D01*
X441350Y-688602D01*
X441570Y-688303D01*
Y-688288D01*
X441586Y-688256D01*
X441618Y-688209D01*
X441649Y-688146D01*
X441680Y-688067D01*
X441728Y-687973D01*
X441822Y-687753D01*
X441916Y-687470D01*
X441995Y-687155D01*
X442058Y-686809D01*
X442074Y-686448D01*
Y-686338D01*
X442058Y-686244D01*
Y-686133D01*
X442042Y-686023D01*
X441979Y-685740D01*
X441901Y-685410D01*
X441775Y-685080D01*
X441602Y-684734D01*
X441507Y-684561D01*
X441382Y-684404D01*
X441366Y-684388D01*
X441350Y-684372D01*
X441303Y-684325D01*
X441256Y-684262D01*
X441177Y-684200D01*
X441083Y-684121D01*
X440989Y-684027D01*
X440863Y-683948D01*
X440721Y-683854D01*
X440564Y-683744D01*
X440407Y-683649D01*
X440218Y-683555D01*
X440014Y-683476D01*
X439794Y-683398D01*
X439558Y-683319D01*
X439306Y-683256D01*
X439668Y-681810D01*
X439684D01*
X439747Y-681825D01*
D02*
G37*
G36*
X-7401Y-670914D02*
Y-671747D01*
X-9429Y-672077D01*
X-11253D01*
Y-670552D01*
X-9429D01*
X-7401Y-670914D01*
D02*
G37*
G36*
X-3344Y-673461D02*
X-3219Y-673477D01*
X-3077Y-673508D01*
X-2920Y-673540D01*
X-2747Y-673571D01*
X-2370Y-673697D01*
X-2165Y-673791D01*
X-1977Y-673886D01*
X-1772Y-674011D01*
X-1568Y-674153D01*
X-1363Y-674310D01*
X-1175Y-674499D01*
X-1159Y-674514D01*
X-1128Y-674546D01*
X-1080Y-674609D01*
X-1017Y-674687D01*
X-939Y-674782D01*
X-860Y-674908D01*
X-766Y-675049D01*
X-687Y-675222D01*
X-593Y-675395D01*
X-499Y-675599D01*
X-420Y-675804D01*
X-341Y-676040D01*
X-279Y-676291D01*
X-231Y-676558D01*
X-200Y-676826D01*
X-184Y-677124D01*
Y-677266D01*
X-200Y-677360D01*
X-216Y-677486D01*
X-231Y-677627D01*
X-263Y-677785D01*
X-294Y-677958D01*
X-388Y-678335D01*
X-546Y-678728D01*
X-640Y-678932D01*
X-750Y-679121D01*
X-892Y-679310D01*
X-1033Y-679499D01*
X-1049Y-679514D01*
X-1080Y-679546D01*
X-1128Y-679593D01*
X-1190Y-679640D01*
X-1269Y-679719D01*
X-1379Y-679797D01*
X-1489Y-679892D01*
X-1631Y-679986D01*
X-1788Y-680080D01*
X-1945Y-680175D01*
X-2322Y-680348D01*
X-2763Y-680489D01*
X-2998Y-680536D01*
X-3250Y-680568D01*
X-3423Y-679231D01*
X-3407D01*
X-3376Y-679215D01*
X-3313Y-679200D01*
X-3234Y-679184D01*
X-3140Y-679168D01*
X-3030Y-679137D01*
X-2794Y-679058D01*
X-2511Y-678948D01*
X-2244Y-678807D01*
X-1992Y-678650D01*
X-1772Y-678461D01*
X-1756Y-678429D01*
X-1693Y-678366D01*
X-1615Y-678241D01*
X-1536Y-678083D01*
X-1442Y-677895D01*
X-1363Y-677659D01*
X-1300Y-677392D01*
X-1285Y-677109D01*
Y-677014D01*
X-1300Y-676952D01*
X-1316Y-676778D01*
X-1363Y-676558D01*
X-1442Y-676307D01*
X-1552Y-676040D01*
X-1709Y-675772D01*
X-1929Y-675521D01*
X-1961Y-675489D01*
X-2055Y-675411D01*
X-2197Y-675316D01*
X-2385Y-675191D01*
X-2621Y-675065D01*
X-2888Y-674970D01*
X-3203Y-674892D01*
X-3549Y-674860D01*
X-3564D01*
X-3596D01*
X-3643D01*
X-3706Y-674876D01*
X-3879Y-674892D01*
X-4083Y-674939D01*
X-4335Y-675002D01*
X-4586Y-675112D01*
X-4838Y-675269D01*
X-5074Y-675474D01*
X-5105Y-675505D01*
X-5168Y-675584D01*
X-5263Y-675709D01*
X-5373Y-675882D01*
X-5483Y-676103D01*
X-5577Y-676370D01*
X-5640Y-676668D01*
X-5671Y-676999D01*
Y-677140D01*
X-5656Y-677250D01*
X-5640Y-677392D01*
X-5608Y-677549D01*
X-5577Y-677738D01*
X-5530Y-677942D01*
X-6709Y-677785D01*
Y-677706D01*
X-6693Y-677643D01*
Y-677439D01*
X-6725Y-677266D01*
X-6756Y-677061D01*
X-6803Y-676826D01*
X-6882Y-676558D01*
X-6992Y-676307D01*
X-7133Y-676040D01*
Y-676024D01*
X-7149Y-676008D01*
X-7212Y-675929D01*
X-7322Y-675819D01*
X-7464Y-675694D01*
X-7668Y-675568D01*
X-7904Y-675458D01*
X-8171Y-675379D01*
X-8328Y-675348D01*
X-8501D01*
X-8517D01*
X-8533D01*
X-8627D01*
X-8753Y-675379D01*
X-8926Y-675411D01*
X-9115Y-675474D01*
X-9319Y-675552D01*
X-9523Y-675678D01*
X-9712Y-675851D01*
X-9728Y-675867D01*
X-9791Y-675945D01*
X-9869Y-676055D01*
X-9964Y-676197D01*
X-10042Y-676385D01*
X-10121Y-676606D01*
X-10184Y-676857D01*
X-10199Y-677140D01*
Y-677266D01*
X-10168Y-677407D01*
X-10136Y-677596D01*
X-10074Y-677801D01*
X-9995Y-678005D01*
X-9869Y-678225D01*
X-9712Y-678429D01*
X-9696Y-678445D01*
X-9618Y-678508D01*
X-9508Y-678602D01*
X-9350Y-678712D01*
X-9146Y-678822D01*
X-8894Y-678932D01*
X-8596Y-679027D01*
X-8250Y-679090D01*
X-8486Y-680426D01*
X-8501D01*
X-8548Y-680411D01*
X-8611Y-680395D01*
X-8706Y-680379D01*
X-8816Y-680348D01*
X-8942Y-680300D01*
X-9240Y-680206D01*
X-9586Y-680049D01*
X-9932Y-679860D01*
X-10262Y-679624D01*
X-10561Y-679326D01*
X-10577Y-679310D01*
X-10592Y-679278D01*
X-10624Y-679231D01*
X-10671Y-679168D01*
X-10734Y-679090D01*
X-10797Y-678980D01*
X-10860Y-678870D01*
X-10938Y-678728D01*
X-11064Y-678414D01*
X-11190Y-678052D01*
X-11269Y-677627D01*
X-11300Y-677407D01*
Y-677014D01*
X-11284Y-676841D01*
X-11253Y-676637D01*
X-11206Y-676385D01*
X-11127Y-676103D01*
X-11033Y-675819D01*
X-10907Y-675536D01*
Y-675521D01*
X-10891Y-675505D01*
X-10844Y-675411D01*
X-10750Y-675269D01*
X-10640Y-675112D01*
X-10482Y-674923D01*
X-10309Y-674735D01*
X-10105Y-674546D01*
X-9869Y-674389D01*
X-9838Y-674373D01*
X-9759Y-674326D01*
X-9618Y-674263D01*
X-9445Y-674184D01*
X-9240Y-674106D01*
X-9004Y-674043D01*
X-8737Y-673996D01*
X-8470Y-673980D01*
X-8439D01*
X-8344D01*
X-8218Y-673996D01*
X-8045Y-674027D01*
X-7841Y-674074D01*
X-7621Y-674153D01*
X-7401Y-674247D01*
X-7181Y-674373D01*
X-7149Y-674389D01*
X-7086Y-674436D01*
X-6976Y-674530D01*
X-6851Y-674656D01*
X-6709Y-674813D01*
X-6552Y-675002D01*
X-6410Y-675222D01*
X-6269Y-675489D01*
Y-675474D01*
X-6253Y-675442D01*
X-6237Y-675395D01*
X-6222Y-675332D01*
X-6159Y-675159D01*
X-6064Y-674939D01*
X-5939Y-674687D01*
X-5781Y-674436D01*
X-5577Y-674200D01*
X-5341Y-673980D01*
X-5310Y-673964D01*
X-5215Y-673901D01*
X-5058Y-673807D01*
X-4854Y-673713D01*
X-4602Y-673618D01*
X-4303Y-673524D01*
X-3957Y-673461D01*
X-3580Y-673445D01*
X-3564D01*
X-3517D01*
X-3439D01*
X-3344Y-673461D01*
D02*
G37*
G36*
X-3737Y-681825D02*
X-3643Y-681857D01*
X-3517Y-681904D01*
X-3376Y-681951D01*
X-3203Y-682014D01*
X-3014Y-682093D01*
X-2810Y-682187D01*
X-2370Y-682407D01*
X-1929Y-682690D01*
X-1709Y-682863D01*
X-1489Y-683036D01*
X-1300Y-683225D01*
X-1112Y-683445D01*
X-1096Y-683461D01*
X-1065Y-683492D01*
X-1033Y-683571D01*
X-970Y-683649D01*
X-892Y-683775D01*
X-813Y-683901D01*
X-734Y-684074D01*
X-656Y-684247D01*
X-562Y-684451D01*
X-483Y-684671D01*
X-404Y-684907D01*
X-326Y-685159D01*
X-263Y-685426D01*
X-231Y-685709D01*
X-200Y-686008D01*
X-184Y-686322D01*
Y-686495D01*
X-200Y-686621D01*
Y-686762D01*
X-216Y-686935D01*
X-247Y-687124D01*
X-279Y-687344D01*
X-357Y-687800D01*
X-483Y-688272D01*
X-656Y-688743D01*
X-766Y-688963D01*
X-892Y-689184D01*
X-907Y-689199D01*
X-923Y-689231D01*
X-970Y-689294D01*
X-1033Y-689357D01*
X-1096Y-689451D01*
X-1190Y-689561D01*
X-1300Y-689687D01*
X-1426Y-689813D01*
X-1568Y-689938D01*
X-1709Y-690080D01*
X-2071Y-690363D01*
X-2495Y-690630D01*
X-2967Y-690866D01*
X-2983D01*
X-3030Y-690897D01*
X-3108Y-690913D01*
X-3203Y-690960D01*
X-3329Y-690992D01*
X-3486Y-691039D01*
X-3659Y-691102D01*
X-3848Y-691149D01*
X-4052Y-691196D01*
X-4288Y-691259D01*
X-4775Y-691338D01*
X-5325Y-691401D01*
X-5891Y-691432D01*
X-5907D01*
X-5970D01*
X-6064D01*
X-6174Y-691416D01*
X-6332D01*
X-6489Y-691401D01*
X-6693Y-691385D01*
X-6898Y-691353D01*
X-7354Y-691275D01*
X-7857Y-691165D01*
X-8360Y-691008D01*
X-8847Y-690787D01*
X-8863Y-690772D01*
X-8910Y-690756D01*
X-8973Y-690724D01*
X-9052Y-690662D01*
X-9162Y-690599D01*
X-9287Y-690520D01*
X-9571Y-690316D01*
X-9885Y-690048D01*
X-10199Y-689734D01*
X-10514Y-689372D01*
X-10781Y-688948D01*
X-10797Y-688932D01*
X-10813Y-688885D01*
X-10844Y-688822D01*
X-10891Y-688743D01*
X-10938Y-688618D01*
X-10986Y-688492D01*
X-11048Y-688335D01*
X-11111Y-688162D01*
X-11174Y-687973D01*
X-11237Y-687769D01*
X-11331Y-687328D01*
X-11410Y-686825D01*
X-11442Y-686306D01*
Y-686149D01*
X-11426Y-686039D01*
X-11410Y-685898D01*
X-11394Y-685725D01*
X-11379Y-685552D01*
X-11331Y-685347D01*
X-11237Y-684923D01*
X-11096Y-684451D01*
X-11001Y-684215D01*
X-10891Y-683995D01*
X-10750Y-683775D01*
X-10608Y-683555D01*
X-10592Y-683539D01*
X-10577Y-683508D01*
X-10530Y-683445D01*
X-10451Y-683366D01*
X-10372Y-683288D01*
X-10262Y-683178D01*
X-10136Y-683068D01*
X-10011Y-682942D01*
X-9854Y-682816D01*
X-9665Y-682690D01*
X-9476Y-682549D01*
X-9272Y-682423D01*
X-9036Y-682313D01*
X-8800Y-682187D01*
X-8548Y-682093D01*
X-8266Y-681998D01*
X-7935Y-683413D01*
X-7951D01*
X-7983Y-683429D01*
X-8045Y-683461D01*
X-8124Y-683492D01*
X-8218Y-683523D01*
X-8344Y-683571D01*
X-8596Y-683697D01*
X-8879Y-683854D01*
X-9162Y-684042D01*
X-9429Y-684278D01*
X-9665Y-684530D01*
X-9696Y-684561D01*
X-9759Y-684656D01*
X-9838Y-684813D01*
X-9948Y-685017D01*
X-10042Y-685285D01*
X-10136Y-685583D01*
X-10199Y-685945D01*
X-10215Y-686338D01*
Y-686464D01*
X-10199Y-686542D01*
Y-686652D01*
X-10184Y-686778D01*
X-10136Y-687077D01*
X-10074Y-687407D01*
X-9964Y-687753D01*
X-9806Y-688114D01*
X-9602Y-688445D01*
Y-688460D01*
X-9571Y-688476D01*
X-9492Y-688586D01*
X-9366Y-688728D01*
X-9178Y-688901D01*
X-8942Y-689105D01*
X-8674Y-689294D01*
X-8344Y-689467D01*
X-7983Y-689624D01*
X-7967D01*
X-7935Y-689640D01*
X-7888Y-689655D01*
X-7810Y-689671D01*
X-7715Y-689703D01*
X-7605Y-689734D01*
X-7338Y-689781D01*
X-7024Y-689844D01*
X-6678Y-689907D01*
X-6300Y-689938D01*
X-5891Y-689954D01*
X-5876D01*
X-5828D01*
X-5750D01*
X-5656D01*
X-5545Y-689938D01*
X-5404D01*
X-5247Y-689923D01*
X-5074Y-689907D01*
X-4697Y-689860D01*
X-4288Y-689781D01*
X-3879Y-689687D01*
X-3470Y-689561D01*
X-3454D01*
X-3423Y-689545D01*
X-3376Y-689514D01*
X-3297Y-689482D01*
X-3108Y-689388D01*
X-2888Y-689247D01*
X-2637Y-689074D01*
X-2370Y-688854D01*
X-2134Y-688602D01*
X-1914Y-688303D01*
Y-688288D01*
X-1898Y-688256D01*
X-1866Y-688209D01*
X-1835Y-688146D01*
X-1804Y-688067D01*
X-1756Y-687973D01*
X-1662Y-687753D01*
X-1568Y-687470D01*
X-1489Y-687155D01*
X-1426Y-686809D01*
X-1410Y-686448D01*
Y-686338D01*
X-1426Y-686244D01*
Y-686133D01*
X-1442Y-686023D01*
X-1505Y-685740D01*
X-1583Y-685410D01*
X-1709Y-685080D01*
X-1882Y-684734D01*
X-1977Y-684561D01*
X-2102Y-684404D01*
X-2118Y-684388D01*
X-2134Y-684372D01*
X-2181Y-684325D01*
X-2228Y-684262D01*
X-2307Y-684200D01*
X-2401Y-684121D01*
X-2495Y-684027D01*
X-2621Y-683948D01*
X-2763Y-683854D01*
X-2920Y-683744D01*
X-3077Y-683649D01*
X-3266Y-683555D01*
X-3470Y-683476D01*
X-3690Y-683398D01*
X-3926Y-683319D01*
X-4178Y-683256D01*
X-3816Y-681810D01*
X-3800D01*
X-3737Y-681825D01*
D02*
G37*
G36*
X-446567Y-670914D02*
Y-671747D01*
X-448595Y-672077D01*
X-450419D01*
Y-670552D01*
X-448595D01*
X-446567Y-670914D01*
D02*
G37*
G36*
X-439539Y-680772D02*
X-439554D01*
X-439617D01*
X-439712D01*
X-439837Y-680756D01*
X-439979Y-680741D01*
X-440136Y-680709D01*
X-440294Y-680678D01*
X-440466Y-680615D01*
X-440482D01*
X-440498Y-680599D01*
X-440592Y-680568D01*
X-440734Y-680505D01*
X-440922Y-680411D01*
X-441143Y-680285D01*
X-441394Y-680127D01*
X-441646Y-679955D01*
X-441913Y-679734D01*
X-441929D01*
X-441944Y-679703D01*
X-442039Y-679624D01*
X-442180Y-679483D01*
X-442385Y-679278D01*
X-442620Y-679043D01*
X-442903Y-678744D01*
X-443218Y-678382D01*
X-443548Y-677989D01*
X-443564Y-677973D01*
X-443611Y-677911D01*
X-443690Y-677816D01*
X-443784Y-677706D01*
X-443910Y-677565D01*
X-444051Y-677392D01*
X-444208Y-677219D01*
X-444381Y-677014D01*
X-444759Y-676621D01*
X-445136Y-676228D01*
X-445325Y-676040D01*
X-445513Y-675867D01*
X-445686Y-675709D01*
X-445859Y-675584D01*
X-445875D01*
X-445891Y-675552D01*
X-445938Y-675521D01*
X-446001Y-675489D01*
X-446174Y-675379D01*
X-446378Y-675253D01*
X-446630Y-675143D01*
X-446897Y-675033D01*
X-447196Y-674970D01*
X-447479Y-674939D01*
X-447494D01*
X-447510D01*
X-447604Y-674955D01*
X-447762Y-674970D01*
X-447935Y-675018D01*
X-448155Y-675080D01*
X-448375Y-675191D01*
X-448595Y-675332D01*
X-448815Y-675521D01*
X-448847Y-675552D01*
X-448909Y-675631D01*
X-448988Y-675741D01*
X-449098Y-675914D01*
X-449193Y-676134D01*
X-449287Y-676385D01*
X-449350Y-676684D01*
X-449365Y-677014D01*
Y-677109D01*
X-449350Y-677172D01*
X-449334Y-677360D01*
X-449287Y-677580D01*
X-449224Y-677816D01*
X-449114Y-678083D01*
X-448972Y-678335D01*
X-448784Y-678571D01*
X-448752Y-678602D01*
X-448674Y-678665D01*
X-448548Y-678760D01*
X-448359Y-678854D01*
X-448139Y-678964D01*
X-447856Y-679058D01*
X-447542Y-679121D01*
X-447180Y-679153D01*
X-447322Y-680520D01*
X-447337D01*
X-447384Y-680505D01*
X-447463D01*
X-447573Y-680489D01*
X-447699Y-680458D01*
X-447840Y-680426D01*
X-448013Y-680379D01*
X-448186Y-680332D01*
X-448564Y-680206D01*
X-448941Y-680017D01*
X-449130Y-679907D01*
X-449318Y-679766D01*
X-449491Y-679624D01*
X-449648Y-679467D01*
X-449664Y-679451D01*
X-449680Y-679420D01*
X-449727Y-679373D01*
X-449774Y-679294D01*
X-449837Y-679200D01*
X-449900Y-679090D01*
X-449979Y-678964D01*
X-450057Y-678807D01*
X-450136Y-678634D01*
X-450214Y-678445D01*
X-450277Y-678241D01*
X-450340Y-678021D01*
X-450387Y-677785D01*
X-450435Y-677533D01*
X-450450Y-677266D01*
X-450466Y-676983D01*
Y-676826D01*
X-450450Y-676716D01*
X-450435Y-676590D01*
X-450419Y-676433D01*
X-450387Y-676260D01*
X-450356Y-676087D01*
X-450246Y-675678D01*
X-450089Y-675269D01*
X-449994Y-675065D01*
X-449884Y-674860D01*
X-449743Y-674672D01*
X-449585Y-674499D01*
X-449570Y-674483D01*
X-449554Y-674452D01*
X-449491Y-674420D01*
X-449428Y-674357D01*
X-449350Y-674279D01*
X-449240Y-674200D01*
X-449130Y-674121D01*
X-448988Y-674027D01*
X-448689Y-673870D01*
X-448312Y-673713D01*
X-448123Y-673650D01*
X-447903Y-673618D01*
X-447683Y-673587D01*
X-447447Y-673571D01*
X-447416D01*
X-447337D01*
X-447211Y-673587D01*
X-447038Y-673603D01*
X-446850Y-673634D01*
X-446630Y-673697D01*
X-446394Y-673760D01*
X-446158Y-673854D01*
X-446127Y-673870D01*
X-446048Y-673901D01*
X-445922Y-673964D01*
X-445749Y-674059D01*
X-445561Y-674184D01*
X-445325Y-674342D01*
X-445089Y-674530D01*
X-444822Y-674750D01*
X-444790Y-674782D01*
X-444696Y-674860D01*
X-444617Y-674939D01*
X-444539Y-675018D01*
X-444444Y-675112D01*
X-444319Y-675238D01*
X-444193Y-675363D01*
X-444051Y-675521D01*
X-443894Y-675678D01*
X-443721Y-675867D01*
X-443548Y-676071D01*
X-443344Y-676291D01*
X-443139Y-676543D01*
X-442919Y-676794D01*
X-442903Y-676810D01*
X-442872Y-676841D01*
X-442825Y-676904D01*
X-442762Y-676983D01*
X-442668Y-677077D01*
X-442573Y-677187D01*
X-442369Y-677439D01*
X-442133Y-677706D01*
X-441897Y-677958D01*
X-441693Y-678178D01*
X-441614Y-678272D01*
X-441536Y-678351D01*
X-441520Y-678366D01*
X-441473Y-678414D01*
X-441410Y-678477D01*
X-441315Y-678555D01*
X-441205Y-678634D01*
X-441095Y-678728D01*
X-440828Y-678917D01*
Y-673555D01*
X-439539D01*
Y-680772D01*
D02*
G37*
G36*
X-442903Y-681825D02*
X-442809Y-681857D01*
X-442683Y-681904D01*
X-442542Y-681951D01*
X-442369Y-682014D01*
X-442180Y-682093D01*
X-441976Y-682187D01*
X-441536Y-682407D01*
X-441095Y-682690D01*
X-440875Y-682863D01*
X-440655Y-683036D01*
X-440466Y-683225D01*
X-440278Y-683445D01*
X-440262Y-683461D01*
X-440231Y-683492D01*
X-440199Y-683571D01*
X-440136Y-683649D01*
X-440058Y-683775D01*
X-439979Y-683901D01*
X-439900Y-684074D01*
X-439822Y-684247D01*
X-439728Y-684451D01*
X-439649Y-684671D01*
X-439570Y-684907D01*
X-439492Y-685159D01*
X-439429Y-685426D01*
X-439397Y-685709D01*
X-439366Y-686008D01*
X-439350Y-686322D01*
Y-686495D01*
X-439366Y-686621D01*
Y-686762D01*
X-439382Y-686935D01*
X-439413Y-687124D01*
X-439445Y-687344D01*
X-439523Y-687800D01*
X-439649Y-688272D01*
X-439822Y-688743D01*
X-439932Y-688963D01*
X-440058Y-689184D01*
X-440073Y-689199D01*
X-440089Y-689231D01*
X-440136Y-689294D01*
X-440199Y-689357D01*
X-440262Y-689451D01*
X-440356Y-689561D01*
X-440466Y-689687D01*
X-440592Y-689813D01*
X-440734Y-689938D01*
X-440875Y-690080D01*
X-441237Y-690363D01*
X-441661Y-690630D01*
X-442133Y-690866D01*
X-442149D01*
X-442196Y-690897D01*
X-442275Y-690913D01*
X-442369Y-690960D01*
X-442495Y-690992D01*
X-442652Y-691039D01*
X-442825Y-691102D01*
X-443013Y-691149D01*
X-443218Y-691196D01*
X-443454Y-691259D01*
X-443941Y-691338D01*
X-444491Y-691401D01*
X-445057Y-691432D01*
X-445073D01*
X-445136D01*
X-445230D01*
X-445340Y-691416D01*
X-445498D01*
X-445655Y-691401D01*
X-445859Y-691385D01*
X-446064Y-691353D01*
X-446520Y-691275D01*
X-447023Y-691165D01*
X-447526Y-691008D01*
X-448013Y-690787D01*
X-448029Y-690772D01*
X-448076Y-690756D01*
X-448139Y-690724D01*
X-448218Y-690662D01*
X-448328Y-690599D01*
X-448453Y-690520D01*
X-448736Y-690316D01*
X-449051Y-690048D01*
X-449365Y-689734D01*
X-449680Y-689372D01*
X-449947Y-688948D01*
X-449963Y-688932D01*
X-449979Y-688885D01*
X-450010Y-688822D01*
X-450057Y-688743D01*
X-450104Y-688618D01*
X-450152Y-688492D01*
X-450214Y-688335D01*
X-450277Y-688162D01*
X-450340Y-687973D01*
X-450403Y-687769D01*
X-450497Y-687328D01*
X-450576Y-686825D01*
X-450607Y-686306D01*
Y-686149D01*
X-450592Y-686039D01*
X-450576Y-685898D01*
X-450560Y-685725D01*
X-450545Y-685552D01*
X-450497Y-685347D01*
X-450403Y-684923D01*
X-450262Y-684451D01*
X-450167Y-684215D01*
X-450057Y-683995D01*
X-449916Y-683775D01*
X-449774Y-683555D01*
X-449758Y-683539D01*
X-449743Y-683508D01*
X-449696Y-683445D01*
X-449617Y-683366D01*
X-449538Y-683288D01*
X-449428Y-683178D01*
X-449302Y-683068D01*
X-449177Y-682942D01*
X-449020Y-682816D01*
X-448831Y-682690D01*
X-448642Y-682549D01*
X-448438Y-682423D01*
X-448202Y-682313D01*
X-447966Y-682187D01*
X-447715Y-682093D01*
X-447431Y-681998D01*
X-447101Y-683413D01*
X-447117D01*
X-447149Y-683429D01*
X-447211Y-683461D01*
X-447290Y-683492D01*
X-447384Y-683523D01*
X-447510Y-683571D01*
X-447762Y-683697D01*
X-448045Y-683854D01*
X-448328Y-684042D01*
X-448595Y-684278D01*
X-448831Y-684530D01*
X-448862Y-684561D01*
X-448925Y-684656D01*
X-449004Y-684813D01*
X-449114Y-685017D01*
X-449208Y-685285D01*
X-449302Y-685583D01*
X-449365Y-685945D01*
X-449381Y-686338D01*
Y-686464D01*
X-449365Y-686542D01*
Y-686652D01*
X-449350Y-686778D01*
X-449302Y-687077D01*
X-449240Y-687407D01*
X-449130Y-687753D01*
X-448972Y-688114D01*
X-448768Y-688445D01*
Y-688460D01*
X-448736Y-688476D01*
X-448658Y-688586D01*
X-448532Y-688728D01*
X-448344Y-688901D01*
X-448108Y-689105D01*
X-447840Y-689294D01*
X-447510Y-689467D01*
X-447149Y-689624D01*
X-447133D01*
X-447101Y-689640D01*
X-447054Y-689655D01*
X-446976Y-689671D01*
X-446881Y-689703D01*
X-446771Y-689734D01*
X-446504Y-689781D01*
X-446189Y-689844D01*
X-445844Y-689907D01*
X-445466Y-689938D01*
X-445057Y-689954D01*
X-445042D01*
X-444995D01*
X-444916D01*
X-444822D01*
X-444711Y-689938D01*
X-444570D01*
X-444413Y-689923D01*
X-444240Y-689907D01*
X-443862Y-689860D01*
X-443454Y-689781D01*
X-443045Y-689687D01*
X-442636Y-689561D01*
X-442620D01*
X-442589Y-689545D01*
X-442542Y-689514D01*
X-442463Y-689482D01*
X-442275Y-689388D01*
X-442054Y-689247D01*
X-441803Y-689074D01*
X-441536Y-688854D01*
X-441300Y-688602D01*
X-441080Y-688303D01*
Y-688288D01*
X-441064Y-688256D01*
X-441032Y-688209D01*
X-441001Y-688146D01*
X-440970Y-688067D01*
X-440922Y-687973D01*
X-440828Y-687753D01*
X-440734Y-687470D01*
X-440655Y-687155D01*
X-440592Y-686809D01*
X-440577Y-686448D01*
Y-686338D01*
X-440592Y-686244D01*
Y-686133D01*
X-440608Y-686023D01*
X-440671Y-685740D01*
X-440749Y-685410D01*
X-440875Y-685080D01*
X-441048Y-684734D01*
X-441143Y-684561D01*
X-441268Y-684404D01*
X-441284Y-684388D01*
X-441300Y-684372D01*
X-441347Y-684325D01*
X-441394Y-684262D01*
X-441473Y-684200D01*
X-441567Y-684121D01*
X-441661Y-684027D01*
X-441787Y-683948D01*
X-441929Y-683854D01*
X-442086Y-683744D01*
X-442243Y-683649D01*
X-442432Y-683555D01*
X-442636Y-683476D01*
X-442856Y-683398D01*
X-443092Y-683319D01*
X-443344Y-683256D01*
X-442982Y-681810D01*
X-442966D01*
X-442903Y-681825D01*
D02*
G37*
%LPC*%
G36*
X-393091Y-966741D02*
X-393122D01*
X-393201D01*
X-393343Y-966757D01*
X-393516Y-966772D01*
X-393720Y-966804D01*
X-393940Y-966867D01*
X-394176Y-966930D01*
X-394412Y-967024D01*
X-394443Y-967040D01*
X-394522Y-967087D01*
X-394632Y-967150D01*
X-394773Y-967244D01*
X-394915Y-967354D01*
X-395088Y-967496D01*
X-395229Y-967653D01*
X-395371Y-967841D01*
X-395387Y-967873D01*
X-395418Y-967936D01*
X-395481Y-968046D01*
X-395528Y-968187D01*
X-395591Y-968345D01*
X-395654Y-968533D01*
X-395685Y-968738D01*
X-395701Y-968958D01*
Y-969036D01*
X-395685Y-969099D01*
X-395670Y-969257D01*
X-395622Y-969461D01*
X-395528Y-969681D01*
X-395418Y-969933D01*
X-395245Y-970184D01*
X-395151Y-970310D01*
X-395025Y-970420D01*
X-395009D01*
X-394993Y-970451D01*
X-394899Y-970514D01*
X-394742Y-970609D01*
X-394537Y-970734D01*
X-394270Y-970844D01*
X-393956Y-970939D01*
X-393594Y-971002D01*
X-393170Y-971033D01*
X-393154D01*
X-393122D01*
X-393060D01*
X-392981Y-971017D01*
X-392887D01*
X-392776Y-971002D01*
X-392525Y-970955D01*
X-392242Y-970892D01*
X-391943Y-970782D01*
X-391660Y-970624D01*
X-391393Y-970420D01*
X-391362Y-970388D01*
X-391283Y-970310D01*
X-391189Y-970184D01*
X-391063Y-970011D01*
X-390937Y-969791D01*
X-390843Y-969539D01*
X-390764Y-969241D01*
X-390733Y-968911D01*
Y-968816D01*
X-390748Y-968753D01*
X-390764Y-968596D01*
X-390811Y-968376D01*
X-390890Y-968140D01*
X-391016Y-967873D01*
X-391173Y-967621D01*
X-391393Y-967370D01*
X-391424Y-967338D01*
X-391503Y-967275D01*
X-391645Y-967165D01*
X-391849Y-967055D01*
X-392085Y-966945D01*
X-392383Y-966835D01*
X-392714Y-966772D01*
X-393091Y-966741D01*
D02*
G37*
G36*
X439275Y-676307D02*
X434401D01*
X439275Y-679734D01*
Y-676307D01*
D02*
G37*
%LPD*%
D78*
X-1112554Y-254564D02*
X-1106723D01*
X-1105557Y-255731D01*
Y-258063D01*
X-1106723Y-259229D01*
X-1112554D01*
X-1111388Y-261562D02*
X-1112554Y-262728D01*
Y-265061D01*
X-1111388Y-266227D01*
X-1110222D01*
X-1109056Y-265061D01*
Y-263895D01*
Y-265061D01*
X-1107889Y-266227D01*
X-1106723D01*
X-1105557Y-265061D01*
Y-262728D01*
X-1106723Y-261562D01*
X-1113721Y-269726D02*
X-1111388D01*
X-1110222Y-268560D01*
X140263Y-209032D02*
Y-203200D01*
X141430Y-202034D01*
X143762D01*
X144928Y-203200D01*
Y-209032D01*
X150760Y-202034D02*
Y-209032D01*
X147261Y-205533D01*
X151926D01*
X155425Y-210198D02*
Y-207866D01*
X154259Y-206699D01*
X-1150737Y-990032D02*
Y-984201D01*
X-1151903Y-983034D01*
X-1154236D01*
X-1155402Y-984201D01*
Y-990032D01*
X-1157735Y-983034D02*
X-1160067D01*
X-1158901D01*
Y-990032D01*
X-1157735Y-988866D01*
X-1164732Y-991198D02*
Y-988866D01*
X-1163566Y-987699D01*
X324261Y-108034D02*
X318430D01*
X317263Y-109200D01*
Y-111533D01*
X318430Y-112699D01*
X324261D01*
X317263Y-119697D02*
Y-115032D01*
X321928Y-119697D01*
X323095D01*
X324261Y-118531D01*
Y-116198D01*
X323095Y-115032D01*
X325427Y-123196D02*
X323095D01*
X321928Y-122030D01*
M02*
