M48
;Layer_Color=9474304
;FILE_FORMAT=2:5
INCH,TZ
;TYPE=PLATED
T1F00S00C0.01500
T2F00S00C0.02000
T3F00S00C0.02800
T4F00S00C0.03346
T5F00S00C0.03500
T6F00S00C0.03937
T7F00S00C0.05906
%
T01
X53050Y6000
Y22307
X46500Y32000
X23000Y51000
X59900Y19000
X68500Y5500
X92800Y20100
X106384Y19600
X88500Y44231
X105000Y62716
X73500Y70500
X64100Y68700
X59000Y68900
X60100Y82000
X79582Y82751
X68900Y100500
X42000Y103300
X38591
X35182
X31773
X28364
X24954
X21545
X18136
X14727
X11318
X7909
X4500
Y99200
X7909
X11318
X14727
X18136
X21545
X24954
X28364
X31773
X35182
X38591
Y107400
X35182
X31773
X28364
X24954
X21545
X18136
X14727
X11318
X7909
X4500
Y111500
X7909
X11318
X14727
X18136
X21545
X24954
X28364
X31773
X35182
X38591
X42000
Y107400
X31773Y95100
X28364
X24954
X21545
X18136
X14727
X11318
X7909
X4500
Y91000
X7909
X11318
X14727
X18136
X21545
X24954
X28364
X31773
X25500Y66000
X44800Y63000
X54400Y58000
T02
X43500Y46214
T03
X82916Y53500
X112000Y88000
X111400Y109000
T04
X95600Y36300
Y46300
X125600
Y36300
Y56300
Y66300
X95600
Y56300
T05
X14500Y66000
X32600Y66500
X32000Y55500
T06
X135900Y21500
Y31500
Y41500
X145900
Y31500
Y21500
Y51500
X135900
Y61500
Y71500
X145900
Y61500
Y81500
X135900
Y91500
X145900
X91908Y78536
X92000Y110000
X52632Y110012
X52483Y78517
T07
X10558Y15728
X30242
M30
