G04*
G04 #@! TF.GenerationSoftware,Altium Limited,Altium Designer,22.5.1 (42)*
G04*
G04 Layer_Color=255*
%FSLAX25Y25*%
%MOIN*%
G70*
G04*
G04 #@! TF.SameCoordinates,55109760-4B7D-4162-96C6-5D1F9AFAF14A*
G04*
G04*
G04 #@! TF.FilePolarity,Positive*
G04*
G01*
G75*
%ADD17R,0.08189X0.15000*%
%ADD18R,0.02200X0.07800*%
%ADD19R,0.06299X0.11811*%
%ADD20R,0.06299X0.07087*%
%ADD21R,0.04173X0.07165*%
G04:AMPARAMS|DCode=22|XSize=83.86mil|YSize=61.81mil|CornerRadius=15.45mil|HoleSize=0mil|Usage=FLASHONLY|Rotation=270.000|XOffset=0mil|YOffset=0mil|HoleType=Round|Shape=RoundedRectangle|*
%AMROUNDEDRECTD22*
21,1,0.08386,0.03091,0,0,270.0*
21,1,0.05295,0.06181,0,0,270.0*
1,1,0.03091,-0.01545,-0.02648*
1,1,0.03091,-0.01545,0.02648*
1,1,0.03091,0.01545,0.02648*
1,1,0.03091,0.01545,-0.02648*
%
%ADD22ROUNDEDRECTD22*%
%ADD41R,0.45000X0.35000*%
%ADD45R,0.04921X0.04921*%
%ADD46C,0.04921*%
G04:AMPARAMS|DCode=47|XSize=118.11mil|YSize=118.11mil|CornerRadius=29.53mil|HoleSize=0mil|Usage=FLASHONLY|Rotation=0.000|XOffset=0mil|YOffset=0mil|HoleType=Round|Shape=RoundedRectangle|*
%AMROUNDEDRECTD47*
21,1,0.11811,0.05906,0,0,0.0*
21,1,0.05906,0.11811,0,0,0.0*
1,1,0.05906,0.02953,-0.02953*
1,1,0.05906,-0.02953,-0.02953*
1,1,0.05906,-0.02953,0.02953*
1,1,0.05906,0.02953,0.02953*
%
%ADD47ROUNDEDRECTD47*%
%ADD48C,0.11811*%
%ADD49O,0.07874X0.07087*%
%ADD50R,0.07874X0.07087*%
%ADD51C,0.07874*%
D17*
X14000Y51500D02*
D03*
X34000D02*
D03*
D18*
X63900Y66200D02*
D03*
X58900D02*
D03*
X53900D02*
D03*
X48900D02*
D03*
Y46800D02*
D03*
X53900D02*
D03*
X58900D02*
D03*
X63900D02*
D03*
D19*
X111500Y108000D02*
D03*
Y90677D02*
D03*
X52900Y25161D02*
D03*
Y7839D02*
D03*
D20*
X83012Y62500D02*
D03*
X71988D02*
D03*
X26488Y38500D02*
D03*
X37512D02*
D03*
D21*
X72884Y72000D02*
D03*
X84916D02*
D03*
X82916Y53500D02*
D03*
X70884D02*
D03*
X18516Y38500D02*
D03*
X6484D02*
D03*
D22*
X79900Y5610D02*
D03*
X69900D02*
D03*
Y39390D02*
D03*
X79900D02*
D03*
D41*
X24000Y96500D02*
D03*
D45*
X95600Y66300D02*
D03*
D46*
Y56300D02*
D03*
Y46300D02*
D03*
Y36300D02*
D03*
X125600D02*
D03*
Y46300D02*
D03*
Y56300D02*
D03*
Y66300D02*
D03*
D47*
X10558Y15728D02*
D03*
D48*
X30242D02*
D03*
D49*
X135900Y31500D02*
D03*
Y41500D02*
D03*
X145900Y31500D02*
D03*
Y41500D02*
D03*
X135900Y71500D02*
D03*
Y61500D02*
D03*
X145900D02*
D03*
Y71500D02*
D03*
Y21500D02*
D03*
X135900D02*
D03*
Y51500D02*
D03*
X145900D02*
D03*
Y81500D02*
D03*
X135900D02*
D03*
X145900Y91500D02*
D03*
D50*
X135900D02*
D03*
D51*
X92000Y110000D02*
D03*
X52632Y110012D02*
D03*
X91908Y78536D02*
D03*
X52483Y78517D02*
D03*
M02*
