G04*
G04 #@! TF.GenerationSoftware,Altium Limited,Altium Designer,22.5.1 (42)*
G04*
G04 Layer_Color=8388736*
%FSLAX25Y25*%
%MOIN*%
G70*
G04*
G04 #@! TF.SameCoordinates,55109760-4B7D-4162-96C6-5D1F9AFAF14A*
G04*
G04*
G04 #@! TF.FilePolarity,Negative*
G04*
G01*
G75*
%ADD23R,0.08989X0.15800*%
%ADD24R,0.45800X0.35800*%
%ADD25R,0.03000X0.08600*%
%ADD26R,0.07099X0.12611*%
%ADD27R,0.07099X0.07887*%
%ADD28R,0.04973X0.07965*%
G04:AMPARAMS|DCode=29|XSize=91.86mil|YSize=69.81mil|CornerRadius=19.45mil|HoleSize=0mil|Usage=FLASHONLY|Rotation=270.000|XOffset=0mil|YOffset=0mil|HoleType=Round|Shape=RoundedRectangle|*
%AMROUNDEDRECTD29*
21,1,0.09186,0.03091,0,0,270.0*
21,1,0.05295,0.06981,0,0,270.0*
1,1,0.03891,-0.01545,-0.02648*
1,1,0.03891,-0.01545,0.02648*
1,1,0.03891,0.01545,0.02648*
1,1,0.03891,0.01545,-0.02648*
%
%ADD29ROUNDEDRECTD29*%
%ADD30R,0.05721X0.05721*%
%ADD31C,0.05721*%
G04:AMPARAMS|DCode=32|XSize=126.11mil|YSize=126.11mil|CornerRadius=33.53mil|HoleSize=0mil|Usage=FLASHONLY|Rotation=0.000|XOffset=0mil|YOffset=0mil|HoleType=Round|Shape=RoundedRectangle|*
%AMROUNDEDRECTD32*
21,1,0.12611,0.05906,0,0,0.0*
21,1,0.05906,0.12611,0,0,0.0*
1,1,0.06706,0.02953,-0.02953*
1,1,0.06706,-0.02953,-0.02953*
1,1,0.06706,-0.02953,0.02953*
1,1,0.06706,0.02953,0.02953*
%
%ADD32ROUNDEDRECTD32*%
%ADD33C,0.12611*%
%ADD34O,0.08674X0.07887*%
%ADD35R,0.08674X0.07887*%
%ADD36C,0.08674*%
%ADD37C,0.03800*%
%ADD38C,0.05800*%
%ADD39C,0.06800*%
%ADD40C,0.04800*%
D23*
X14000Y51500D02*
D03*
X34000D02*
D03*
D24*
X24000Y96500D02*
D03*
D25*
X63900Y66200D02*
D03*
X58900D02*
D03*
X53900D02*
D03*
X48900D02*
D03*
Y46800D02*
D03*
X53900D02*
D03*
X58900D02*
D03*
X63900D02*
D03*
D26*
X111500Y108000D02*
D03*
Y90677D02*
D03*
X52900Y25161D02*
D03*
Y7839D02*
D03*
D27*
X83012Y62500D02*
D03*
X71988D02*
D03*
X26488Y38500D02*
D03*
X37512D02*
D03*
D28*
X72884Y72000D02*
D03*
X84916D02*
D03*
X82916Y53500D02*
D03*
X70884D02*
D03*
X18516Y38500D02*
D03*
X6484D02*
D03*
D29*
X79900Y5610D02*
D03*
X69900D02*
D03*
Y39390D02*
D03*
X79900D02*
D03*
D30*
X95600Y66300D02*
D03*
D31*
Y56300D02*
D03*
Y46300D02*
D03*
Y36300D02*
D03*
X125600D02*
D03*
Y46300D02*
D03*
Y56300D02*
D03*
Y66300D02*
D03*
D32*
X10558Y15728D02*
D03*
D33*
X30242D02*
D03*
D34*
X135900Y31500D02*
D03*
Y41500D02*
D03*
X145900Y31500D02*
D03*
Y41500D02*
D03*
X135900Y71500D02*
D03*
Y61500D02*
D03*
X145900D02*
D03*
Y71500D02*
D03*
Y21500D02*
D03*
X135900D02*
D03*
Y51500D02*
D03*
X145900D02*
D03*
Y81500D02*
D03*
X135900D02*
D03*
X145900Y91500D02*
D03*
D35*
X135900D02*
D03*
D36*
X92000Y110000D02*
D03*
X52632Y110012D02*
D03*
X91908Y78536D02*
D03*
X52483Y78517D02*
D03*
D37*
X106384Y19600D02*
D03*
X105000Y62716D02*
D03*
X59000Y68900D02*
D03*
X64100Y68700D02*
D03*
X60100Y82000D02*
D03*
X44800Y63000D02*
D03*
X35182Y99200D02*
D03*
X38591D02*
D03*
X31773Y91000D02*
D03*
X28364D02*
D03*
X31773Y95100D02*
D03*
X28364D02*
D03*
X31773Y99200D02*
D03*
X11318Y91000D02*
D03*
X4500D02*
D03*
X18136D02*
D03*
X21545D02*
D03*
X14727D02*
D03*
X7909D02*
D03*
X24954D02*
D03*
X11318Y95100D02*
D03*
X4500D02*
D03*
X18136D02*
D03*
X21545D02*
D03*
X14727D02*
D03*
X7909D02*
D03*
X24954D02*
D03*
X14727Y99200D02*
D03*
X4500D02*
D03*
X7909D02*
D03*
X21545D02*
D03*
X24954D02*
D03*
X18136D02*
D03*
X11318D02*
D03*
X28364D02*
D03*
Y103300D02*
D03*
X14727D02*
D03*
X18136D02*
D03*
X11318D02*
D03*
X4500D02*
D03*
X7909D02*
D03*
X21545D02*
D03*
X35182D02*
D03*
X38591D02*
D03*
X31773D02*
D03*
X24954D02*
D03*
X42000D02*
D03*
X28364Y107400D02*
D03*
X14727D02*
D03*
X18136D02*
D03*
X11318D02*
D03*
X4500D02*
D03*
X7909D02*
D03*
X21545D02*
D03*
X35182D02*
D03*
X38591D02*
D03*
X31773D02*
D03*
X24954D02*
D03*
X42000D02*
D03*
Y111500D02*
D03*
X24954D02*
D03*
X31773D02*
D03*
X38591D02*
D03*
X35182D02*
D03*
X21545D02*
D03*
X7909D02*
D03*
X4500D02*
D03*
X11318D02*
D03*
X18136D02*
D03*
X14727D02*
D03*
X28364D02*
D03*
X23000Y51000D02*
D03*
X88500Y44231D02*
D03*
X68500Y5500D02*
D03*
X53050Y22307D02*
D03*
X73500Y70500D02*
D03*
X53050Y6000D02*
D03*
X25500Y66000D02*
D03*
X92800Y20100D02*
D03*
X46500Y32000D02*
D03*
X59900Y19000D02*
D03*
X79582Y82751D02*
D03*
X54400Y58000D02*
D03*
X68900Y100500D02*
D03*
D38*
X112000Y88000D02*
D03*
X111400Y109000D02*
D03*
X82916Y53500D02*
D03*
D39*
X32000Y55500D02*
D03*
X14500Y66000D02*
D03*
X32600Y66500D02*
D03*
D40*
X43500Y46214D02*
D03*
M02*
