G04*
G04 #@! TF.GenerationSoftware,Altium Limited,Altium Designer,22.5.1 (42)*
G04*
G04 Layer_Color=32768*
%FSLAX25Y25*%
%MOIN*%
G70*
G04*
G04 #@! TF.SameCoordinates,55109760-4B7D-4162-96C6-5D1F9AFAF14A*
G04*
G04*
G04 #@! TF.FilePolarity,Positive*
G04*
G01*
G75*
%ADD71C,0.00197*%
%ADD72C,0.00394*%
%ADD76C,0.00200*%
D71*
X91663Y71772D02*
X129537D01*
Y30828D02*
Y71772D01*
X91663Y30828D02*
X129537D01*
X91663D02*
Y71772D01*
X100241Y65802D02*
X109359D01*
X100241Y47629D02*
X109359D01*
Y65802D01*
X100241Y47629D02*
Y65802D01*
X113341Y59287D02*
X122459D01*
X113341Y41113D02*
X122459D01*
Y59287D01*
X113341Y41113D02*
Y59287D01*
X516Y43016D02*
Y114984D01*
X47484D01*
Y43016D02*
Y114984D01*
X516Y43016D02*
X47484D01*
X73463Y44315D02*
Y67937D01*
Y44315D02*
X93148D01*
Y67937D01*
X73463D02*
X93148D01*
X33813Y44059D02*
X51987D01*
X33813Y34941D02*
X51987D01*
X33813D02*
Y44059D01*
X51987Y34941D02*
Y44059D01*
X14329Y60059D02*
X32502D01*
X14329Y50941D02*
X32502D01*
X14329D02*
Y60059D01*
X32502Y50941D02*
Y60059D01*
X33813Y35559D02*
X51987D01*
X33813Y26441D02*
X51987D01*
X33813D02*
Y35559D01*
X51987Y26441D02*
Y35559D01*
X90813Y24159D02*
X108987D01*
X90813Y15041D02*
X108987D01*
X90813D02*
Y24159D01*
X108987Y15041D02*
Y24159D01*
X55341Y85413D02*
Y103587D01*
X64459Y85413D02*
Y103587D01*
X55341Y85413D02*
X64459D01*
X55341Y103587D02*
X64459D01*
X81659Y85413D02*
Y103587D01*
X72541Y85413D02*
Y103587D01*
X81659D01*
X72541Y85413D02*
X81659D01*
X63841D02*
Y103587D01*
X72959Y85413D02*
Y103587D01*
X63841Y85413D02*
X72959D01*
X63841Y103587D02*
X72959D01*
X40413Y20059D02*
X58587D01*
X40413Y10941D02*
X58587D01*
X40413D02*
Y20059D01*
X58587Y10941D02*
Y20059D01*
X69813Y67441D02*
X87987D01*
X69813Y76559D02*
X87987D01*
X69813Y67441D02*
Y76559D01*
X87987Y67441D02*
Y76559D01*
X69313Y72441D02*
X87487D01*
X69313Y81559D02*
X87487D01*
Y72441D02*
Y81559D01*
X69313Y72441D02*
Y81559D01*
X50913Y10559D02*
X69087D01*
X50913Y1441D02*
X69087D01*
X50913D02*
Y10559D01*
X69087Y1441D02*
Y10559D01*
X67813Y58059D02*
X85987D01*
X67813Y48941D02*
X85987D01*
Y58059D01*
X67813Y48941D02*
Y58059D01*
X3413Y43059D02*
X21587D01*
X3413Y33941D02*
X21587D01*
Y43059D01*
X3413Y33941D02*
Y43059D01*
X83995Y37264D02*
X85884D01*
X83995D02*
Y44587D01*
X65806D02*
X83995D01*
X65806Y37264D02*
Y44587D01*
X63916Y37264D02*
X65806D01*
X63916Y7736D02*
Y37264D01*
Y7736D02*
X65806D01*
Y413D02*
Y7736D01*
Y413D02*
X83995D01*
Y7736D01*
X85884D01*
Y37264D01*
D72*
X83302Y92201D02*
Y104799D01*
X108498Y92201D02*
Y104799D01*
X83302D02*
X108498D01*
X83302Y92201D02*
X108498D01*
X11402Y59701D02*
X36598D01*
X11402Y72299D02*
X36598D01*
Y59701D02*
Y72299D01*
X11402Y59701D02*
Y72299D01*
X39258Y66004D02*
X41266Y68012D01*
X39258D02*
X46542D01*
Y56988D02*
Y68012D01*
X39258Y56988D02*
X46542D01*
X39258D02*
Y68012D01*
D76*
X104176Y79957D02*
X123648D01*
X104176Y70643D02*
X123648D01*
Y79957D01*
X104176Y70643D02*
Y79957D01*
X59043Y47264D02*
Y66736D01*
X68357Y47264D02*
Y66736D01*
X59043D02*
X68357D01*
X59043Y47264D02*
X68357D01*
X67764Y57842D02*
X87236D01*
X67764Y67158D02*
X87236D01*
Y57842D02*
Y67158D01*
X67764Y57842D02*
Y67158D01*
X9664Y30843D02*
X29136D01*
X9664Y40157D02*
X29136D01*
X9664Y30843D02*
Y40157D01*
X29136Y30843D02*
Y40157D01*
X49120Y47264D02*
Y66736D01*
X58435Y47264D02*
Y66736D01*
X49120D02*
X58435D01*
X49120Y47264D02*
X58435D01*
X9664Y39342D02*
X29136D01*
X9664Y48658D02*
X29136D01*
X9664Y39342D02*
Y48658D01*
X29136Y39342D02*
Y48658D01*
X22264Y43158D02*
X41736D01*
X22264Y33843D02*
X41736D01*
X22264D02*
Y43158D01*
X41736Y33843D02*
Y43158D01*
M02*
