G04*
G04 #@! TF.GenerationSoftware,Altium Limited,Altium Designer,22.5.1 (42)*
G04*
G04 Layer_Color=16711935*
%FSLAX25Y25*%
%MOIN*%
G70*
G04*
G04 #@! TF.SameCoordinates,55109760-4B7D-4162-96C6-5D1F9AFAF14A*
G04*
G04*
G04 #@! TF.FilePolarity,Negative*
G04*
G01*
G75*
%ADD27R,0.07099X0.07887*%
%ADD28R,0.04973X0.07965*%
%ADD30R,0.05721X0.05721*%
%ADD31C,0.05721*%
G04:AMPARAMS|DCode=32|XSize=126.11mil|YSize=126.11mil|CornerRadius=33.53mil|HoleSize=0mil|Usage=FLASHONLY|Rotation=0.000|XOffset=0mil|YOffset=0mil|HoleType=Round|Shape=RoundedRectangle|*
%AMROUNDEDRECTD32*
21,1,0.12611,0.05906,0,0,0.0*
21,1,0.05906,0.12611,0,0,0.0*
1,1,0.06706,0.02953,-0.02953*
1,1,0.06706,-0.02953,-0.02953*
1,1,0.06706,-0.02953,0.02953*
1,1,0.06706,0.02953,0.02953*
%
%ADD32ROUNDEDRECTD32*%
%ADD33C,0.12611*%
%ADD34O,0.08674X0.07887*%
%ADD35R,0.08674X0.07887*%
%ADD36C,0.08674*%
%ADD37C,0.03800*%
%ADD38C,0.05800*%
%ADD39C,0.06800*%
%ADD40C,0.04800*%
%ADD64R,0.07965X0.04973*%
G04:AMPARAMS|DCode=65|XSize=67.06mil|YSize=78.87mil|CornerRadius=11.38mil|HoleSize=0mil|Usage=FLASHONLY|Rotation=0.000|XOffset=0mil|YOffset=0mil|HoleType=Round|Shape=RoundedRectangle|*
%AMROUNDEDRECTD65*
21,1,0.06706,0.05610,0,0,0.0*
21,1,0.04429,0.07887,0,0,0.0*
1,1,0.02276,0.02215,-0.02805*
1,1,0.02276,-0.02215,-0.02805*
1,1,0.02276,-0.02215,0.02805*
1,1,0.02276,0.02215,0.02805*
%
%ADD65ROUNDEDRECTD65*%
%ADD66R,0.04737X0.06706*%
%ADD67R,0.05524X0.03950*%
%ADD68R,0.10642X0.08674*%
%ADD69R,0.07887X0.07099*%
%ADD70R,0.04501X0.04816*%
G36*
X54464Y39469D02*
Y35528D01*
X59991D01*
Y39469D01*
X54464D01*
D02*
G37*
G36*
X88030Y48842D02*
Y57504D01*
X85668Y59866D01*
Y67347D01*
X80943D01*
Y59866D01*
X78581Y57504D01*
Y48842D01*
X82518Y44905D01*
X84093D01*
X88030Y48842D01*
D02*
G37*
D27*
X119424Y75300D02*
D03*
X108400D02*
D03*
X13888Y35500D02*
D03*
X24912D02*
D03*
X13888Y44000D02*
D03*
X24912D02*
D03*
D28*
X36884Y39500D02*
D03*
X48916D02*
D03*
X17400Y55500D02*
D03*
X29432D02*
D03*
X36884Y31000D02*
D03*
X48916D02*
D03*
X93884Y19600D02*
D03*
X105916D02*
D03*
X43484Y15500D02*
D03*
X55516D02*
D03*
X84416Y77000D02*
D03*
X72384D02*
D03*
X53984Y6000D02*
D03*
X66016D02*
D03*
D30*
X95600Y66300D02*
D03*
D31*
Y56300D02*
D03*
Y46300D02*
D03*
Y36300D02*
D03*
X125600D02*
D03*
Y46300D02*
D03*
Y56300D02*
D03*
Y66300D02*
D03*
D32*
X10558Y15728D02*
D03*
D33*
X30242D02*
D03*
D34*
X135900Y31500D02*
D03*
Y41500D02*
D03*
X145900Y31500D02*
D03*
Y41500D02*
D03*
X135900Y71500D02*
D03*
Y61500D02*
D03*
X145900D02*
D03*
Y71500D02*
D03*
Y21500D02*
D03*
X135900D02*
D03*
Y51500D02*
D03*
X145900D02*
D03*
Y81500D02*
D03*
X135900D02*
D03*
X145900Y91500D02*
D03*
D35*
X135900D02*
D03*
D36*
X92000Y110000D02*
D03*
X52632Y110012D02*
D03*
X91908Y78536D02*
D03*
X52483Y78517D02*
D03*
D37*
X106384Y19600D02*
D03*
X105000Y62716D02*
D03*
X59000Y68900D02*
D03*
X64100Y68700D02*
D03*
X60100Y82000D02*
D03*
X44800Y63000D02*
D03*
X35182Y99200D02*
D03*
X38591D02*
D03*
X31773Y91000D02*
D03*
X28364D02*
D03*
X31773Y95100D02*
D03*
X28364D02*
D03*
X31773Y99200D02*
D03*
X11318Y91000D02*
D03*
X4500D02*
D03*
X18136D02*
D03*
X21545D02*
D03*
X14727D02*
D03*
X7909D02*
D03*
X24954D02*
D03*
X11318Y95100D02*
D03*
X4500D02*
D03*
X18136D02*
D03*
X21545D02*
D03*
X14727D02*
D03*
X7909D02*
D03*
X24954D02*
D03*
X14727Y99200D02*
D03*
X4500D02*
D03*
X7909D02*
D03*
X21545D02*
D03*
X24954D02*
D03*
X18136D02*
D03*
X11318D02*
D03*
X28364D02*
D03*
Y103300D02*
D03*
X14727D02*
D03*
X18136D02*
D03*
X11318D02*
D03*
X4500D02*
D03*
X7909D02*
D03*
X21545D02*
D03*
X35182D02*
D03*
X38591D02*
D03*
X31773D02*
D03*
X24954D02*
D03*
X42000D02*
D03*
X28364Y107400D02*
D03*
X14727D02*
D03*
X18136D02*
D03*
X11318D02*
D03*
X4500D02*
D03*
X7909D02*
D03*
X21545D02*
D03*
X35182D02*
D03*
X38591D02*
D03*
X31773D02*
D03*
X24954D02*
D03*
X42000D02*
D03*
Y111500D02*
D03*
X24954D02*
D03*
X31773D02*
D03*
X38591D02*
D03*
X35182D02*
D03*
X21545D02*
D03*
X7909D02*
D03*
X4500D02*
D03*
X11318D02*
D03*
X18136D02*
D03*
X14727D02*
D03*
X28364D02*
D03*
X23000Y51000D02*
D03*
X88500Y44231D02*
D03*
X68500Y5500D02*
D03*
X53050Y22307D02*
D03*
X73500Y70500D02*
D03*
X53050Y6000D02*
D03*
X25500Y66000D02*
D03*
X92800Y20100D02*
D03*
X46500Y32000D02*
D03*
X59900Y19000D02*
D03*
X79582Y82751D02*
D03*
X54400Y58000D02*
D03*
X68900Y100500D02*
D03*
D38*
X112000Y88000D02*
D03*
X111400Y109000D02*
D03*
X82916Y53500D02*
D03*
D39*
X32000Y55500D02*
D03*
X14500Y66000D02*
D03*
X32600Y66500D02*
D03*
D40*
X43500Y46214D02*
D03*
D64*
X104800Y62731D02*
D03*
Y50700D02*
D03*
X117900Y56216D02*
D03*
Y44184D02*
D03*
X59900Y88484D02*
D03*
Y100516D02*
D03*
X77100D02*
D03*
Y88484D02*
D03*
X68400D02*
D03*
Y100516D02*
D03*
D65*
X103577Y98500D02*
D03*
X88223D02*
D03*
X16323Y66000D02*
D03*
X31677D02*
D03*
D66*
X89211Y64000D02*
D03*
X77400D02*
D03*
D67*
X57235Y31594D02*
D03*
Y43406D02*
D03*
D68*
X68889Y37500D02*
D03*
D69*
X63700Y62512D02*
D03*
Y51488D02*
D03*
X53777Y62512D02*
D03*
Y51488D02*
D03*
D70*
X42900Y56201D02*
D03*
Y68799D02*
D03*
M02*
