M48
;Layer_Color=9474304
;FILE_FORMAT=2:5
INCH,LZ
;TYPE=PLATED
T1F00S00C0.02800
T2F00S00C0.03150
T3F00S00C0.03200
T4F00S00C0.03543
T5F00S00C0.03937
T6F00S00C0.04000
T7F00S00C0.04331
T8F00S00C0.05118
T9F00S00C0.05512
T10F00S00C0.13780
%
T01
X02475Y00055
X02925Y0037
X0432Y0030531
X04235Y009
X0412Y0098
X0375Y0062
X0332Y0068
X03Y008
X0336Y01505
X0355Y0158
X0069Y00765
X00415Y01235
T02
X010558Y0007581
X01195Y00215
X0079Y0048658
X0371657Y00705
X0391342Y00705
X01955Y0082157
X01955Y0101842
X01755
X01755Y0117657
X01755Y0137343
X015525
X015525Y0117657
X015525Y0101842
X015525Y0082157
X0135
X0135Y0101842
X0135Y0117657
X0135Y0137343
X01755Y0082157
X0169Y0064
X0188685Y0064
X0079Y0068343
X0079Y0076157
X0079Y0095842
T03
X01275Y00095
X01375
X00375Y01825
X00275
T04
X0076Y01525
Y01625
Y01725
Y01825
Y01925
Y02025
X01345Y0233
X01445
X01545
X01645
X01745
X01845
T05
X0079Y001
Y0025
X0149Y002
Y00085
X0189
Y002
X0198Y00125
X0208
X0218
X034Y0012
X035175
X0364
Y0052
X035175
X034
X03765Y00525
X038875Y0053
X0401375
X0414
Y0013
X0401375
X038875
X03765Y00125
X0406Y0068
X04245
Y0108
X0406
X0402Y01495
X0415
Y01895
X0402
X03825Y0192
X03725
Y0167
X03825
X03625
X03485Y01685
X03385
X03285
Y0194
X03385
X03485
X03625Y0192
X03475Y0136
X0329
Y0096
X03475
X0343Y00715
X0353
X0363
X0115Y0098
Y0138
X00575Y01365
Y0166
X0057Y0102
X0042
X00425Y01365
X00175Y0166
X03185Y02175
X03585
X03775Y02165
X04175
T06
X005Y0009
X0109Y00475
X0119
X0129
X0139
X0149
X0159
X0169
X0179
X0189
X0199
X0209
X0219
X0229
X0239
X0249
X0259
X03915Y0087
Y0097
Y0107
Y0117
Y0127
Y0137
Y0147
X03615
Y0137
Y0127
Y0117
Y0107
Y0097
Y0087
X0269Y00875
Y00775
Y00675
Y00575
Y00975
Y01075
Y01175
Y01275
Y01375
Y01475
Y01575
Y01675
Y01775
Y01875
Y01975
Y02075
X0099
Y01975
Y01875
Y01775
Y01675
Y01575
Y01475
Y01375
Y01275
Y01175
Y01075
Y00975
Y00875
Y00775
Y00675
Y00575
X005Y0069
X0109Y02175
X0119
X0129
X0139
X0149
X0159
X0169
X0179
X0189
X0199
X0209
X0219
X0229
X0239
X0249
X0259
T07
X03075Y0017
X03175
X0316Y00335
X0326
Y0053
X0316
X0306
Y00335
X0312Y00705
Y00805
Y00905
Y01005
X0291
Y00905
Y00805
Y00705
X02935Y0123
Y0133
Y0143
Y0153
X0312
Y0143
Y0133
Y0123
X029Y017
Y018
Y019
Y02
X0015Y014
Y013
Y012
X00155Y00945
Y00845
Y00745
X0205Y02335
X0215
T08
X0021969Y0026158
Y0045842
X02295Y0017
X0249185
T09
X04525Y0016
Y0036
Y0056
Y0076
Y0108
Y0128
Y0148
Y0168
T10
X0018Y0229784
X0453784Y023
M30
