G04*
G04 #@! TF.GenerationSoftware,Altium Limited,Altium Designer,22.5.1 (42)*
G04*
G04 Layer_Physical_Order=1*
G04 Layer_Color=255*
%FSLAX25Y25*%
%MOIN*%
G70*
G04*
G04 #@! TF.SameCoordinates,4BF25F8D-FF95-44F9-8C9D-AD32542E46D1*
G04*
G04*
G04 #@! TF.FilePolarity,Positive*
G04*
G01*
G75*
%ADD35C,0.03937*%
%ADD36C,0.02756*%
%ADD37C,0.08000*%
%ADD38R,0.08000X0.08000*%
%ADD39C,0.10500*%
%ADD40O,0.12000X0.08000*%
%ADD41R,0.08000X0.08000*%
%ADD42P,0.12989X8X112.5*%
%ADD43C,0.07600*%
%ADD44C,0.23622*%
%ADD45R,0.05315X0.05315*%
%ADD46C,0.05315*%
%ADD47R,0.05315X0.05315*%
G04:AMPARAMS|DCode=48|XSize=76.77mil|YSize=76.77mil|CornerRadius=19.19mil|HoleSize=0mil|Usage=FLASHONLY|Rotation=0.000|XOffset=0mil|YOffset=0mil|HoleType=Round|Shape=RoundedRectangle|*
%AMROUNDEDRECTD48*
21,1,0.07677,0.03839,0,0,0.0*
21,1,0.03839,0.07677,0,0,0.0*
1,1,0.03839,0.01919,-0.01919*
1,1,0.03839,-0.01919,-0.01919*
1,1,0.03839,-0.01919,0.01919*
1,1,0.03839,0.01919,0.01919*
%
%ADD48ROUNDEDRECTD48*%
%ADD49C,0.07677*%
G04:AMPARAMS|DCode=50|XSize=76.77mil|YSize=76.77mil|CornerRadius=19.19mil|HoleSize=0mil|Usage=FLASHONLY|Rotation=90.000|XOffset=0mil|YOffset=0mil|HoleType=Round|Shape=RoundedRectangle|*
%AMROUNDEDRECTD50*
21,1,0.07677,0.03839,0,0,90.0*
21,1,0.03839,0.07677,0,0,90.0*
1,1,0.03839,0.01919,0.01919*
1,1,0.03839,0.01919,-0.01919*
1,1,0.03839,-0.01919,-0.01919*
1,1,0.03839,-0.01919,0.01919*
%
%ADD50ROUNDEDRECTD50*%
%ADD51P,0.07517X4X270.0*%
%ADD52R,0.05906X0.05906*%
%ADD53C,0.05906*%
%ADD54R,0.05906X0.05906*%
%ADD55C,0.05000*%
D35*
X425277Y63642D02*
Y67125D01*
Y63642D02*
X431923Y56996D01*
X424402Y68000D02*
X425277Y67125D01*
X154500Y232467D02*
Y233000D01*
X159000Y217500D02*
Y227967D01*
X154500Y232467D02*
X159000Y227967D01*
X21969Y45842D02*
X30658D01*
X49621Y9879D02*
Y26880D01*
X30658Y45842D02*
X49621Y26880D01*
X389443Y71189D02*
X390653D01*
X385811D02*
X389443D01*
X364000Y52000D02*
X364777Y51223D01*
Y46723D02*
X375500Y36000D01*
X364777Y46723D02*
Y51223D01*
X75500Y36500D02*
X158000D01*
X61500Y50500D02*
X75500Y36500D01*
X61500Y50500D02*
Y68712D01*
X69000Y76212D01*
X109000Y47500D02*
X109099Y47599D01*
Y55099D02*
X134311Y80311D01*
Y81468D02*
X135000Y82157D01*
X109099Y47599D02*
Y55099D01*
X134311Y80311D02*
Y81468D01*
X99000Y57500D02*
X109000Y47500D01*
X135000Y82157D02*
X155250D01*
X56723Y137277D02*
Y153223D01*
X76000Y172500D01*
X124481Y7581D02*
X126401Y9500D01*
X127500D01*
X105580Y7581D02*
X124481D01*
X79000Y10000D02*
X80099D01*
X82519Y7581D02*
X105580D01*
X80099Y10000D02*
X82519Y7581D01*
X390653Y71189D02*
X391342Y70500D01*
X290000Y200000D02*
X290777Y199223D01*
X282500Y207500D02*
X290000Y200000D01*
X358500Y217500D02*
X375401D01*
X376401Y216500D01*
X377500D01*
X289504Y190496D02*
X290000Y190000D01*
X284504Y190496D02*
X289504D01*
X165500Y242000D02*
X174500Y233000D01*
X4000Y186000D02*
X60000Y242000D01*
X165500D01*
X37500Y182500D02*
X45500D01*
X56723Y171277D01*
X312000Y153000D02*
Y182500D01*
X295277Y199223D02*
X312000Y182500D01*
X290777Y199223D02*
X295277D01*
X44746Y132754D02*
Y132835D01*
Y132754D02*
X77720Y99779D01*
X293500Y100500D02*
X312000D01*
X155250Y137343D02*
X175500D01*
X183500Y90158D02*
Y129342D01*
X269000Y207500D02*
X282500D01*
X175500Y82157D02*
X195500D01*
X135000Y137343D02*
X155250D01*
X175500Y82157D02*
X183500Y90158D01*
X175500Y137343D02*
X245657Y207500D01*
X175500Y137343D02*
X183500Y129342D01*
X155250Y82157D02*
X175500D01*
X312000Y153000D02*
X314449Y150551D01*
X245657Y207500D02*
X269000D01*
X42500Y135081D02*
X44746Y132835D01*
X317886Y150551D02*
X319500Y148937D01*
X88000Y59114D02*
X89614Y57500D01*
X77720Y97122D02*
Y99779D01*
X17500Y166000D02*
X41723Y141777D01*
X77720Y97122D02*
X79000Y95842D01*
X312000Y100500D02*
X319500Y108000D01*
X41723Y137277D02*
Y141777D01*
X88000Y59114D02*
Y86843D01*
X314449Y150551D02*
X317886D01*
X319500Y108000D02*
Y148937D01*
X89614Y57500D02*
X99000D01*
X42500Y135081D02*
Y136500D01*
X41723Y137277D02*
X42500Y136500D01*
X79000Y95842D02*
X88000Y86843D01*
X348324Y168324D02*
X348500Y168500D01*
X336203Y150703D02*
X348324Y162824D01*
Y168324D01*
X415777Y134723D02*
X442500Y108000D01*
X415777Y134723D02*
Y148723D01*
X442500Y108000D02*
X452500D01*
X402000Y149500D02*
X415000D01*
X438647Y128000D02*
X452500D01*
X432000Y134647D02*
Y172500D01*
Y134647D02*
X438647Y128000D01*
X415000Y149500D02*
X415777Y148723D01*
X464000Y87500D02*
Y167194D01*
X452500Y168000D02*
X454000Y169500D01*
X461694D01*
X464000Y167194D01*
X452500Y76000D02*
X464000Y87500D01*
X380504Y44496D02*
X420496D01*
X432996Y56996D01*
X431923D02*
X451504D01*
X377277Y47723D02*
X380504Y44496D01*
X376500Y52500D02*
X377277Y51723D01*
X451504Y56996D02*
X452500Y56000D01*
X377277Y47723D02*
Y51723D01*
X432000Y22000D02*
Y30531D01*
X375500Y36000D02*
X452500D01*
X423000Y13000D02*
X432000Y22000D01*
X414000Y13000D02*
X423000D01*
X375000Y82000D02*
Y111000D01*
X361500Y117000D02*
X369000D01*
X375000Y111000D01*
Y82000D02*
X385811Y71189D01*
X415000Y189500D02*
X432000Y172500D01*
X317500Y10500D02*
Y17000D01*
X312500Y5500D02*
X317500Y10500D01*
X247500Y5500D02*
X312500D01*
X56723Y166777D02*
X57500Y166000D01*
X56723Y166777D02*
Y171277D01*
X269000Y197500D02*
X277500D01*
X284504Y190496D01*
X4000Y129000D02*
Y186000D01*
Y129000D02*
X13000Y120000D01*
X15000D01*
Y140000D02*
X25000D01*
X41500Y123500D01*
X198223Y40723D02*
Y46723D01*
X149000Y8500D02*
X166000D01*
X198223Y40723D01*
X189000Y20000D02*
X209000Y40000D01*
Y47500D01*
X69000Y76212D02*
Y76500D01*
X158000Y36500D02*
X169000Y47500D01*
X198223Y46723D02*
X199000Y47500D01*
X56723Y137277D02*
X57500Y136500D01*
X57000Y102000D02*
X78736Y80264D01*
Y76421D02*
Y80264D01*
Y76421D02*
X79000Y76157D01*
X12500Y140000D02*
X15000D01*
X42904Y74500D02*
X48404Y69000D01*
X50500D01*
X15500Y74500D02*
X42904D01*
X49621Y9879D02*
X50500Y9000D01*
D36*
X388750Y53000D02*
X398000Y62250D01*
Y74500D01*
X423625Y100125D01*
X391500Y97000D02*
X392071Y97571D01*
X411571D01*
X339427Y194927D02*
Y197927D01*
X347000Y205500D01*
X406500D01*
X338500Y194000D02*
X339427Y194927D01*
X406500Y205500D02*
X417500Y216500D01*
X318500Y217500D02*
X319500D01*
X328500Y194000D02*
Y208500D01*
X319500Y217500D02*
X328500Y208500D01*
X225634Y13427D02*
X229207Y17000D01*
X229500D01*
X218000Y12500D02*
X218927Y13427D01*
X225634D01*
X206000Y4500D02*
X208000Y6500D01*
Y12500D01*
X193236Y4500D02*
X206000D01*
X340000Y12000D02*
X351750D01*
X300250Y80250D02*
X310243D01*
X310997Y79497D01*
X300000Y80000D02*
X300250Y80250D01*
X315394Y53606D02*
Y58386D01*
Y53606D02*
X316000Y53000D01*
X313780Y60000D02*
X315394Y58386D01*
X272919Y60000D02*
X313780D01*
X327614Y61622D02*
X374622D01*
X326000Y53000D02*
Y60008D01*
X327614Y61622D01*
X314997Y34503D02*
X316000Y33500D01*
X314997Y34503D02*
Y37362D01*
X309358Y43000D02*
X314997Y37362D01*
X289893Y35000D02*
X291893Y37000D01*
X249000Y39500D02*
X253500Y35000D01*
X291893Y37000D02*
X292500D01*
X253500Y35000D02*
X289893D01*
X249000Y39500D02*
Y47500D01*
X266236Y43000D02*
X309358D01*
X262740Y46497D02*
X266236Y43000D01*
X326000Y33500D02*
X333000D01*
X339500Y27000D01*
Y12000D02*
Y27000D01*
X259500Y18500D02*
X306000D01*
X307500Y17000D01*
X239000Y39000D02*
X259500Y18500D01*
X414000Y53000D02*
Y80500D01*
X423500Y90000D01*
X411571Y97571D02*
X412000Y98000D01*
X423625Y100125D02*
Y108000D01*
X312000Y80500D02*
X313000Y79500D01*
X269000Y107500D02*
X269622Y106878D01*
X302378D02*
X310997Y115497D01*
X269622Y106878D02*
X302378D01*
X270419Y57500D02*
X272919Y60000D01*
X269000Y57500D02*
X270419D01*
X310997Y79497D02*
X312000Y80500D01*
X337000Y142000D02*
X352571Y157571D01*
X354571D02*
X355000Y158000D01*
X352571Y157571D02*
X354571D01*
X337000Y73000D02*
Y142000D01*
X332000Y68000D02*
X337000Y73000D01*
X374622Y61622D02*
X375000Y62000D01*
X401375Y53000D02*
X414000D01*
X123500Y227000D02*
X128004Y222496D01*
X96500Y227000D02*
X123500D01*
X84000Y214500D02*
X96500Y227000D01*
X84000Y190500D02*
Y214500D01*
X76000Y182500D02*
X84000Y190500D01*
X89000Y175500D02*
Y197500D01*
X99000Y207500D01*
X76000Y162500D02*
X89000Y175500D01*
X303105Y128605D02*
X306754Y132254D01*
X303105Y117010D02*
Y128605D01*
X311254Y132254D02*
X312000Y133000D01*
X306754Y132254D02*
X311254D01*
X298095Y112000D02*
X303105Y117010D01*
X310997Y115497D02*
Y121997D01*
X312000Y123000D01*
X279000Y112000D02*
X298095D01*
X274246Y116754D02*
X279000Y112000D01*
X269746Y116754D02*
X274246D01*
X269000Y117500D02*
X269746Y116754D01*
X260003Y46497D02*
X262740D01*
X259000Y47500D02*
X260003Y46497D01*
X195000Y233500D02*
X205000D01*
X179000Y217500D02*
X195000Y233500D01*
X288637Y180000D02*
X290000D01*
X278914Y157414D02*
Y170277D01*
X288637Y180000D01*
X269000Y147500D02*
X278914Y157414D01*
X239000Y39000D02*
Y47500D01*
X189000Y8500D02*
X189236D01*
X193236Y4500D01*
X128004Y218496D02*
X129000Y217500D01*
X128004Y218496D02*
Y222496D01*
X144500Y232500D02*
Y233000D01*
X228264Y18236D02*
X229500Y17000D01*
D37*
X269000Y207500D02*
D03*
Y197500D02*
D03*
Y187500D02*
D03*
Y177500D02*
D03*
Y167500D02*
D03*
Y157500D02*
D03*
Y147500D02*
D03*
Y137500D02*
D03*
Y57500D02*
D03*
Y67500D02*
D03*
Y77500D02*
D03*
Y87500D02*
D03*
Y97500D02*
D03*
Y107500D02*
D03*
Y117500D02*
D03*
Y127500D02*
D03*
X179000Y217500D02*
D03*
X169000D02*
D03*
X159000D02*
D03*
X149000D02*
D03*
X139000D02*
D03*
X129000D02*
D03*
X119000D02*
D03*
X109000D02*
D03*
X189000D02*
D03*
X199000D02*
D03*
X209000D02*
D03*
X219000D02*
D03*
X229000D02*
D03*
X239000D02*
D03*
X249000D02*
D03*
X259000D02*
D03*
X99000Y127500D02*
D03*
Y117500D02*
D03*
Y107500D02*
D03*
Y97500D02*
D03*
Y87500D02*
D03*
Y77500D02*
D03*
Y67500D02*
D03*
Y57500D02*
D03*
Y137500D02*
D03*
Y147500D02*
D03*
Y157500D02*
D03*
Y167500D02*
D03*
Y177500D02*
D03*
Y187500D02*
D03*
Y197500D02*
D03*
Y207500D02*
D03*
X259000Y47500D02*
D03*
X249000D02*
D03*
X239000D02*
D03*
X229000D02*
D03*
X219000D02*
D03*
X209000D02*
D03*
X199000D02*
D03*
X189000D02*
D03*
X119000D02*
D03*
X129000D02*
D03*
X139000D02*
D03*
X149000D02*
D03*
X159000D02*
D03*
X169000D02*
D03*
X179000D02*
D03*
X79000Y10000D02*
D03*
Y25000D02*
D03*
X57500Y136500D02*
D03*
X42500D02*
D03*
X57000Y102000D02*
D03*
X42000D02*
D03*
X391500Y147000D02*
D03*
Y137000D02*
D03*
Y127000D02*
D03*
Y117000D02*
D03*
Y107000D02*
D03*
Y97000D02*
D03*
Y87000D02*
D03*
X361500D02*
D03*
Y97000D02*
D03*
Y107000D02*
D03*
Y117000D02*
D03*
Y127000D02*
D03*
Y137000D02*
D03*
X290000Y200000D02*
D03*
Y190000D02*
D03*
Y180000D02*
D03*
X293500Y123000D02*
D03*
Y133000D02*
D03*
Y143000D02*
D03*
X291000Y100500D02*
D03*
Y90500D02*
D03*
Y80500D02*
D03*
X312000Y123000D02*
D03*
Y133000D02*
D03*
Y143000D02*
D03*
Y70500D02*
D03*
Y80500D02*
D03*
Y90500D02*
D03*
X316000Y33500D02*
D03*
X306000D02*
D03*
X316000Y53000D02*
D03*
X306000D02*
D03*
X317500Y17000D02*
D03*
X215000Y233500D02*
D03*
X27500Y182500D02*
D03*
X127500Y9500D02*
D03*
X17500Y166000D02*
D03*
X57500D02*
D03*
X115000Y98000D02*
D03*
Y138000D02*
D03*
X189000Y20000D02*
D03*
X149000D02*
D03*
Y8500D02*
D03*
X189000D02*
D03*
X376500Y12500D02*
D03*
Y52500D02*
D03*
X424500Y108000D02*
D03*
Y68000D02*
D03*
X414000Y53000D02*
D03*
Y13000D02*
D03*
X364000Y52000D02*
D03*
Y12000D02*
D03*
X406000Y108000D02*
D03*
Y68000D02*
D03*
X351750Y12000D02*
D03*
Y52000D02*
D03*
X388750Y13000D02*
D03*
Y53000D02*
D03*
X401375Y13000D02*
D03*
Y53000D02*
D03*
X340000Y12000D02*
D03*
Y52000D02*
D03*
X318500Y217500D02*
D03*
X358500D02*
D03*
X417500Y216500D02*
D03*
X377500D02*
D03*
X415000Y189500D02*
D03*
Y149500D02*
D03*
X402000Y189500D02*
D03*
Y149500D02*
D03*
X347500Y96000D02*
D03*
Y136000D02*
D03*
X329000Y96000D02*
D03*
Y136000D02*
D03*
D38*
X109000Y47500D02*
D03*
X361500Y147000D02*
D03*
X326000Y33500D02*
D03*
Y53000D02*
D03*
X307500Y17000D02*
D03*
X205000Y233500D02*
D03*
X37500Y182500D02*
D03*
X137500Y9500D02*
D03*
D39*
X50000Y9000D02*
D03*
Y69000D02*
D03*
D40*
X15000Y130000D02*
D03*
Y140000D02*
D03*
Y120000D02*
D03*
X15500Y84500D02*
D03*
Y94500D02*
D03*
Y74500D02*
D03*
D41*
X290000Y170000D02*
D03*
X293500Y153000D02*
D03*
X291000Y70500D02*
D03*
X312000Y153000D02*
D03*
Y100500D02*
D03*
D42*
X452500Y148000D02*
D03*
Y128000D02*
D03*
Y108000D02*
D03*
Y168000D02*
D03*
Y56000D02*
D03*
Y36000D02*
D03*
Y16000D02*
D03*
Y76000D02*
D03*
D43*
X343000Y71500D02*
D03*
X353000D02*
D03*
X363000D02*
D03*
X198000Y12500D02*
D03*
X208000D02*
D03*
X218000D02*
D03*
X382500Y167000D02*
D03*
X372500D02*
D03*
X362500D02*
D03*
X382500Y192000D02*
D03*
X372500D02*
D03*
X362500D02*
D03*
X328500Y168500D02*
D03*
X338500D02*
D03*
X348500D02*
D03*
X328500Y194000D02*
D03*
X338500D02*
D03*
X348500D02*
D03*
D44*
X453784Y230000D02*
D03*
X18000Y229784D02*
D03*
D45*
X169000Y64000D02*
D03*
X391342Y70500D02*
D03*
D46*
X188685Y64000D02*
D03*
X175500Y117657D02*
D03*
X155250D02*
D03*
X135000D02*
D03*
X135000Y101842D02*
D03*
X155250D02*
D03*
X175500D02*
D03*
X195500D02*
D03*
X105580Y7581D02*
D03*
X79000Y68343D02*
D03*
X79000Y76157D02*
D03*
X371657Y70500D02*
D03*
D47*
X175500Y137343D02*
D03*
X155250D02*
D03*
X135000D02*
D03*
X135000Y82157D02*
D03*
X155250D02*
D03*
X175500D02*
D03*
X195500D02*
D03*
X79000Y48658D02*
D03*
X79000Y95842D02*
D03*
D48*
X229500Y17000D02*
D03*
D49*
X249185D02*
D03*
X21969Y45842D02*
D03*
D50*
Y26158D02*
D03*
D51*
X119500Y21500D02*
D03*
D52*
X76000Y152500D02*
D03*
D53*
Y162500D02*
D03*
Y172500D02*
D03*
Y182500D02*
D03*
Y192500D02*
D03*
Y202500D02*
D03*
X174500Y233000D02*
D03*
X164500D02*
D03*
X154500D02*
D03*
X144500D02*
D03*
X134500D02*
D03*
D54*
X184500D02*
D03*
D55*
X300000Y80000D02*
D03*
X292500Y37000D02*
D03*
X423500Y90000D02*
D03*
X412000Y98000D02*
D03*
X355000Y158000D02*
D03*
X336000Y150500D02*
D03*
X432000Y30531D02*
D03*
X332000Y68000D02*
D03*
X375000Y62000D02*
D03*
X247500Y5500D02*
D03*
X41500Y123500D02*
D03*
X69000Y76500D02*
D03*
M02*
