G04*
G04 #@! TF.GenerationSoftware,Altium Limited,Altium Designer,22.5.1 (42)*
G04*
G04 Layer_Physical_Order=2*
G04 Layer_Color=16711680*
%FSLAX25Y25*%
%MOIN*%
G70*
G04*
G04 #@! TF.SameCoordinates,4BF25F8D-FF95-44F9-8C9D-AD32542E46D1*
G04*
G04*
G04 #@! TF.FilePolarity,Positive*
G04*
G01*
G75*
%ADD35C,0.03937*%
%ADD36C,0.02756*%
%ADD37C,0.08000*%
%ADD38R,0.08000X0.08000*%
%ADD39C,0.10500*%
%ADD40O,0.12000X0.08000*%
%ADD41R,0.08000X0.08000*%
%ADD42P,0.12989X8X112.5*%
%ADD43C,0.07600*%
%ADD44C,0.23622*%
%ADD45R,0.05315X0.05315*%
%ADD46C,0.05315*%
%ADD47R,0.05315X0.05315*%
G04:AMPARAMS|DCode=48|XSize=76.77mil|YSize=76.77mil|CornerRadius=19.19mil|HoleSize=0mil|Usage=FLASHONLY|Rotation=0.000|XOffset=0mil|YOffset=0mil|HoleType=Round|Shape=RoundedRectangle|*
%AMROUNDEDRECTD48*
21,1,0.07677,0.03839,0,0,0.0*
21,1,0.03839,0.07677,0,0,0.0*
1,1,0.03839,0.01919,-0.01919*
1,1,0.03839,-0.01919,-0.01919*
1,1,0.03839,-0.01919,0.01919*
1,1,0.03839,0.01919,0.01919*
%
%ADD48ROUNDEDRECTD48*%
%ADD49C,0.07677*%
G04:AMPARAMS|DCode=50|XSize=76.77mil|YSize=76.77mil|CornerRadius=19.19mil|HoleSize=0mil|Usage=FLASHONLY|Rotation=90.000|XOffset=0mil|YOffset=0mil|HoleType=Round|Shape=RoundedRectangle|*
%AMROUNDEDRECTD50*
21,1,0.07677,0.03839,0,0,90.0*
21,1,0.03839,0.07677,0,0,90.0*
1,1,0.03839,0.01919,0.01919*
1,1,0.03839,0.01919,-0.01919*
1,1,0.03839,-0.01919,-0.01919*
1,1,0.03839,-0.01919,0.01919*
%
%ADD50ROUNDEDRECTD50*%
%ADD51P,0.07517X4X270.0*%
%ADD52R,0.05906X0.05906*%
%ADD53C,0.05906*%
%ADD54R,0.05906X0.05906*%
%ADD55C,0.05000*%
%ADD56C,0.01968*%
D35*
X145033Y233000D02*
X151533Y226500D01*
X164916D02*
X168223Y223194D01*
X151533Y226500D02*
X164916D01*
X168223Y218277D02*
Y223194D01*
X144500Y233000D02*
X145033D01*
X168223Y218277D02*
X169000Y217500D01*
X4000Y43000D02*
Y93886D01*
X18972Y28028D02*
X20098D01*
X4000Y43000D02*
X18972Y28028D01*
X20098D02*
X21969Y26158D01*
X22811Y27000D02*
X62000D01*
X21969Y26158D02*
X22811Y27000D01*
X62000D02*
X79000Y10000D01*
X391342Y70500D02*
X392032Y71189D01*
X391113Y70270D02*
X391342Y70500D01*
X76000Y192500D02*
X79500D01*
X188685Y64000D02*
Y64373D01*
X187996Y65062D02*
Y65381D01*
X175500Y101842D02*
X184500Y92843D01*
X187996Y65062D02*
X188685Y64373D01*
X184500Y68878D02*
Y92843D01*
Y68878D02*
X187996Y65381D01*
X351500Y210500D02*
X358500Y217500D01*
X290000Y200000D02*
X300500Y210500D01*
X351500D01*
X214559Y233941D02*
Y239194D01*
X212253Y241500D02*
X214559Y239194D01*
X163897Y237319D02*
X168078Y241500D01*
X214559Y233941D02*
X215000Y233500D01*
X168078Y241500D02*
X212253D01*
X27500Y210000D02*
X60000Y242500D01*
X158716D01*
X163897Y237319D01*
X79000Y25599D02*
X83338Y29937D01*
X79000Y25000D02*
Y25599D01*
X83338Y29937D02*
X120000D01*
X236248D01*
X119500Y29437D02*
X120000Y29937D01*
X119500Y21500D02*
Y29437D01*
X127500Y9500D02*
Y10599D01*
X391113Y70113D02*
Y70270D01*
X392032Y71189D02*
X392189D01*
X400500Y79500D02*
X425694D01*
X392189Y71189D02*
X400500Y79500D01*
X236248Y29937D02*
X261154Y5032D01*
X363000D01*
X371657Y70873D02*
X376500Y75715D01*
X371657Y70500D02*
Y70873D01*
X340000Y52000D02*
Y67509D01*
X343000Y70509D01*
Y71500D01*
X52500Y152500D02*
X76000D01*
X50000Y52000D02*
X77000Y25000D01*
X50000Y52000D02*
Y69000D01*
X391500Y117000D02*
X392277Y117777D01*
X376500Y102000D02*
X391500Y117000D01*
X333136Y23136D02*
X436579D01*
X333136D02*
X340000Y30000D01*
Y52000D01*
X403838Y126500D02*
X429500D01*
X395115Y117777D02*
X403838Y126500D01*
X429500D02*
X438000Y118000D01*
X392277Y117777D02*
X395115D01*
X438000Y90500D02*
X452500Y76000D01*
X438000Y90500D02*
Y118000D01*
X312000Y143000D02*
X328500D01*
X336000Y150500D01*
X436858Y23414D02*
X440500Y27056D01*
X388750Y13000D02*
Y22742D01*
X327000Y17000D02*
X333136Y23136D01*
X432000Y30531D02*
Y73194D01*
X425694Y79500D02*
X432000Y73194D01*
X440500Y64000D02*
X452500Y76000D01*
X440500Y27056D02*
Y64000D01*
X317500Y17000D02*
X327000D01*
X376500Y75715D02*
Y102000D01*
X360009Y168500D02*
X361509Y167000D01*
X348500Y168500D02*
X360009D01*
X361509Y167000D02*
X362500D01*
Y192000D01*
X452500Y108000D02*
X465500Y95000D01*
Y19806D02*
Y95000D01*
X454000Y17500D02*
X463194D01*
X465500Y19806D01*
X452500Y16000D02*
X454000Y17500D01*
X329427Y198427D02*
X335000Y204000D01*
X424386D01*
X328500Y194000D02*
X329427Y194927D01*
Y198427D01*
X426000Y174500D02*
Y202386D01*
X424386Y204000D02*
X426000Y202386D01*
Y174500D02*
X452500Y148000D01*
X388750Y13000D02*
X401375D01*
X209500Y177500D02*
X229500Y197500D01*
X209500Y115842D02*
Y177500D01*
X195500Y101842D02*
X209500Y115842D01*
X229500Y197500D02*
X269000D01*
X17000Y140000D02*
X27500Y150500D01*
Y182500D01*
Y210000D01*
X163897Y233603D02*
Y237319D01*
Y233603D02*
X164500Y233000D01*
X57250Y119250D02*
Y136250D01*
Y102250D02*
Y119250D01*
X53000Y123500D02*
X57250Y119250D01*
X41500Y123500D02*
X53000D01*
X99000Y67500D02*
X99567Y68067D01*
X104567D02*
X134736Y98236D01*
Y101579D01*
X135000Y101842D01*
X99567Y68067D02*
X104567D01*
X98421Y68079D02*
X99000Y67500D01*
X79264Y68079D02*
X98421D01*
X79000Y68343D02*
X79264Y68079D01*
X115000Y137829D02*
Y138000D01*
Y137829D02*
X135000Y117829D01*
Y117657D02*
Y117829D01*
X188685Y64000D02*
X213500D01*
X219000Y58500D01*
X135000Y101842D02*
X155250D01*
X175500D01*
X195500D01*
X175500Y117657D02*
X175500Y117657D01*
Y101842D02*
X175500Y101842D01*
X175500Y101842D02*
Y117657D01*
X155250Y117657D02*
X155250Y117657D01*
Y101842D02*
X155250Y101842D01*
X155250Y101842D02*
Y117657D01*
X135000Y101842D02*
Y117657D01*
Y101842D02*
X135000Y101842D01*
X135000Y117657D02*
X135000Y117657D01*
X42500Y136500D02*
X42567Y136567D01*
X36000Y130000D02*
X42500Y136500D01*
X69000Y116500D02*
X89000Y136500D01*
X79500Y192500D02*
X89000Y183000D01*
Y136500D02*
Y183000D01*
X148000Y20000D02*
X149000D01*
X137500Y9500D02*
X148000Y20000D01*
X69000Y76500D02*
Y116500D01*
X219000Y47500D02*
Y58500D01*
X376000Y5032D02*
X441532D01*
X363000D02*
X376000D01*
Y12000D02*
X376500Y12500D01*
X376000Y5032D02*
Y12000D01*
X363000Y5032D02*
X363223Y5254D01*
Y11223D02*
X364000Y12000D01*
X363223Y5254D02*
Y11223D01*
X441532Y5032D02*
X452500Y16000D01*
X137500Y9500D02*
X138000Y9000D01*
X148500Y19500D02*
X149000Y20000D01*
X42567Y142567D02*
X52500Y152500D01*
X42567Y136567D02*
Y142567D01*
X99250Y97750D02*
X114750D01*
X115000Y98000D01*
X99000Y97500D02*
X99250Y97750D01*
X169000Y47500D02*
Y64000D01*
X15000Y140000D02*
X17000D01*
X79000Y76157D02*
X79000Y76157D01*
Y68343D02*
Y76157D01*
X61500Y58500D02*
X71342Y48658D01*
X42500Y102000D02*
X61500Y83000D01*
Y58500D02*
Y83000D01*
X42000Y102000D02*
X42500D01*
X71342Y48658D02*
X79000D01*
X15000Y130000D02*
X36000D01*
X4000Y138386D02*
X5614Y140000D01*
X4000Y93886D02*
Y138386D01*
Y93886D02*
X5000Y92886D01*
X5614Y140000D02*
X15000D01*
X41754Y101754D02*
X42000Y102000D01*
X15500Y84500D02*
X30000D01*
X41754Y96254D01*
Y101754D01*
X42000Y102000D02*
Y111500D01*
X15000Y120000D02*
X33500D01*
X42000Y111500D01*
X6614Y94500D02*
X15500D01*
X5000Y92886D02*
X6614Y94500D01*
D36*
X125071Y10510D02*
X126081Y9500D01*
X127500D01*
X197000Y39500D02*
X269000D01*
X180614Y35000D02*
X274000D01*
X179000Y36614D02*
X180614Y35000D01*
X189000Y47500D02*
X197000Y39500D01*
X274000Y35000D02*
X291000Y52000D01*
X179000Y36614D02*
Y47500D01*
X363000Y53000D02*
Y71500D01*
Y53000D02*
X364000Y52000D01*
X201000Y4000D02*
X245393D01*
X198104Y6896D02*
Y12396D01*
X245393Y4000D02*
X246893Y5500D01*
X198104Y6896D02*
X201000Y4000D01*
X246893Y5500D02*
X247500D01*
X332000Y67393D02*
Y68000D01*
Y67393D02*
X333122Y66271D01*
X331886Y43000D02*
X333500Y44614D01*
X333122Y65291D02*
Y66271D01*
X333500Y44614D02*
Y64913D01*
X307614Y43000D02*
X331886D01*
X333122Y65291D02*
X333500Y64913D01*
X269000Y39500D02*
X283000Y53500D01*
X306000Y33500D02*
Y41386D01*
X307614Y43000D01*
X297000Y60197D02*
X300000Y63197D01*
X292500Y37607D02*
X297000Y42107D01*
Y60197D01*
X300000Y63197D02*
Y80000D01*
X306000Y53000D02*
Y60886D01*
X307614Y62500D02*
X317500D01*
X306000Y60886D02*
X307614Y62500D01*
X292500Y37000D02*
Y37607D01*
X291000Y52000D02*
Y70500D01*
X283000Y53500D02*
Y78390D01*
X282500Y89114D02*
Y114500D01*
X269000Y87500D02*
X280886D01*
X282500Y114500D02*
X289997Y121997D01*
X280886Y87500D02*
X282500Y89114D01*
X269000Y97500D02*
X276386D01*
X278000Y99114D01*
Y122500D01*
X288004Y132504D01*
X302000Y95500D02*
X306229Y91271D01*
X291496Y90996D02*
X311504D01*
X291000Y90500D02*
X291496Y90996D01*
X311699Y90801D02*
X312000Y90500D01*
X284614Y80004D02*
X291000D01*
X412185Y97815D02*
X415685D01*
X423500Y90000D01*
X412000Y98000D02*
X412185Y97815D01*
X406000Y90000D02*
Y108907D01*
X403000Y87000D02*
X406000Y90000D01*
X418905Y116500D02*
X422622Y112784D01*
X402000Y116500D02*
X418905D01*
X392500Y107000D02*
X402000Y116500D01*
X422622Y109003D02*
Y112784D01*
X391500Y107000D02*
X392500D01*
X399500Y61500D02*
X406644Y68644D01*
X375500Y61500D02*
X399500D01*
X422622Y109003D02*
X423625Y108000D01*
X355429Y157571D02*
X360197D01*
X360256Y157512D02*
X363012D01*
X372500Y167000D01*
X355000Y158000D02*
X355429Y157571D01*
X360197D02*
X360256Y157512D01*
X312000Y70500D02*
X329000Y87500D01*
Y96000D01*
X322997Y90500D02*
X328497Y96000D01*
X329000D01*
X312000Y90500D02*
X322997D01*
X392500Y180000D02*
X402000Y189500D01*
X382500Y180000D02*
X392500D01*
X386000Y198000D02*
X412386D01*
X382500Y192000D02*
X383427Y192927D01*
Y195427D02*
X386000Y198000D01*
X383427Y192927D02*
Y195427D01*
X414000Y190500D02*
X415000Y189500D01*
X414000Y190500D02*
Y196386D01*
X412386Y198000D02*
X414000Y196386D01*
X361189Y192000D02*
X362500D01*
X348500Y194000D02*
X359189D01*
X361189Y192000D01*
X329000Y136000D02*
X347500D01*
X348246Y130754D02*
X352000Y127000D01*
X361500D01*
X347500Y136000D02*
X348246Y135254D01*
Y130754D02*
Y135254D01*
X346497Y91497D02*
Y94997D01*
X347500Y96000D01*
X317500Y62500D02*
X346497Y91497D01*
X374354Y188146D02*
X382500Y180000D01*
Y167000D02*
Y180000D01*
X372500Y190689D02*
Y192000D01*
Y190689D02*
X374354Y188835D01*
Y188146D02*
Y188835D01*
X328500Y177500D02*
X338500Y187500D01*
X328500Y168500D02*
Y177500D01*
X338500Y187500D02*
Y194000D01*
X312000Y100500D02*
X328500Y117000D01*
X361500D01*
Y137000D02*
Y147000D01*
X353000D02*
X361500D01*
X338500Y161500D02*
Y168500D01*
Y161500D02*
X353000Y147000D01*
X391500Y87000D02*
X403000D01*
X375000Y62000D02*
X375500Y61500D01*
X352753Y55990D02*
X353000Y56236D01*
Y71500D01*
X351750Y52000D02*
X352753Y53003D01*
Y55990D01*
X302000Y95500D02*
Y143000D01*
X293500D02*
X302000D01*
X312000D01*
X287500D02*
X293500D01*
X284500Y146000D02*
Y159886D01*
Y146000D02*
X287500Y143000D01*
X302000Y163114D02*
Y187000D01*
X286114Y161500D02*
X300386D01*
X284500Y159886D02*
X286114Y161500D01*
X300386D02*
X302000Y163114D01*
X290000Y190000D02*
X299000D01*
X302000Y187000D01*
X293500Y153000D02*
X312000D01*
X293004Y132504D02*
X293500Y133000D01*
X288004Y132504D02*
X293004D01*
X289997Y121997D02*
X292497D01*
X293500Y123000D01*
X283000Y78390D02*
X284614Y80004D01*
X269000Y157500D02*
X281500Y170000D01*
X290000D01*
X229207Y17000D02*
X229500D01*
X57000Y102000D02*
X57250Y102250D01*
Y136250D02*
X57500Y136500D01*
D37*
X269000Y207500D02*
D03*
Y197500D02*
D03*
Y187500D02*
D03*
Y177500D02*
D03*
Y167500D02*
D03*
Y157500D02*
D03*
Y147500D02*
D03*
Y137500D02*
D03*
Y57500D02*
D03*
Y67500D02*
D03*
Y77500D02*
D03*
Y87500D02*
D03*
Y97500D02*
D03*
Y107500D02*
D03*
Y117500D02*
D03*
Y127500D02*
D03*
X179000Y217500D02*
D03*
X169000D02*
D03*
X159000D02*
D03*
X149000D02*
D03*
X139000D02*
D03*
X129000D02*
D03*
X119000D02*
D03*
X109000D02*
D03*
X189000D02*
D03*
X199000D02*
D03*
X209000D02*
D03*
X219000D02*
D03*
X229000D02*
D03*
X239000D02*
D03*
X249000D02*
D03*
X259000D02*
D03*
X99000Y127500D02*
D03*
Y117500D02*
D03*
Y107500D02*
D03*
Y97500D02*
D03*
Y87500D02*
D03*
Y77500D02*
D03*
Y67500D02*
D03*
Y57500D02*
D03*
Y137500D02*
D03*
Y147500D02*
D03*
Y157500D02*
D03*
Y167500D02*
D03*
Y177500D02*
D03*
Y187500D02*
D03*
Y197500D02*
D03*
Y207500D02*
D03*
X259000Y47500D02*
D03*
X249000D02*
D03*
X239000D02*
D03*
X229000D02*
D03*
X219000D02*
D03*
X209000D02*
D03*
X199000D02*
D03*
X189000D02*
D03*
X119000D02*
D03*
X129000D02*
D03*
X139000D02*
D03*
X149000D02*
D03*
X159000D02*
D03*
X169000D02*
D03*
X179000D02*
D03*
X79000Y10000D02*
D03*
Y25000D02*
D03*
X57500Y136500D02*
D03*
X42500D02*
D03*
X57000Y102000D02*
D03*
X42000D02*
D03*
X391500Y147000D02*
D03*
Y137000D02*
D03*
Y127000D02*
D03*
Y117000D02*
D03*
Y107000D02*
D03*
Y97000D02*
D03*
Y87000D02*
D03*
X361500D02*
D03*
Y97000D02*
D03*
Y107000D02*
D03*
Y117000D02*
D03*
Y127000D02*
D03*
Y137000D02*
D03*
X290000Y200000D02*
D03*
Y190000D02*
D03*
Y180000D02*
D03*
X293500Y123000D02*
D03*
Y133000D02*
D03*
Y143000D02*
D03*
X291000Y100500D02*
D03*
Y90500D02*
D03*
Y80500D02*
D03*
X312000Y123000D02*
D03*
Y133000D02*
D03*
Y143000D02*
D03*
Y70500D02*
D03*
Y80500D02*
D03*
Y90500D02*
D03*
X316000Y33500D02*
D03*
X306000D02*
D03*
X316000Y53000D02*
D03*
X306000D02*
D03*
X317500Y17000D02*
D03*
X215000Y233500D02*
D03*
X27500Y182500D02*
D03*
X127500Y9500D02*
D03*
X17500Y166000D02*
D03*
X57500D02*
D03*
X115000Y98000D02*
D03*
Y138000D02*
D03*
X189000Y20000D02*
D03*
X149000D02*
D03*
Y8500D02*
D03*
X189000D02*
D03*
X376500Y12500D02*
D03*
Y52500D02*
D03*
X424500Y108000D02*
D03*
Y68000D02*
D03*
X414000Y53000D02*
D03*
Y13000D02*
D03*
X364000Y52000D02*
D03*
Y12000D02*
D03*
X406000Y108000D02*
D03*
Y68000D02*
D03*
X351750Y12000D02*
D03*
Y52000D02*
D03*
X388750Y13000D02*
D03*
Y53000D02*
D03*
X401375Y13000D02*
D03*
Y53000D02*
D03*
X340000Y12000D02*
D03*
Y52000D02*
D03*
X318500Y217500D02*
D03*
X358500D02*
D03*
X417500Y216500D02*
D03*
X377500D02*
D03*
X415000Y189500D02*
D03*
Y149500D02*
D03*
X402000Y189500D02*
D03*
Y149500D02*
D03*
X347500Y96000D02*
D03*
Y136000D02*
D03*
X329000Y96000D02*
D03*
Y136000D02*
D03*
D38*
X109000Y47500D02*
D03*
X361500Y147000D02*
D03*
X326000Y33500D02*
D03*
Y53000D02*
D03*
X307500Y17000D02*
D03*
X205000Y233500D02*
D03*
X37500Y182500D02*
D03*
X137500Y9500D02*
D03*
D39*
X50000Y9000D02*
D03*
Y69000D02*
D03*
D40*
X15000Y130000D02*
D03*
Y140000D02*
D03*
Y120000D02*
D03*
X15500Y84500D02*
D03*
Y94500D02*
D03*
Y74500D02*
D03*
D41*
X290000Y170000D02*
D03*
X293500Y153000D02*
D03*
X291000Y70500D02*
D03*
X312000Y153000D02*
D03*
Y100500D02*
D03*
D42*
X452500Y148000D02*
D03*
Y128000D02*
D03*
Y108000D02*
D03*
Y168000D02*
D03*
Y56000D02*
D03*
Y36000D02*
D03*
Y16000D02*
D03*
Y76000D02*
D03*
D43*
X343000Y71500D02*
D03*
X353000D02*
D03*
X363000D02*
D03*
X198000Y12500D02*
D03*
X208000D02*
D03*
X218000D02*
D03*
X382500Y167000D02*
D03*
X372500D02*
D03*
X362500D02*
D03*
X382500Y192000D02*
D03*
X372500D02*
D03*
X362500D02*
D03*
X328500Y168500D02*
D03*
X338500D02*
D03*
X348500D02*
D03*
X328500Y194000D02*
D03*
X338500D02*
D03*
X348500D02*
D03*
D44*
X453784Y230000D02*
D03*
X18000Y229784D02*
D03*
D45*
X169000Y64000D02*
D03*
X391342Y70500D02*
D03*
D46*
X188685Y64000D02*
D03*
X175500Y117657D02*
D03*
X155250D02*
D03*
X135000D02*
D03*
X135000Y101842D02*
D03*
X155250D02*
D03*
X175500D02*
D03*
X195500D02*
D03*
X105580Y7581D02*
D03*
X79000Y68343D02*
D03*
X79000Y76157D02*
D03*
X371657Y70500D02*
D03*
D47*
X175500Y137343D02*
D03*
X155250D02*
D03*
X135000D02*
D03*
X135000Y82157D02*
D03*
X155250D02*
D03*
X175500D02*
D03*
X195500D02*
D03*
X79000Y48658D02*
D03*
X79000Y95842D02*
D03*
D48*
X229500Y17000D02*
D03*
D49*
X249185D02*
D03*
X21969Y45842D02*
D03*
D50*
Y26158D02*
D03*
D51*
X119500Y21500D02*
D03*
D52*
X76000Y152500D02*
D03*
D53*
Y162500D02*
D03*
Y172500D02*
D03*
Y182500D02*
D03*
Y192500D02*
D03*
Y202500D02*
D03*
X174500Y233000D02*
D03*
X164500D02*
D03*
X154500D02*
D03*
X144500D02*
D03*
X134500D02*
D03*
D54*
X184500D02*
D03*
D55*
X300000Y80000D02*
D03*
X292500Y37000D02*
D03*
X423500Y90000D02*
D03*
X412000Y98000D02*
D03*
X355000Y158000D02*
D03*
X336000Y150500D02*
D03*
X432000Y30531D02*
D03*
X332000Y68000D02*
D03*
X375000Y62000D02*
D03*
X247500Y5500D02*
D03*
X41500Y123500D02*
D03*
X69000Y76500D02*
D03*
D56*
X198104Y12396D02*
X199077Y11423D01*
X198000Y12500D02*
X198104Y12396D01*
X199077Y9621D02*
Y11423D01*
X198000Y12500D02*
X198073Y12573D01*
X186521Y25984D02*
X191827D01*
X198107Y18074D02*
Y19704D01*
X198073Y18040D02*
X198107Y18074D01*
X191827Y25984D02*
X198107Y19704D01*
X198073Y12573D02*
Y18040D01*
X186335Y25798D02*
X186521Y25984D01*
X164664Y25984D02*
X164850Y25798D01*
X186335D01*
X143178Y25984D02*
X164664D01*
X129694Y12500D02*
X143178Y25984D01*
M02*
